<?xml version="1.0" encoding="UTF-8"?>
<svg version="1.1" xmlns="http://www.w3.org/2000/svg" width="1213" height="499">
<path d="M0 0 C2.83407899 2.83407899 2.47493693 5.21850661 2.76953125 9.109375 C2.92026892 10.99998301 3.12407044 12.8872916 3.38671875 14.765625 C4.41701906 22.87508548 3.18616192 30.1298212 1.43945312 38.01269531 C1.02027177 39.90832655 0.62665959 41.8095581 0.234375 43.7109375 C-1.97220148 54.34475818 -4.64988574 64.83582905 -7.5 75.3125 C-7.80236572 76.44220215 -7.80236572 76.44220215 -8.11083984 77.59472656 C-9.39863398 82.26802288 -11.03751945 86.56913031 -13 91 C-13.37309899 92.65821773 -13.70700977 94.32577014 -14 96 C-15.39873187 101.30987787 -17.21988152 106.33963455 -19.25 111.4375 C-19.874473 113.0244348 -20.49815436 114.61168131 -21.12109375 116.19921875 C-21.4341748 116.99634277 -21.74725586 117.7934668 -22.06982422 118.61474609 C-23.51306318 122.3156502 -24.91758192 126.0306571 -26.3125 129.75 C-26.55452148 130.39251709 -26.79654297 131.03503418 -27.04589844 131.69702148 C-28.79173274 136.36140319 -30.39560871 141.05731371 -31.875 145.8125 C-33.07253802 149.2055244 -34.50640759 152.42500006 -35.9921875 155.69921875 C-37.18385758 158.41973687 -38.20864898 161.17869491 -39.19140625 163.98046875 C-40 166 -40 166 -41.3984375 168.7265625 C-43.56139404 173.14743466 -45.17289628 177.7158806 -46.83789062 182.34179688 C-47.99746525 185.51050593 -49.11872443 188.17808665 -51 191 C-51.66 191 -52.32 191 -53 191 C-53.103125 191.969375 -53.20625 192.93875 -53.3125 193.9375 C-54.59932947 202.84307112 -58.64483035 211.22825075 -62.12695312 219.45117188 C-64.21890068 224.54065487 -65.61924422 229.40753557 -66.58618164 234.82397461 C-67.05057795 237.26595944 -67.7811373 239.50016978 -68.6875 241.8125 C-69.90278306 245.34113915 -70.29605253 247.38956796 -69 251 C-68.66548828 251.9590625 -68.66548828 251.9590625 -68.32421875 252.9375 C-67.35038256 255.65425328 -66.37719898 258.29439952 -65.01489258 260.84277344 C-61.53871205 268.23164309 -61.45224668 277.29676381 -60.875 285.3125 C-60.74653687 287.05019653 -60.74653687 287.05019653 -60.61547852 288.82299805 C-59.94468725 298.82991715 -59.84795214 308.80128496 -59.98583984 318.82739258 C-60.07127569 325.84871147 -59.8137127 332.75305638 -59.25610352 339.75317383 C-59.03401712 342.56873821 -58.85741565 345.37856331 -58.71875 348.19921875 C-58.68136719 348.95267578 -58.64398437 349.70613281 -58.60546875 350.48242188 C-58.53310568 351.99534602 -58.46290608 353.50837474 -58.39453125 355.02148438 C-58.23261724 358.22347352 -58.01933582 360.94199254 -57 364 C-56.77991948 365.72532263 -56.59496906 367.45534033 -56.4375 369.1875 C-56.35371094 370.08855469 -56.26992187 370.98960937 -56.18359375 371.91796875 C-56.12300781 372.60503906 -56.06242187 373.29210937 -56 374 C-55.34 374 -54.68 374 -54 374 C-53.54625 374.804375 -53.0925 375.60875 -52.625 376.4375 C-51.27578175 379.06342361 -51.27578175 379.06342361 -49.1875 379.875 C-40.39537724 380.37740702 -34.3760098 375.16247422 -28.0625 369.625 C-27.51722656 369.12226563 -26.97195313 368.61953125 -26.41015625 368.1015625 C-25 367 -25 367 -23 367 C-23 366.34 -23 365.68 -23 365 C-21.33333333 363.33333333 -19.66666667 361.66666667 -18 360 C-16.70480005 357.83379456 -16.70480005 357.83379456 -16 356 C-15.34 356 -14.68 356 -14 356 C-13.01033343 354.02942497 -12.02743014 352.05693483 -11.0703125 350.0703125 C-9.53629148 346.91352544 -8.01029561 344.01479994 -6 341.125 C-2.9255671 336.3211986 0 330.78820569 0 325 C0.66 325 1.32 325 2 325 C2.37125 323.7625 2.7425 322.525 3.125 321.25 C4.77920087 316.27179174 7.05151407 311.73090025 9.44140625 307.0703125 C14.00308241 298.33354125 14.00308241 298.33354125 17 289 C17.66 289 18.32 289 19 289 C19.12375 288.2575 19.2475 287.515 19.375 286.75 C20 284 20 284 20.9453125 282.11328125 C22.39061742 279.21731844 23.26154994 276.20598307 24.21875 273.12109375 C25 271 25 271 27 268 C27.66 268 28.32 268 29 268 C29.103125 267.154375 29.20625 266.30875 29.3125 265.4375 C30.74226754 258.28866231 34.50667611 252.0474318 37.9375 245.6875 C41.03795625 239.87853513 43.97545051 234.14404151 46.26171875 227.95703125 C47.30616953 225.18840774 48.62291297 222.61646535 50 220 C50.66 220 51.32 220 52 220 C52.0825 219.21625 52.165 218.4325 52.25 217.625 C54.08769306 208.74281689 58.54061946 200.3868607 62.29296875 192.16796875 C62.73253906 191.20503906 63.17210937 190.24210938 63.625 189.25 C64.02976562 188.36828125 64.43453125 187.4865625 64.8515625 186.578125 C66.3353021 183.24728101 67.6680384 179.8722392 68.96484375 176.46484375 C69.28582031 175.63082031 69.60679688 174.79679688 69.9375 173.9375 C70.41509766 172.68259766 70.41509766 172.68259766 70.90234375 171.40234375 C72.01877802 168.9589022 73.36723424 167.12174508 75 165 C75.72010634 163.64179232 76.40907045 162.26651395 77.0625 160.875 C78.23106535 158.38769223 79.02768387 156.97231613 81 155 C84.62394236 154.66444978 87.13627406 154.57921044 90.4375 156.1875 C92 158 92 158 92.4375 160.25 C91.98345007 163.10402812 91.06332127 165.44242128 89.84765625 168.0546875 C88.94313473 170.13050186 88.28513085 172.20977082 87.625 174.375 C86.62212868 177.47666387 85.43951893 180.09226294 83.75 182.875 C76.73671432 195.01582385 72.82418321 209.34152331 70 223 C69.7836792 223.99362549 69.7836792 223.99362549 69.56298828 225.00732422 C65.03513661 246.40384265 65.30728441 269.49141104 66.68066406 291.23535156 C66.73448242 292.09354492 66.78830078 292.95173828 66.84375 293.8359375 C66.89724609 294.57376465 66.95074219 295.3115918 67.00585938 296.07177734 C67 298 67 298 66 301 C66.66 301 67.32 301 68 301 C68.26554687 301.71027344 68.53109375 302.42054688 68.8046875 303.15234375 C69.15789062 304.07144531 69.51109375 304.99054688 69.875 305.9375 C70.22304687 306.85402344 70.57109375 307.77054687 70.9296875 308.71484375 C71.7819086 311.14941056 71.7819086 311.14941056 74 312 C77.8738942 318.67383753 81.8366988 326.32221206 83 334 C83.99 334.33 84.98 334.66 86 335 C88.53756649 339.27379619 88.82946966 344.17553359 88 349 C86.63019469 351.77357274 85.42116281 352.9016589 83 355 C80.51953125 355.4296875 80.51953125 355.4296875 78 355 C76.3046875 353.06640625 76.3046875 353.06640625 74.875 350.5625 C72.83304055 346.75519124 72.83304055 346.75519124 69 345 C69 344.01 69 343.02 69 342 C68.18241655 338.38824997 68.18241655 338.38824997 67 335 C66.34 334.67 65.68 334.34 65 334 C63.7109375 332.00390625 63.7109375 332.00390625 62.375 329.5625 C61.70597656 328.35787109 61.70597656 328.35787109 61.0234375 327.12890625 C60 325 60 325 60 323 C59.34 323 58.68 323 58 323 C57.57847656 322.14535156 57.15695312 321.29070312 56.72265625 320.41015625 C56.17480469 319.30542969 55.62695312 318.20070313 55.0625 317.0625 C54.51722656 315.96035156 53.97195313 314.85820312 53.41015625 313.72265625 C52.25295022 311.15205586 52.25295022 311.15205586 51 310 C50.68076508 307.9427083 50.48838648 305.88386479 50.28125 303.8125 C50.18001957 301.9832467 50.18001957 301.9832467 49 301 C48.77127033 299.2558658 48.60470484 297.50349942 48.46484375 295.75 C48.37783203 294.66589844 48.29082031 293.58179688 48.20117188 292.46484375 C48.11416016 291.32144531 48.02714844 290.17804688 47.9375 289 C47.84662109 287.88753906 47.75574219 286.77507812 47.66210938 285.62890625 C46.99827284 277.15376014 46.72079225 268.91138431 47.5 260.4375 C47.63921875 258.88869141 47.63921875 258.88869141 47.78125 257.30859375 C47.8534375 256.54675781 47.925625 255.78492188 48 255 C47.34 255 46.68 255 46 255 C46 256.65 46 258.3 46 260 C45.34 260 44.68 260 44 260 C43.896875 260.86625 43.79375 261.7325 43.6875 262.625 C42.95069339 266.24205063 41.70053857 268.72763334 40 272 C39.36403551 273.25557513 38.7300087 274.5121331 38.09765625 275.76953125 C37.76677002 276.42590576 37.43588379 277.08228027 37.0949707 277.75854492 C31.78500073 288.32198246 27.17523979 298.9287699 23 310 C22.34 310 21.68 310 21 310 C20.9175 310.94875 20.835 311.8975 20.75 312.875 C19.59020336 320.89692678 15.43268375 328.37549472 12.05078125 335.65234375 C10.92024532 338.07437554 10.92024532 338.07437554 10 341 C9.34 341 8.68 341 8 341 C7.49633942 342.99681363 7.00137723 344.99407443 6.53515625 347 C5.69182123 350.56849197 4.86590448 353.80130661 3 357 C2.34 357 1.68 357 1 357 C0.34 359.31 -0.32 361.62 -1 364 C-1.66 364 -2.32 364 -3 364 C-3.4021875 365.0828125 -3.4021875 365.0828125 -3.8125 366.1875 C-6.81315156 373.29430634 -6.81315156 373.29430634 -10.3125 375.375 C-12.86383806 376.91766952 -13.98540428 378.04352515 -15.8125 380.3125 C-21.74723978 387.48553154 -30.60006129 394.02646435 -39.953125 395.44921875 C-48.49613214 395.76684337 -55.87183662 393.69232724 -62.625 388.375 C-63.40875 387.59125 -64.1925 386.8075 -65 386 C-65 385.34 -65 384.68 -65 384 C-65.99 383.67 -66.98 383.34 -68 383 C-69.09765625 381.1875 -69.09765625 381.1875 -70.0625 379 C-71.32230077 375.8485304 -71.32230077 375.8485304 -74 374 C-74.59765625 372.00390625 -74.59765625 372.00390625 -75.0625 369.5625 C-75.7144301 366.17525953 -75.7144301 366.17525953 -77 363 C-77.1432929 360.72393255 -77.22655758 358.44398018 -77.28125 356.1640625 C-77.29965942 355.4883017 -77.31806885 354.81254089 -77.33703613 354.11630249 C-77.39581835 351.95262398 -77.44859378 349.78886555 -77.5 347.625 C-77.56783127 344.78369401 -77.64157076 341.94262813 -77.71875 339.1015625 C-77.74904297 337.83650879 -77.77933594 336.57145508 -77.81054688 335.26806641 C-77.96288962 332.64015398 -78.27596186 330.50360175 -79 328 C-79.04278083 326.62566569 -79.04057273 325.24940127 -79 323.875 C-78.93034491 317.86476082 -79.08971394 311.73085818 -81 306 C-81.04402805 304.60486122 -81.03951218 303.20777398 -81 301.8125 C-80.94271199 297.44428938 -81.37155815 293.32053769 -82 289 C-82.14695312 289.56203125 -82.29390625 290.1240625 -82.4453125 290.703125 C-84.44989783 298.21455967 -86.6744141 305.65382133 -88.93017578 313.09277344 C-89.1826709 313.92711914 -89.43516602 314.76146484 -89.6953125 315.62109375 C-90.0358667 316.74149048 -90.0358667 316.74149048 -90.38330078 317.88452148 C-90.78874649 319.27533187 -91.16212411 320.67596571 -91.5 322.0847168 C-92.26499364 325.01507573 -93.5919217 327.63648959 -94.875 330.375 C-95.38804687 331.47585938 -95.90109375 332.57671875 -96.4296875 333.7109375 C-97.91722103 336.82661717 -99.44934219 339.91535813 -101 343 C-101.39960937 343.82242187 -101.79921875 344.64484375 -102.2109375 345.4921875 C-108.69599669 358.7669731 -108.69599669 358.7669731 -112.6484375 362.59765625 C-114.23131665 363.91540161 -114.23131665 363.91540161 -114 366 C-114.66 366 -115.32 366 -116 366 C-116.268125 366.556875 -116.53625 367.11375 -116.8125 367.6875 C-120.26932084 374.41920375 -120.26932084 374.41920375 -123.4375 376.9375 C-126.1374401 378.88882347 -126.1374401 378.88882347 -127.8125 381.8125 C-130.25547173 385.3722588 -132.9814097 387.75648592 -136.29296875 390.484375 C-138.10853548 391.90713898 -138.10853548 391.90713898 -139 394 C-139.66 394 -140.32 394 -141 394 C-141 394.66 -141 395.32 -141 396 C-142.65 396.33 -144.3 396.66 -146 397 C-146 397.66 -146 398.32 -146 399 C-150.42808326 403.42808326 -153.81625319 405.01845289 -160 406 C-164.55504022 405.78309332 -167.33831197 403.59369569 -171 401 C-171.94875 400.46375 -172.8975 399.9275 -173.875 399.375 C-174.57625 398.92125 -175.2775 398.4675 -176 398 C-176 397.34 -176 396.68 -176 396 C-176.8353125 395.62875 -176.8353125 395.62875 -177.6875 395.25 C-180.42410913 393.77075182 -182.67650869 392.06532561 -185 390 C-185 389.34 -185 388.68 -185 388 C-185.99 387.67 -186.98 387.34 -188 387 C-193.46490234 376.87981048 -191.61465185 364.77366024 -188.78515625 354.07421875 C-188.01908453 351.074724 -187.52081775 348.12208068 -187.0625 345.0625 C-186.27341357 340.44937936 -184.93699334 337.62229178 -182 334 C-182.66 334 -183.32 334 -184 334 C-184.37318359 334.90492188 -184.37318359 334.90492188 -184.75390625 335.828125 C-186.19551144 338.34076601 -187.47493011 339.26420364 -189.9375 340.75 C-190.62714844 341.17796875 -191.31679688 341.6059375 -192.02734375 342.046875 C-194 343 -194 343 -197 343 C-197 343.66 -197 344.32 -197 345 C-201.38461538 348 -201.38461538 348 -204 348 C-204 348.66 -204 349.32 -204 350 C-205.94140625 351.55078125 -205.94140625 351.55078125 -208.5625 353.3125 C-209.92955078 354.24449219 -209.92955078 354.24449219 -211.32421875 355.1953125 C-212.20722656 355.79085938 -213.09023438 356.38640625 -214 357 C-218.78644417 360.28193702 -218.78644417 360.28193702 -223.125 364.125 C-225.24250273 366.24250273 -227.43060884 367.46206227 -230 369 C-231.7834103 370.27424533 -233.55383307 371.56681649 -235.3125 372.875 C-247.77098708 382 -247.77098708 382 -251 382 C-251 382.66 -251 383.32 -251 384 C-252.45537568 384.83848804 -253.91440373 385.67063934 -255.375 386.5 C-256.18710937 386.9640625 -256.99921875 387.428125 -257.8359375 387.90625 C-260 389 -260 389 -262 389 C-262 389.66 -262 390.32 -262 391 C-262.65226563 391.24234375 -263.30453125 391.4846875 -263.9765625 391.734375 C-268.03434234 393.29045576 -271.62871937 394.75009957 -275.25 397.1875 C-278.25089518 399.16536273 -280.45463742 399.66234642 -284 400 C-284 400.66 -284 401.32 -284 402 C-287.66651247 402.08796382 -291.33274918 402.14071247 -295 402.1875 C-296.02996094 402.21263672 -297.05992187 402.23777344 -298.12109375 402.26367188 C-308.21032516 402.36006581 -315.46739138 399.88745464 -323 393 C-324.8125 390.4375 -324.8125 390.4375 -326 388 C-326.7734375 386.8553125 -326.7734375 386.8553125 -327.5625 385.6875 C-331.55974205 378.2143953 -333.24377939 367.51487087 -331.37890625 359.24609375 C-330.36893371 356.43409553 -329.21056585 353.73180789 -328 351 C-327.17844441 348.96789276 -326.37436932 346.92932017 -325.57055664 344.89013672 C-324.39742974 341.91979757 -323.1984602 338.96019668 -322 336 C-326.67800217 339.30412289 -330.53563984 342.38085313 -334 347 C-337 349 -337 349 -340 349 C-340 349.66 -340 350.32 -340 351 C-343.46153846 354 -343.46153846 354 -346 354 C-346 354.66 -346 355.32 -346 356 C-346.886875 356.391875 -347.77375 356.78375 -348.6875 357.1875 C-352.173562 359.09496789 -354.27206112 361.13566417 -357 364 C-358.05202608 364.88756542 -359.11472709 365.76262565 -360.1875 366.625 C-363.11880346 368.87722335 -363.11880346 368.87722335 -365 372 C-365.66 372 -366.32 372 -367 372 C-367 372.66 -367 373.32 -367 374 C-370.46153846 377 -370.46153846 377 -373 377 C-373 377.66 -373 378.32 -373 379 C-373.66 379 -374.32 379 -375 379 C-375 379.66 -375 380.32 -375 381 C-376.42578125 382.2890625 -376.42578125 382.2890625 -378.3125 383.625 C-378.92738281 384.07101562 -379.54226563 384.51703125 -380.17578125 384.9765625 C-382 386 -382 386 -385 386 C-385 386.66 -385 387.32 -385 388 C-386.65848177 389.01351664 -388.32665961 390.01120795 -390 391 C-390.721875 391.721875 -391.44375 392.44375 -392.1875 393.1875 C-393.0846875 394.0846875 -393.0846875 394.0846875 -394 395 C-394.66 395 -395.32 395 -396 395 C-396.33 395.99 -396.66 396.98 -397 398 C-400.11858735 400.34856578 -403.57289894 402.14036871 -407 404 C-407.92167969 404.50660156 -408.84335937 405.01320313 -409.79296875 405.53515625 C-415.04748707 408.19576567 -419.133045 409.56438993 -425.02734375 408.98046875 C-428.24594424 407.3807287 -429.33898198 405.12746994 -431 402 C-431.6796875 398.37890625 -431.6796875 398.37890625 -431.875 394.5625 C-431.95492187 393.30566406 -432.03484375 392.04882812 -432.1171875 390.75390625 C-431.99458556 386.82655752 -431.18938987 383.72996162 -430 380 C-429.68766743 378.37884522 -429.39374884 376.75394705 -429.125 375.125 C-428.13322498 370.01116004 -426.31084816 365.64699758 -424 361 C-423.66742187 360.32066406 -423.33484375 359.64132812 -422.9921875 358.94140625 C-421.67546539 356.28204231 -420.33097357 353.63821697 -418.96484375 351.00390625 C-416.62042469 346.43095196 -414.72891745 341.84096886 -413 337 C-412.34 337 -411.68 337 -411 337 C-410.90203125 336.43152344 -410.8040625 335.86304688 -410.703125 335.27734375 C-409.7897771 330.56100415 -408.59717211 326.81478533 -406.0703125 322.734375 C-403.2630452 318.18537251 -401.10309407 313.35554458 -399.1875 308.375 C-397.29982835 303.52948064 -395.00395696 298.94689988 -392.63964844 294.31835938 C-390.25268635 289.60570481 -388.21835423 284.8092729 -386.2421875 279.9140625 C-384.97644728 276.94474738 -383.55187787 274.11300098 -382.0625 271.25 C-378.69203745 264.6567498 -376.21851692 257.8160585 -373.70996094 250.86474609 C-372.99527772 248.98759672 -372.19997287 247.1648223 -371.37890625 245.33203125 C-369.05940421 239.72711555 -367.98658485 233.83204132 -370.125 228 C-372.28679681 224.54112511 -373.19149534 224.13107671 -377 223 C-387.06491325 222.41500504 -397.89727383 225.5714128 -406.2265625 231.16796875 C-409 233 -409 233 -412 233 C-412 233.66 -412 234.32 -412 235 C-413.65 235.66 -415.3 236.32 -417 237 C-417 237.66 -417 238.32 -417 239 C-417.7425 239.433125 -418.485 239.86625 -419.25 240.3125 C-422.31729451 242.19470345 -423.78796474 244.1846824 -426 247 C-431.27247956 252 -431.27247956 252 -434 252 C-434 252.66 -434 253.32 -434 254 C-434.66 254 -435.32 254 -436 254 C-436.165 254.680625 -436.33 255.36125 -436.5 256.0625 C-438.39242009 259.76848934 -440.92441916 261.66278853 -444.09765625 264.28515625 C-446.2971145 266.26783012 -447.58940185 268.41390339 -449 271 C-449.66 271 -450.32 271 -451 271 C-451 271.66 -451 272.32 -451 273 C-451.66 273 -452.32 273 -453 273 C-453.226875 273.515625 -453.45375 274.03125 -453.6875 274.5625 C-455.48217618 277.89547005 -457.49965015 281.14703671 -460 284 C-460.66 284 -461.32 284 -462 284 C-462.33 284.99 -462.66 285.98 -463 287 C-464.21602784 288.91780091 -465.47157631 290.81071634 -466.75 292.6875 C-469.93357568 297.40306469 -473.02668306 302.14998871 -476 307 C-476.5775 307.9075 -477.155 308.815 -477.75 309.75 C-479.08367693 311.92172158 -479.08367693 311.92172158 -479.5625 314.25 C-479.706875 314.8275 -479.85125 315.405 -480 316 C-480.99 316.495 -480.99 316.495 -482 317 C-482.97226686 318.61361157 -483.87857608 320.26727083 -484.75 321.9375 C-486.78757388 325.76913282 -488.87790564 329.53716135 -491.125 333.25 C-491.61871094 334.06597656 -492.11242187 334.88195312 -492.62109375 335.72265625 C-493.07613281 336.47417969 -493.53117188 337.22570312 -494 338 C-496.09647924 341.49413206 -498.0310707 344.96879055 -499.5625 348.75 C-500.88817132 351.74716994 -501.68844937 352.87337342 -504 355 C-506.27728685 358.24340854 -508.24672004 361.45647974 -510 365 C-510.67711701 366.21992847 -511.3635306 367.43473782 -512.05859375 368.64453125 C-512.44466797 369.32193359 -512.83074219 369.99933594 -513.22851562 370.69726562 C-514.02849557 372.09690744 -514.83054892 373.4953664 -515.63476562 374.89257812 C-518.06889199 379.17356242 -520.10217017 383.45738108 -522 388 C-522.63817151 389.18249426 -523.29837683 390.35401549 -524 391.5 C-525.44376594 393.90809262 -526.48438609 396.23643608 -527.4375 398.875 C-529 402 -529 402 -531.6875 402.9375 C-532.450625 402.958125 -533.21375 402.97875 -534 403 C-539.25166007 390.74612649 -536.15244329 381.34826474 -531.41796875 369.296875 C-529.70003033 365.30254985 -527.69744026 361.55479797 -525.55078125 357.77734375 C-523.31330134 353.7701694 -521.31415221 349.65256902 -519.296875 345.53125 C-518 343 -518 343 -516 340 C-518.95800528 340.70768358 -518.95800528 340.70768358 -522 342 C-522.31195312 342.63292969 -522.62390625 343.26585937 -522.9453125 343.91796875 C-524.24574374 346.48511635 -525.51100586 347.17616687 -528 348.5625 C-531.02275544 350.2572434 -531.99832634 350.9974895 -534 354 C-535.98828125 355.2109375 -535.98828125 355.2109375 -538.3125 356.375 C-542.23140941 358.46591972 -544.96575998 360.71974052 -548 364 C-549.99665598 365.67067133 -551.99651034 367.33752986 -554 369 C-554.66 369.680625 -555.32 370.36125 -556 371.0625 C-558.44395521 373.43008161 -561.17208255 375.1147217 -564 377 C-564.8971875 377.9590625 -564.8971875 377.9590625 -565.8125 378.9375 C-578.11071355 390.53295849 -598.1254581 394.33497111 -614.453125 393.91015625 C-621.83306093 393.06808664 -627.57424872 390.0896428 -633 385 C-633 384.34 -633 383.68 -633 383 C-633.99 382.67 -634.98 382.34 -636 382 C-639.85733829 376.48682868 -639.90302837 370.12927182 -640.375 363.625 C-640.46313965 362.47209473 -640.5512793 361.31918945 -640.64208984 360.13134766 C-641.21368935 350.94850518 -640.48884752 342.85815622 -638 334 C-639.65 334.33 -641.3 334.66 -643 335 C-643 335.66 -643 336.32 -643 337 C-644.73548169 338.44526736 -646.53975963 339.8087222 -648.375 341.125 C-649.37273437 341.84945313 -650.37046875 342.57390625 -651.3984375 343.3203125 C-654 345 -654 345 -656 345 C-656.33 346.32 -656.66 347.64 -657 349 C-658.32 349.33 -659.64 349.66 -661 350 C-661 350.66 -661 351.32 -661 352 C-661.94875 352.2475 -662.8975 352.495 -663.875 352.75 C-667.47799311 354.19119724 -667.52299048 354.65211176 -669 358 C-673.44444444 362 -673.44444444 362 -676 362 C-676 362.66 -676 363.32 -676 364 C-676.66 364 -677.32 364 -678 364 C-678 364.66 -678 365.32 -678 366 C-678.56847656 366.29132813 -679.13695312 366.58265625 -679.72265625 366.8828125 C-683.7365048 369.01370372 -687.3210953 371.11546701 -690.6875 374.1875 C-693.57753877 376.81419412 -696.15529816 378.06226784 -700 379 C-700 379.66 -700 380.32 -700 381 C-702.3045442 382.60837981 -704.58901887 384.06805106 -707 385.5 C-707.64839844 385.90347656 -708.29679687 386.30695313 -708.96484375 386.72265625 C-713.56539788 389.48298873 -717.70437985 391.05755913 -723 392 C-723.99 391.67 -724.98 391.34 -726 391 C-726.33 391.66 -726.66 392.32 -727 393 C-732.18490857 392.13584857 -735.07421826 391.26009181 -738.25 386.9375 C-742.3807134 378.10911254 -740.92469031 363.75291343 -738.31640625 354.6015625 C-738.06761719 353.94929688 -737.81882812 353.29703125 -737.5625 352.625 C-736.44983473 349.52430248 -735.74031805 346.62941868 -735.25 343.375 C-734.13592976 337.28094056 -731.37475829 332.0327577 -728.6796875 326.51171875 C-727.36001066 323.75267345 -726.20438521 321.06518031 -725.1875 318.1875 C-724 315 -724 315 -722 313 C-719.03934989 307.71159237 -716.58676736 302.13068551 -714.0625 296.625 C-709.83129841 287.4050927 -705.31309345 278.38914816 -700.296875 269.5703125 C-698.88417985 266.77045283 -697.95798238 263.98419114 -697 261 C-696.18733571 258.92926886 -695.35390866 256.86656687 -694.5 254.8125 C-694.0771875 253.78769531 -693.654375 252.76289063 -693.21875 251.70703125 C-692 249 -692 249 -690 246 C-689.5359375 244.576875 -689.5359375 244.576875 -689.0625 243.125 C-688 240 -688 240 -686.5625 237.6875 C-684.78961371 234.63813558 -683.8404016 231.65088159 -682.84375 228.28125 C-682 226 -682 226 -680.5546875 223.65234375 C-678.73139541 220.54175247 -677.71751688 217.4976957 -676.625 214.0625 C-676.19671396 212.7339224 -675.76698881 211.40580799 -675.3359375 210.078125 C-675.11776367 209.40458984 -674.89958984 208.73105469 -674.67480469 208.03710938 C-673.21607808 203.63348606 -671.60406321 199.28393292 -670.015625 194.92578125 C-668.11807903 189.50134135 -668.11807903 189.50134135 -668.875 183.9375 C-669.05804687 183.26589844 -669.24109375 182.59429687 -669.4296875 181.90234375 C-670.32565159 178.1632077 -670.32565159 178.1632077 -673.13671875 175.8046875 C-679.97028759 173.88420294 -688.36370234 174.77932981 -694.6875 178 C-695.780625 178.66 -696.87375 179.32 -698 180 C-698.99 180.33 -699.98 180.66 -701 181 C-701 181.66 -701 182.32 -701 183 C-702.5778125 183.804375 -702.5778125 183.804375 -704.1875 184.625 C-707.31935871 186.41196511 -709.2184776 188.32602936 -711.41015625 191.21875 C-714.39725168 194.56547118 -718.05243888 197.1899352 -721.57421875 199.94921875 C-724.16523917 201.94746363 -724.16523917 201.94746363 -726 205 C-726.66 205 -727.32 205 -728 205 C-728 205.66 -728 206.32 -728 207 C-728.66 207 -729.32 207 -730 207 C-730.12761719 207.89912109 -730.12761719 207.89912109 -730.2578125 208.81640625 C-731.21393675 211.62942445 -732.42205677 212.31568222 -734.875 213.9375 C-738.23516719 216.29561733 -740.05826982 218.33228744 -742 222 C-742.66 222 -743.32 222 -744 222 C-744.28875 222.598125 -744.5775 223.19625 -744.875 223.8125 C-746 226 -746 226 -748 229 C-748.66 229 -749.32 229 -750 229 C-750.268125 229.70125 -750.53625 230.4025 -750.8125 231.125 C-752.0681449 234.1649824 -753.50235123 237.0727774 -755 240 C-755.66 240 -756.32 240 -757 240 C-757.11472656 240.721875 -757.22945312 241.44375 -757.34765625 242.1875 C-758.02592187 245.11175894 -759.04206466 247.34991509 -760.4375 250 C-762.15547506 253.2821016 -763.67172949 256.54072158 -765 260 C-766.00005124 262.60013321 -767.04174627 265.08150463 -768.3125 267.5625 C-771.5750814 274.20849916 -774.26221664 281.12400032 -777 288 C-777.99 288 -778.98 288 -780 288 C-780.103125 289.051875 -780.20625 290.10375 -780.3125 291.1875 C-780.97949332 294.88628113 -781.74990008 297.02986811 -784 300 C-784.66 300 -785.32 300 -786 300 C-786.66 302.64 -787.32 305.28 -788 308 C-788.66 308 -789.32 308 -790 308 C-790 308.66 -790 309.32 -790 310 C-790.66 310 -791.32 310 -792 310 C-792.2475 310.639375 -792.495 311.27875 -792.75 311.9375 C-794.40811572 315.99988351 -796.2035584 319.99724906 -798 324 C-798.66 324 -799.32 324 -800 324 C-800.99 326.97 -801.98 329.94 -803 333 C-803.66 333 -804.32 333 -805 333 C-805.33 333.99 -805.66 334.98 -806 336 C-806.80404207 337.37176097 -807.64005007 338.72507788 -808.5 340.0625 C-809.75646814 342.02390521 -810.95815369 343.91630737 -812 346 C-812.66 346 -813.32 346 -814 346 C-814.12375 346.5775 -814.2475 347.155 -814.375 347.75 C-815.00648824 350.02335767 -815.88858191 351.9253529 -817 354 C-817.66 354 -818.32 354 -819 354 C-819 354.66 -819 355.32 -819 356 C-819.66 356 -820.32 356 -821 356 C-821 356.66 -821 357.32 -821 358 C-823.26003713 360.17633205 -824.53358172 360.95661225 -827.6875 361.25 C-830 361 -830 361 -831 360 C-833.12198469 348.78098834 -830.62758964 338.62473952 -827 328 C-826.65023242 326.67088318 -826.30903983 325.33917261 -826 324 C-825.34 324 -824.68 324 -824 324 C-823.87882813 323.25234375 -823.75765625 322.5046875 -823.6328125 321.734375 C-823.46523438 320.74953125 -823.29765625 319.7646875 -823.125 318.75 C-822.96257812 317.77546875 -822.80015625 316.8009375 -822.6328125 315.796875 C-822.05144152 313.22735883 -821.29159735 311.27928944 -820 309 C-819.34 309 -818.68 309 -818 309 C-817.938125 308.175 -817.87625 307.35 -817.8125 306.5 C-816.94109825 302.7462694 -815.61772442 300.62052643 -813.5234375 297.4609375 C-811.65445428 294.44181076 -810.06926883 291.30608833 -808.5 288.125 C-808.20029297 287.5175293 -807.90058594 286.91005859 -807.59179688 286.28417969 C-806.72613995 284.52363341 -805.86302274 282.76183906 -805 281 C-804.1269735 279.24901464 -803.25220611 277.4988952 -802.375 275.75 C-801.98570312 274.97011719 -801.59640625 274.19023437 -801.1953125 273.38671875 C-800.34002402 271.67893686 -799.48012248 269.97346218 -798.6171875 268.26953125 C-798.16601562 267.37621094 -797.71484375 266.48289062 -797.25 265.5625 C-796.63898438 264.35787109 -796.63898438 264.35787109 -796.015625 263.12890625 C-794.89738379 260.89726446 -794.89738379 260.89726446 -794 258 C-793.34 258 -792.68 258 -792 258 C-791.62875 256.7625 -791.62875 256.7625 -791.25 255.5 C-788.98570988 249.15998766 -785.71144286 243.38022736 -782.34375 237.56640625 C-778.44287878 230.1161958 -775.90949718 222.71663553 -773.875 214.5625 C-773.62363281 213.58990234 -773.37226562 212.61730469 -773.11328125 211.61523438 C-770.8336958 202.68188512 -768.71128532 194.1315425 -768.8125 184.875 C-768.81894531 184.18921875 -768.82539062 183.5034375 -768.83203125 182.796875 C-768.90308492 178.12509617 -769.23247248 173.60516512 -770 169 C-770.66 169 -771.32 169 -772 169 C-772.61875 168.05125 -773.2375 167.1025 -773.875 166.125 C-775.91265465 163.12844905 -776.72634515 162.20034011 -780 161 C-780.66 160.67 -781.32 160.34 -782 160 C-788.08407511 160.11840266 -794.41119907 160.43217255 -800 163 C-800.33 163.66 -800.66 164.32 -801 165 C-802.90110108 165.96722687 -804.80562482 166.92858663 -806.73046875 167.84765625 C-809.73984075 169.37565064 -812.52322674 171.18667585 -815.3359375 173.046875 C-817 174 -817 174 -819 174 C-819 174.66 -819 175.32 -819 176 C-819.66 176 -820.32 176 -821 176 C-821 176.66 -821 177.32 -821 178 C-827.75 182 -827.75 182 -830 182 C-830 182.66 -830 183.32 -830 184 C-830.66 184 -831.32 184 -832 184 C-832.2475 184.61875 -832.495 185.2375 -832.75 185.875 C-834.26029304 188.44249816 -835.36091208 188.71815729 -838 190 C-840.31495754 192.20203279 -842.51108084 194.47486461 -844.6875 196.8125 C-846 198 -846 198 -848 198 C-848.33 198.99 -848.66 199.98 -849 201 C-849.66 201 -850.32 201 -851 201 C-851 201.66 -851 202.32 -851 203 C-852.64453125 204.69140625 -852.64453125 204.69140625 -854.8125 206.5625 C-855.52019531 207.18253906 -856.22789062 207.80257812 -856.95703125 208.44140625 C-859 210 -859 210 -862 211 C-862.68620031 212.32338632 -863.34786461 213.65949948 -864 215 C-865.66247014 217.00348966 -867.32932867 219.00334402 -869 221 C-870.00681866 222.66255646 -871.0055634 224.3300079 -872 226 C-873.60185742 228.43226488 -875.24220802 230.83842625 -876.875 233.25 C-880.53962887 238.69955301 -883.91994469 244.19625942 -887 250 C-887.99414593 251.67016516 -888.9935725 253.33720673 -890 255 C-894.93515427 263.28400895 -899.54317013 271.9932139 -903 281 C-903.33 281.78375 -903.66 282.5675 -904 283.375 C-905.09301554 286.12554749 -905.09301554 286.12554749 -906 289.5625 C-907 293 -907 293 -908 294.9375 C-909.18009093 297.37143755 -909.68573234 299.8344627 -910.30078125 302.45703125 C-911.52455006 306.90772118 -913.18440709 311.20712776 -914.78125 315.53515625 C-915.99805226 318.99446266 -917.00806712 322.47047178 -918 326 C-918.67401574 328.1085247 -919.36088717 330.21299695 -920.0625 332.3125 C-920.40410156 333.33988281 -920.74570312 334.36726563 -921.09765625 335.42578125 C-922 338 -922 338 -923 340 C-923.66 340 -924.32 340 -925 340 C-925.1546875 341.546875 -925.1546875 341.546875 -925.3125 343.125 C-925.99127797 346.95083945 -927.11158795 349.63370025 -929 353 C-929.66 353 -930.32 353 -931 353 C-931.1546875 354.8253125 -931.1546875 354.8253125 -931.3125 356.6875 C-931.79268487 360.50897127 -932.90357687 362.73889735 -935 366 C-936.06917391 368.51255869 -937.05708774 371.04839336 -938.03515625 373.59765625 C-940.5076297 379.75381485 -940.5076297 379.75381485 -943 381 C-943.28359375 381.88042969 -943.5671875 382.76085937 -943.859375 383.66796875 C-945.14872397 387.43445735 -946.93146124 390.08310672 -949.25 393.3125 C-950.06047595 394.45401542 -950.87036977 395.59594438 -951.6796875 396.73828125 C-952.07510742 397.29209473 -952.47052734 397.8459082 -952.87792969 398.41650391 C-959.55625038 406.63915746 -959.55625038 406.63915746 -963 416 C-963.66 416 -964.32 416 -965 416 C-965.66 418.97 -966.32 421.94 -967 425 C-968.32 424.34 -969.64 423.68 -971 423 C-972.74363045 422.27612918 -974.49394279 421.56818048 -976.25 420.875 C-977.14203125 420.52179688 -978.0340625 420.16859375 -978.953125 419.8046875 C-979.62859375 419.53914063 -980.3040625 419.27359375 -981 419 C-980.46539945 414.9013958 -979.84129591 410.82094841 -979.125 406.75 C-978.98320313 405.91984375 -978.84140625 405.0896875 -978.6953125 404.234375 C-978 402 -978 402 -976.5234375 400.53125 C-974.4565204 398.45373332 -974.16474598 396.58308406 -973.5 393.75 C-972.36544768 389.2588188 -970.8921134 385.23833402 -969 381 C-968.40926016 379.33594411 -967.82676934 377.66894958 -967.25 376 C-965.09554922 369.98411051 -962.40655907 364.2747972 -959.6640625 358.51171875 C-958.35644898 355.75222448 -957.0937528 352.98666801 -955.875 350.1875 C-954.49898746 347.04570312 -952.99726514 343.99223291 -951.4375 340.9375 C-948.34461849 334.81814855 -946.11896306 328.51988633 -944 322 C-943.34 322 -942.68 322 -942 322 C-941.62875 320.7625 -941.62875 320.7625 -941.25 319.5 C-939.81295189 315.47626529 -937.97645485 311.78020976 -936 308 C-935.34 308 -934.68 308 -934 308 C-934 307.01 -934 306.02 -934 305 C-933.34 305 -932.68 305 -932 305 C-932.061875 304.113125 -932.12375 303.22625 -932.1875 302.3125 C-931.97242549 298.51285037 -930.94492801 297.21235739 -929 294 C-928.09494051 291.72795156 -927.2434046 289.43408089 -926.4375 287.125 C-926.02371094 285.95195312 -925.60992188 284.77890625 -925.18359375 283.5703125 C-924.3535474 281.06647633 -923.66520385 278.66468647 -923.03515625 276.1171875 C-922.69355469 275.08851563 -922.35195313 274.05984375 -922 273 C-921.01 272.67 -920.02 272.34 -919 272 C-919.04125 271.05125 -919.0825 270.1025 -919.125 269.125 C-919.13313008 265.10060817 -918.34479532 261.37922013 -917.50390625 257.45703125 C-916.94836817 254.74824479 -916.5877475 252.03659368 -916.28125 249.2890625 C-916.0650423 247.52937204 -915.80705149 245.77477694 -915.53125 244.0234375 C-911.51821403 219.41722938 -911.51821403 219.41722938 -914 195 C-914.2165625 193.453125 -914.2165625 193.453125 -914.4375 191.875 C-914.623125 190.59625 -914.80875 189.3175 -915 188 C-915.10957031 187.20980469 -915.21914063 186.41960937 -915.33203125 185.60546875 C-916.29547522 179.74376761 -917.56374597 174.2165339 -922 170 C-929.56229221 166.23296265 -937.33266374 168.80410417 -945 171 C-946.62035156 171.433125 -946.62035156 171.433125 -948.2734375 171.875 C-950.85454288 172.56506416 -953.42895849 173.27351332 -956 174 C-956 174.66 -956 175.32 -956 176 C-956.6290625 176.27972656 -957.258125 176.55945313 -957.90625 176.84765625 C-964.21294082 179.80154307 -968.9440382 183.26071831 -974 188 C-975.05555175 188.88336955 -976.11749464 189.75919414 -977.1875 190.625 C-980.04968727 192.96506561 -980.04968727 192.96506561 -982.625 195.6875 C-985 198 -985 198 -987.1875 199 C-989.77931046 200.42996439 -990.13509633 202.26113837 -991 205 C-991.66 205 -992.32 205 -993 205 C-993 205.66 -993 206.32 -993 207 C-993.7425 207.5775 -994.485 208.155 -995.25 208.75 C-998.2404905 211.19676496 -999.88824441 213.79595703 -1002 217 C-1002.66 217 -1003.32 217 -1004 217 C-1004 217.66 -1004 218.32 -1004 219 C-1005.64351457 220.36176922 -1007.31522656 221.68962066 -1009 223 C-1011.45524406 225.33832768 -1013.68838843 227.57297673 -1015.6875 230.3125 C-1016.120625 230.869375 -1016.55375 231.42625 -1017 232 C-1017.66 232 -1018.32 232 -1019 232 C-1019 232.66 -1019 233.32 -1019 234 C-1019.66 234 -1020.32 234 -1021 234 C-1021 234.99 -1021 235.98 -1021 237 C-1021.66 237 -1022.32 237 -1023 237 C-1023.268125 237.639375 -1023.53625 238.27875 -1023.8125 238.9375 C-1025 241 -1025 241 -1028 242 C-1028.33 242.99 -1028.66 243.98 -1029 245 C-1029.66 245 -1030.32 245 -1031 245 C-1031.33 246.65 -1031.66 248.3 -1032 250 C-1032.66 250 -1033.32 250 -1034 250 C-1034.33 250.99 -1034.66 251.98 -1035 253 C-1035.66 253 -1036.32 253 -1037 253 C-1037.25394531 253.56203125 -1037.50789063 254.1240625 -1037.76953125 254.703125 C-1041.45881713 261.58979197 -1047.35728277 267.51892662 -1052.5546875 273.30859375 C-1054.18469754 275.14832596 -1054.18469754 275.14832596 -1056 278 C-1056.66 278 -1057.32 278 -1058 278 C-1058 278.66 -1058 279.32 -1058 280 C-1059.31200404 281.35432675 -1060.64631404 282.68733482 -1062 284 C-1062.33 284.66 -1062.66 285.32 -1063 286 C-1063.66 286 -1064.32 286 -1065 286 C-1065 286.66 -1065 287.32 -1065 288 C-1065.66 288 -1066.32 288 -1067 288 C-1067.2475 288.639375 -1067.495 289.27875 -1067.75 289.9375 C-1069 292 -1069 292 -1071.125 292.75 C-1071.74375 292.8325 -1072.3625 292.915 -1073 293 C-1071.51992977 289.92655273 -1069.84305464 287.03369232 -1068.0625 284.125 C-1066.43482189 281.4408962 -1064.91983994 278.83270943 -1063.5625 276 C-1062.08086574 273.15526222 -1060.42926414 270.72739577 -1058.5625 268.125 C-1055.54169622 263.90099472 -1053.17958304 259.70789937 -1051 255 C-1050.34 255 -1049.68 255 -1049 255 C-1049 254.34 -1049 253.68 -1049 253 C-1048.34 253 -1047.68 253 -1047 253 C-1045.79371992 250.66785852 -1044.8345262 248.50357861 -1044 246 C-1043.34 246 -1042.68 246 -1042 246 C-1042 245.01 -1042 244.02 -1042 243 C-1040.34614767 241.65080468 -1038.678298 240.31866272 -1037 239 C-1035.68834743 236.88339573 -1035.68834743 236.88339573 -1035 235 C-1034.34 235 -1033.68 235 -1033 235 C-1032.34 233.35 -1031.68 231.7 -1031 230 C-1030.34 230 -1029.68 230 -1029 230 C-1029 229.34 -1029 228.68 -1029 228 C-1027.125 225.875 -1027.125 225.875 -1025 224 C-1024.34 224 -1023.68 224 -1023 224 C-1022.835 223.319375 -1022.67 222.63875 -1022.5 221.9375 C-1020.6437804 218.30240328 -1018.26605631 216.48011124 -1015.16015625 213.8984375 C-1012.33756533 211.41782414 -1009.96868585 208.65560526 -1007.53515625 205.80078125 C-1005.78491168 203.74769538 -1004.0179511 201.79373431 -1002 200 C-1001.34 200 -1000.68 200 -1000 200 C-1000 199.01 -1000 198.02 -1000 197 C-998.68 196.67 -997.36 196.34 -996 196 C-996 195.34 -996 194.68 -996 194 C-995.34 194 -994.68 194 -994 194 C-994 193.34 -994 192.68 -994 192 C-990.61168704 188.31271825 -986.84034635 185.20028862 -983 182 C-982.13375 181.113125 -981.2675 180.22625 -980.375 179.3125 C-978.26749997 177.2604605 -976.69138336 176.09648952 -974 175 C-974 174.34 -974 173.68 -974 173 C-972.7625 172.4121875 -972.7625 172.4121875 -971.5 171.8125 C-968.99166818 170.51354245 -966.72892229 169.21410232 -964.375 167.6875 C-950.56975237 158.90959688 -937.44305812 153.98557891 -921 155 C-920.34 155.33 -919.68 155.66 -919 156 C-919 156.66 -919 157.32 -919 158 C-917.68 158.33 -916.36 158.66 -915 159 C-915 159.66 -915 160.32 -915 161 C-914.443125 161.226875 -913.88625 161.45375 -913.3125 161.6875 C-906.30459269 165.66496091 -903.91611732 171.86503254 -901 179 C-900.67644531 179.7528125 -900.35289062 180.505625 -900.01953125 181.28125 C-898.33484945 185.39408819 -897.90437821 188.60139745 -898 193 C-897.66484375 193.79792969 -897.3296875 194.59585938 -896.984375 195.41796875 C-895.52901177 200.71387383 -896.01661965 205.73873134 -896.3125 211.1875 C-896.36591553 212.3326709 -896.41933105 213.4778418 -896.47436523 214.65771484 C-896.63804624 218.10583192 -896.81738228 221.55283977 -897 225 C-897.09941117 226.97784187 -897.1984021 228.95570494 -897.296875 230.93359375 C-897.51737218 235.28990292 -897.75339688 239.6450938 -898 244 C-897.34 242.35 -896.68 240.7 -896 239 C-895.34 239 -894.68 239 -894 239 C-893.9071875 238.44570313 -893.814375 237.89140625 -893.71875 237.3203125 C-892.80815374 234.38067023 -891.3090059 232.35867613 -889.5 229.875 C-887.05517657 226.55530546 -887.05517657 226.55530546 -885 223 C-884.34 223 -883.68 223 -883 223 C-883 222.34 -883 221.68 -883 221 C-882.34 221 -881.68 221 -881 221 C-880.67 219.68 -880.34 218.36 -880 217 C-879.34 217 -878.68 217 -878 217 C-877.85304688 216.14728516 -877.85304688 216.14728516 -877.703125 215.27734375 C-874.84090203 206.00692159 -865.09087989 198.87573342 -857.40234375 193.74609375 C-854.92819038 192.04770853 -854.92819038 192.04770853 -852.81640625 189.78515625 C-851 188 -851 188 -849 188 C-849 187.34 -849 186.68 -849 186 C-847.34151823 184.98648336 -845.67334039 183.98879205 -844 183 C-843.071875 182.0409375 -843.071875 182.0409375 -842.125 181.0625 C-839.83447239 178.83934085 -837.60455338 177.56231809 -834.78125 176.125 C-832.89698095 175.0286604 -832.89698095 175.0286604 -831.25390625 173.234375 C-828.22137945 170.2281266 -824.87350895 167.77482046 -821.4375 165.25 C-820.76525391 164.74339844 -820.09300781 164.23679688 -819.40039062 163.71484375 C-818.75134766 163.23660156 -818.10230469 162.75835937 -817.43359375 162.265625 C-816.84634521 161.83024414 -816.25909668 161.39486328 -815.65405273 160.94628906 C-814 160 -814 160 -811 160 C-810.67 159.01 -810.34 158.02 -810 157 C-804.78980527 153.60923835 -798.86245049 151.43931409 -792.9453125 149.625 C-790.87590738 149.01091833 -790.87590738 149.01091833 -788.5625 147.8125 C-783.88266763 146.32865071 -778.7229735 146.04342647 -774.04296875 147.6875 C-769.65765926 150.06328844 -765.41360932 153.36850073 -762 157 C-762 157.66 -762 158.32 -762 159 C-761.34 159 -760.68 159 -760 159 C-757.19191339 161.93017733 -756.01855854 165.28912866 -754.6953125 169.04296875 C-754.12956396 170.6353284 -753.48242768 172.19858852 -752.8125 173.75 C-752 176 -752 176 -752 180 C-751.34 180 -750.68 180 -750 180 C-748.4558373 190.83000598 -748.96941548 202.42050493 -752 213 C-751.01 212.67 -750.02 212.34 -749 212 C-748.67 211.34 -748.34 210.68 -748 210 C-747.34 210 -746.68 210 -746 210 C-745.72526855 209.40687012 -745.45053711 208.81374023 -745.16748047 208.20263672 C-744.05080836 206.09585802 -742.89442955 204.53623332 -741.3203125 202.7578125 C-740.54494141 201.87029297 -740.54494141 201.87029297 -739.75390625 200.96484375 C-738.94759766 200.05412109 -738.94759766 200.05412109 -738.125 199.125 C-735.15456202 195.76428549 -732.33575392 192.51194772 -729.87109375 188.75390625 C-728.06186881 186.09105952 -726.56230207 184.61799969 -723.9375 182.8125 C-721.95319845 181.4299636 -720.14815407 180.14964306 -718.4453125 178.4296875 C-715.92950262 175.94107556 -712.57837082 174 -709 174 C-708.67 173.01 -708.34 172.02 -708 171 C-705.33916031 169.00603743 -702.38757675 167 -699 167 C-698.67 166.01 -698.34 165.02 -698 164 C-689.64305481 160.5247196 -679.79924545 157.63472509 -671.1171875 161.17578125 C-665.98565253 163.82365329 -661.76644636 166.62606229 -658 171 C-657.34 171.66 -656.68 172.32 -656 173 C-656 173.99 -656 174.98 -656 176 C-655.34 176 -654.68 176 -654 176 C-651.22158682 187.04476645 -651.16233028 198.50803537 -655.3125 209.22265625 C-656.0961558 211.09409995 -656.0961558 211.09409995 -656.5 213.5625 C-657.07601441 216.37057024 -658.07020214 218.93825478 -659.10546875 221.60546875 C-660.5667834 225.51719749 -661.8366331 229.49201609 -663.1328125 233.4609375 C-664 236 -664 236 -665 238 C-665.66 238 -666.32 238 -667 238 C-667.15855469 238.67804688 -667.31710937 239.35609375 -667.48046875 240.0546875 C-668.96784892 245.98777304 -670.88565759 251.18442174 -673.73828125 256.58984375 C-676.02449552 260.95700846 -677.96571429 265.49089947 -679.84375 270.046875 C-680.99326063 272.82869074 -681.84742358 274.84742358 -684 277 C-684.71408334 278.98356483 -685.38617742 280.98315437 -686 283 C-686.66 283 -687.32 283 -688 283 C-688.13277344 283.56976563 -688.26554687 284.13953125 -688.40234375 284.7265625 C-690.42146839 292.40715428 -694.1264562 299.15205498 -698.13793945 305.9465332 C-699.97229809 309.08578493 -701.57244461 312.12091547 -702.75 315.5625 C-704.03245734 319.08925767 -705.5733164 321.18191582 -708 324 C-708.69493018 325.31882306 -709.35411795 326.65647531 -710 328 C-710.59554688 329.15628906 -711.19109375 330.31257813 -711.8046875 331.50390625 C-717.38813495 342.40441017 -721.99264273 352.82379341 -724 365 C-724.66 365 -725.32 365 -726 365 C-725.98839844 365.74765625 -725.97679687 366.4953125 -725.96484375 367.265625 C-725.95130859 368.74289062 -725.95130859 368.74289062 -725.9375 370.25 C-725.92589844 371.22453125 -725.91429687 372.1990625 -725.90234375 373.203125 C-725.98804423 375.65758678 -726.29293934 377.66168914 -727 380 C-721.18647356 377.84003365 -716.07358892 375.62399209 -711 372 C-709.14765849 370.85121847 -707.29330593 369.70567645 -705.4375 368.5625 C-701.39256589 366.00838171 -698.260989 363.45862469 -695 360 C-693.66666667 359.33333333 -692.33333333 358.66666667 -691 358 C-690.27167969 357.26523437 -689.54335938 356.53046875 -688.79296875 355.7734375 C-685.79258816 352.79403859 -682.6474813 350.21302243 -679.3125 347.625 C-678.69745605 347.14458252 -678.08241211 346.66416504 -677.44873047 346.16918945 C-673.1412456 342.82721402 -668.74655524 339.64257983 -664.25 336.55859375 C-660.04042521 333.64258621 -655.92123995 330.57526953 -651.9609375 327.328125 C-650 326 -650 326 -647 326 C-646.67 325.01 -646.34 324.02 -646 323 C-645.0925 322.401875 -644.185 321.80375 -643.25 321.1875 C-639.61120093 318.73830832 -637.69672427 316.42556866 -635 313 C-634.4225 312.443125 -633.845 311.88625 -633.25 311.3125 C-631.73204695 309.90492721 -631.73204695 309.90492721 -631 307 C-628.9375 306.3125 -628.9375 306.3125 -627 306 C-626.9175 305.484375 -626.835 304.96875 -626.75 304.4375 C-625.27903739 299.65687153 -622.5085123 295.62456549 -619.5 291.6875 C-616.90074236 288.16335313 -615.45416931 284.43981201 -613.9921875 280.33203125 C-612.61433042 277.09352465 -611.19667897 274.59833949 -608 273 C-607.27095914 271.35965807 -606.61344757 269.68698082 -606 268 C-605.33333333 266.33333333 -604.66666667 264.66666667 -604 263 C-603.34 263 -602.68 263 -602 263 C-601.7525 262.360625 -601.505 261.72125 -601.25 261.0625 C-600.20134922 258.49330559 -599.14955661 255.92812529 -598.0625 253.375 C-597.74410156 252.61960937 -597.42570312 251.86421875 -597.09765625 251.0859375 C-595.96710069 248.9374796 -594.77982017 247.62834612 -593 246 C-591.22097844 243.86517413 -590.03572774 242.08931936 -589 239.5 C-587.969117 236.9227925 -586.84098129 235.07110395 -585 233 C-584.34 233 -583.68 233 -583 233 C-582.896875 232.46375 -582.79375 231.9275 -582.6875 231.375 C-580.95737677 225.39821068 -577.74637468 221.45785347 -573.6328125 216.95703125 C-571.79313705 214.90919581 -571.79313705 214.90919581 -570.375 211.6875 C-568.74023353 208.49227463 -567.09658606 207.6738303 -564 206 C-564 205.34 -564 204.68 -564 204 C-563.38125 203.9175 -562.7625 203.835 -562.125 203.75 C-559.85609195 203.21402157 -559.85609195 203.21402157 -559 201.1875 C-558.67 200.465625 -558.34 199.74375 -558 199 C-556.0625 196.75 -556.0625 196.75 -554 195 C-553.01 195 -552.02 195 -551 195 C-551 194.34 -551 193.68 -551 193 C-550.38511719 192.67386719 -549.77023437 192.34773437 -549.13671875 192.01171875 C-548.32847656 191.57472656 -547.52023437 191.13773438 -546.6875 190.6875 C-545.88699219 190.25824219 -545.08648438 189.82898438 -544.26171875 189.38671875 C-542.15342002 188.09406582 -540.69734648 186.7724503 -539 185 C-536.46504947 183.90152144 -535.2102641 183.95269058 -532.5 184.5625 C-529.09769526 186.51882523 -527.25323205 188.31402338 -526 192 C-524.81467105 201.45868555 -526.55747483 209.25179088 -530 218 C-530.59467973 219.70441679 -531.17915146 221.41245438 -531.75 223.125 C-531.99234375 223.82882813 -532.2346875 224.53265625 -532.484375 225.2578125 C-533.0945985 227.01681341 -533.0945985 227.01681341 -533 229 C-533.66 229 -534.32 229 -535 229 C-535.28875 229.5775 -535.5775 230.155 -535.875 230.75 C-536.91666667 232.83333333 -537.95833333 234.91666667 -539 237 C-539.66 237 -540.32 237 -541 237 C-541.226875 237.70125 -541.45375 238.4025 -541.6875 239.125 C-542.97674171 241.94905328 -544.52461243 243.9880981 -546.56640625 246.30859375 C-548.76581696 248.90353881 -550.70007526 251.68823268 -552.66796875 254.4609375 C-553.10753906 254.96882812 -553.54710937 255.47671875 -554 256 C-554.66 256 -555.32 256 -556 256 C-556 256.66 -556 257.32 -556 258 C-556.66 258 -557.32 258 -558 258 C-558.25652344 258.72832031 -558.51304687 259.45664062 -558.77734375 260.20703125 C-560.05605088 263.12803955 -561.55592481 265.22012466 -563.5625 267.6875 C-566.02472431 270.68776321 -566.02472431 270.68776321 -568 274 C-568.66 274 -569.32 274 -570 274 C-570 274.99 -570 275.98 -570 277 C-571.86328125 278.6484375 -571.86328125 278.6484375 -574.3125 280.375 C-577.955628 283.05200016 -577.955628 283.05200016 -580.5625 286.6875 C-582.48916321 289.78691473 -584.73879148 290.42996568 -588 291.88671875 C-591.15012251 293.64020491 -592.81398282 296.1710366 -595 299 C-595.66 299 -596.32 299 -597 299 C-597 299.66 -597 300.32 -597 301 C-597.61875 301.0825 -598.2375 301.165 -598.875 301.25 C-601.12099931 301.77876656 -601.12099931 301.77876656 -601.9375 303.6875 C-602.288125 304.450625 -602.63875 305.21375 -603 306 C-603.78375 306.9075 -604.5675 307.815 -605.375 308.75 C-608.3176415 312.19314944 -610.12829883 315.900444 -612 320 C-612.32871094 320.66644531 -612.65742187 321.33289063 -612.99609375 322.01953125 C-619.59028786 335.84937804 -621.25662704 349.85900459 -621 365 C-620.34 365 -619.68 365 -619 365 C-618.855625 366.093125 -618.71125 367.18625 -618.5625 368.3125 C-618.11711896 371.93122987 -618.11711896 371.93122987 -617 375 C-614.88214887 376.11785113 -614.88214887 376.11785113 -612 377 C-611.39285156 377.28359375 -610.78570313 377.5671875 -610.16015625 377.859375 C-603.10904 380.85314503 -596.2901543 379.94283066 -589 378 C-586.8177289 376.56812667 -586.8177289 376.56812667 -585 375 C-583.845 374.525625 -582.69 374.05125 -581.5 373.5625 C-578.08298281 372.0370459 -576.50453212 370.67725847 -574 368 C-571.30276096 366.36530967 -570.21879014 366 -567 366 C-566.67 365.01 -566.34 364.02 -566 363 C-564.61979784 362.05742292 -563.2328622 361.12308521 -561.8125 360.2421875 C-559.68076259 358.78121229 -557.84558471 357.11685006 -555.9375 355.375 C-553.10490822 352.83599739 -550.72963574 351.04896005 -547 350 C-547 349.34 -547 348.68 -547 348 C-545.38260845 346.70668139 -543.70326111 345.49043466 -542 344.3125 C-535.94746475 340.01815622 -530.34471786 335.46585766 -525.1875 330.125 C-523 328 -523 328 -520 327 C-519.26676204 324.98491642 -519.26676204 324.98491642 -519 323 C-518.34 323 -517.68 323 -517 323 C-517 322.34 -517 321.68 -517 321 C-516.195625 320.731875 -515.39125 320.46375 -514.5625 320.1875 C-513.716875 319.795625 -512.87125 319.40375 -512 319 C-511.67 318.01 -511.34 317.02 -511 316 C-508.4375 314.8125 -508.4375 314.8125 -506 314 C-506 313.34 -506 312.68 -506 312 C-505.34 312 -504.68 312 -504 312 C-504 311.34 -504 310.68 -504 310 C-503.34 310 -502.68 310 -502 310 C-501.731875 309.278125 -501.46375 308.55625 -501.1875 307.8125 C-499.38723835 303.54872241 -497.04588928 300.04966818 -494.1875 296.4375 C-490.31810294 291.37826334 -487.70981787 285.73739939 -485 280 C-484.67 279.34 -484.34 278.68 -484 278 C-483.34 278 -482.68 278 -482 278 C-481.896875 277.34 -481.79375 276.68 -481.6875 276 C-480.80786436 272.16158991 -479.43030104 268.66903309 -478 265 C-477.34 265 -476.68 265 -476 265 C-475.87109375 264.41605469 -475.7421875 263.83210938 -475.609375 263.23046875 C-475.01927782 261.07056177 -474.26739105 259.30141611 -473.25 257.3125 C-472.89679687 256.6215625 -472.54359375 255.930625 -472.1796875 255.21875 C-470.55962583 252.17174659 -468.86640423 249.16854495 -467.1484375 246.17578125 C-465.91277025 243.83473819 -464.9697084 241.46269341 -464 239 C-463.03201105 236.86988504 -462.05208071 234.74517037 -461.0625 232.625 C-459.44233297 229.14985913 -457.84744546 225.69037933 -456.4375 222.125 C-454.9766648 218.94927131 -453.26618172 216.48222577 -451.0859375 213.7734375 C-449.86469653 212.01453295 -449.86469653 212.01453295 -449.57421875 209.74609375 C-448.80715749 206.0777668 -447.14940144 202.98663224 -445.4375 199.6875 C-445.08469971 198.99325928 -444.73189941 198.29901855 -444.3684082 197.58374023 C-442.8844011 194.66402114 -441.38646378 191.75153281 -439.88867188 188.83886719 C-438.81655212 186.74928853 -437.7519162 184.65601052 -436.6875 182.5625 C-436.36257568 181.93754639 -436.03765137 181.31259277 -435.70288086 180.66870117 C-433.65436279 176.63702631 -432.15967755 172.60495243 -430.78393555 168.30053711 C-429.46251364 164.42269264 -427.76008536 160.72498729 -426.0625 157 C-425.72798828 156.2575 -425.39347656 155.515 -425.04882812 154.75 C-424.37361026 153.25125053 -423.69701694 151.75311997 -423.01904297 150.25561523 C-420.19760889 144.01047161 -417.44208036 137.73941538 -414.75 131.4375 C-414.481875 130.81037109 -414.21375 130.18324219 -413.9375 129.53710938 C-413.29109516 128.02498376 -412.64546044 126.51252897 -412 125 C-411.34 125 -410.68 125 -410 125 C-409.896875 123.865625 -409.79375 122.73125 -409.6875 121.5625 C-408.67813442 113.68115235 -405.53614503 106.72187914 -402.18359375 99.578125 C-400.61377384 96.1587153 -399.25392817 92.69140742 -397.95703125 89.16015625 C-388.35730858 63.17865429 -388.35730858 63.17865429 -382 60 C-382 59.34 -382 58.68 -382 58 C-381.34 58 -380.68 58 -380 58 C-380 57.34 -380 56.68 -380 56 C-379.34 56 -378.68 56 -378 56 C-377.71125 55.360625 -377.4225 54.72125 -377.125 54.0625 C-376 52 -376 52 -374 51 C-371.0625 50.6875 -371.0625 50.6875 -368 51 C-365.94643653 52.78007488 -365.10335453 54.24787676 -364.73217773 56.94897461 C-364.63019937 59.34872644 -364.63664894 61.72362249 -364.6875 64.125 C-364.6980542 64.98013184 -364.7086084 65.83526367 -364.71948242 66.71630859 C-364.89762481 75.18492361 -366.32636599 82.64750647 -369.21875 90.6015625 C-370.09013626 93.16234033 -370.09013626 93.16234033 -370.82421875 96.51171875 C-372.22233334 102.21549619 -374.29708892 107.67848933 -376.3125 113.1875 C-376.71766846 114.30084717 -377.12283691 115.41419434 -377.5402832 116.5612793 C-378.68879814 119.70927423 -379.84382217 122.85481338 -381 126 C-381.26780273 126.73637695 -381.53560547 127.47275391 -381.81152344 128.23144531 C-384.34161549 135.182846 -387.25087362 141.7800422 -390.66796875 148.34375 C-391.92843955 150.85729882 -392.96668944 153.38707945 -394 156 C-395.00149455 158.02944367 -396.04612533 160.03129544 -397.09765625 162.03515625 C-398.00422907 164.00920876 -398.54224948 165.88113417 -399 168 C-399.66 168 -400.32 168 -401 168 C-401.12689209 168.57524414 -401.25378418 169.15048828 -401.38452148 169.74316406 C-402.0059464 172.02180427 -402.83132051 173.97990965 -403.84765625 176.109375 C-404.20537109 176.86347656 -404.56308594 177.61757812 -404.93164062 178.39453125 C-405.30482422 179.17183594 -405.67800781 179.94914063 -406.0625 180.75 C-406.62807617 181.93916016 -406.62807617 181.93916016 -407.20507812 183.15234375 C-408.13345839 185.10311746 -409.06629544 187.05176906 -410 189 C-410.66 189 -411.32 189 -412 189 C-412.08507812 189.68964844 -412.17015625 190.37929687 -412.2578125 191.08984375 C-413.1902226 194.74587283 -414.85993395 197.37751465 -416.875 200.5625 C-417.57367187 201.67753906 -418.27234375 202.79257813 -418.9921875 203.94140625 C-420.14861024 205.70303856 -421.33665497 207.44641596 -422.60546875 209.12890625 C-424.0975597 211.13089943 -425.26007733 213.17457074 -426.4375 215.375 C-431.5019394 224.62178425 -431.5019394 224.62178425 -434.5625 227.4375 C-436.29030006 229.14180816 -436.29030006 229.14180816 -437.5 232.5 C-438.85305361 235.65712509 -439.54414511 236.8388477 -442 239 C-445.83981535 243.21141039 -447.86558461 247.78884753 -450 253 C-446.21142296 249.90728405 -442.84355675 246.9151688 -439.75 243.125 C-436.19707075 238.93045824 -432.08259899 235.958879 -427.58984375 232.828125 C-425.45429466 231.32067859 -423.4712845 229.77324067 -421.5 228.0625 C-419 226 -419 226 -416 225 C-415.46375 224.443125 -414.9275 223.88625 -414.375 223.3125 C-405.93912359 215.09862034 -396.50099331 211.96886384 -384.93359375 211.2109375 C-382.99491603 211.20366683 -382.99491603 211.20366683 -382 210 C-379.30345146 209.92680379 -376.63308542 209.90757463 -373.9375 209.9375 C-373.17888672 209.94201172 -372.42027344 209.94652344 -371.63867188 209.95117188 C-369.75908129 209.9629932 -367.87953101 209.98092922 -366 210 C-366 210.66 -366 211.32 -366 212 C-365.13375 212.185625 -365.13375 212.185625 -364.25 212.375 C-361.97664233 213.00648824 -360.0746471 213.88858191 -358 215 C-358 215.99 -358 216.98 -358 218 C-357.34 218 -356.68 218 -356 218 C-349.11312375 238.08672241 -355.09360863 255.83508664 -362.94482422 274.47949219 C-363.97464901 276.93944386 -364.97817241 279.40838827 -365.97265625 281.8828125 C-366.58576885 283.40110978 -367.19904232 284.91934211 -367.8125 286.4375 C-368.22870605 287.4745105 -368.22870605 287.4745105 -368.65332031 288.5324707 C-370.1709984 292.24045516 -371.90184598 295.59453463 -374 299 C-375.20611139 301.36765515 -376.39257844 303.73970284 -377.5625 306.125 C-381.13771926 313.35812719 -384.86803902 320.50149475 -388.67407227 327.61572266 C-390.66008716 331.35014349 -392.54717052 335.01669279 -394 339 C-394.66 339 -395.32 339 -396 339 C-396.226875 340.03125 -396.45375 341.0625 -396.6875 342.125 C-397.88861035 346.36777109 -399.93564546 348.8590366 -403 352 C-403.66 352 -404.32 352 -405 352 C-404.896875 352.66 -404.79375 353.32 -404.6875 354 C-405.01543409 357.14816729 -405.5098101 357.98816625 -407.25 360.5 C-410.83882975 365.89338257 -412.32928342 371.79550126 -414 378 C-414.30164063 379.10988281 -414.60328125 380.21976562 -414.9140625 381.36328125 C-416.05697353 385.73731926 -417 389.4568321 -417 394 C-413.27449345 394.53820639 -411.97824471 393.98611309 -408.73828125 391.91796875 C-407.58661315 391.02017008 -406.44485294 390.1095405 -405.3125 389.1875 C-404.73177734 388.73568359 -404.15105469 388.28386719 -403.55273438 387.81835938 C-400.86743776 385.69185281 -398.91337512 383.87006268 -397 381 C-395.01171875 379.75390625 -395.01171875 379.75390625 -392.6875 378.5625 C-389.11970954 376.65057401 -386.0684965 374.66474696 -383 372 C-382.44570313 371.5359375 -381.89140625 371.071875 -381.3203125 370.59375 C-378.67783054 368.37088964 -376.13044529 366.13044529 -373.6875 363.6875 C-367.57593703 357.57593703 -361.64992926 352.06911131 -354 348 C-353.67 347.34 -353.34 346.68 -353 346 C-352.01 345.67 -351.02 345.34 -350 345 C-349.525625 344.525625 -349.05125 344.05125 -348.5625 343.5625 C-347 342 -347 342 -345.125 341.125 C-342.77560637 340.01455112 -342.77560637 340.01455112 -340.5625 337.5625 C-338 335 -338 335 -335.4375 333.5 C-332.5429913 331.71876387 -331.10479162 329.66194234 -329 327 C-327.82760829 326.00279326 -326.63886764 325.02460155 -325.4375 324.0625 C-322.24747075 321.42696081 -320.57028903 318.8795376 -319 315 C-318.01 315 -317.02 315 -316 315 C-315.731875 314.360625 -315.46375 313.72125 -315.1875 313.0625 C-314 311 -314 311 -311 310 C-310.27255386 308.35895024 -309.61536224 306.68628335 -309 305 C-307.47322631 302.36176671 -305.86072897 299.7897278 -304.2421875 297.20703125 C-302.83650636 295.13161451 -302.83650636 295.13161451 -303 293 C-302.34 293 -301.68 293 -301 293 C-300.731875 292.278125 -300.46375 291.55625 -300.1875 290.8125 C-299 288 -299 288 -297.375 285.3125 C-295.82964154 283.16188894 -295.82964154 283.16188894 -296 281 C-295.34 281 -294.68 281 -294 281 C-292.25150329 276.6960081 -290.6229639 272.35249409 -289 268 C-288.34 268 -287.68 268 -287 268 C-286.731875 267.2575 -286.46375 266.515 -286.1875 265.75 C-285.04702351 263.10889655 -283.71322928 261.28430571 -282 259 C-281.30959426 257.34302621 -280.6469365 255.6744239 -280 254 C-278.70450667 251.31397715 -277.3572799 248.65526116 -276 246 C-275.34 246 -274.68 246 -274 246 C-273.71382812 245.42765625 -273.42765625 244.8553125 -273.1328125 244.265625 C-271.421875 240.84375 -269.7109375 237.421875 -268 234 C-267.34 234 -266.68 234 -266 234 C-265.67 232.68 -265.34 231.36 -265 230 C-264.34 230 -263.68 230 -263 230 C-262.7525 229.484375 -262.505 228.96875 -262.25 228.4375 C-260.60418384 225.22815849 -258.8023904 222.12414336 -257 219 C-256.34 219 -255.68 219 -255 219 C-254.72671875 218.40670898 -254.4534375 217.81341797 -254.171875 217.20214844 C-252.32658027 213.7345321 -249.66386048 211.10862386 -247 208.25 C-246.4534375 207.64800781 -245.906875 207.04601562 -245.34375 206.42578125 C-243.93997089 204.90846118 -242.47416237 203.4490346 -241 202 C-240.34 202 -239.68 202 -239 202 C-239 201.34 -239 200.68 -239 200 C-227.88401254 194.18808777 -227.88401254 194.18808777 -222.125 193.8125 C-216.34949024 196.00719371 -212.45177636 200.90254565 -209.859375 206.43359375 C-207.12819538 214.80117836 -205.81242024 223.65157683 -209 232 C-209.43892578 233.2065625 -209.43892578 233.2065625 -209.88671875 234.4375 C-211.75434599 239.39815417 -213.7053937 243.82683202 -217 248 C-217.66 248 -218.32 248 -219 248 C-219.226875 248.556875 -219.45375 249.11375 -219.6875 249.6875 C-221.36424552 252.64176591 -223.54576685 254.66847851 -226 257 C-226.66 257.66 -227.32 258.32 -228 259 C-228.99 259.495 -228.99 259.495 -230 260 C-230.12503906 260.61359375 -230.25007812 261.2271875 -230.37890625 261.859375 C-231.20925679 264.72121208 -232.54182491 265.53447136 -234.9375 267.25 C-235.64777344 267.77078125 -236.35804688 268.2915625 -237.08984375 268.828125 C-239 270 -239 270 -241 270 C-241 270.66 -241 271.32 -241 272 C-243.89764828 274.99785513 -247.16774712 277.50821421 -250.75 279.625 C-253.1984356 281.1212662 -254.3367356 282.70311106 -256 285 C-256.66 285 -257.32 285 -258 285 C-258 285.66 -258 286.32 -258 287 C-259.4540625 287.7425 -259.4540625 287.7425 -260.9375 288.5 C-265.0166238 290.81917926 -268.27309909 293.80447017 -271.71484375 296.96875 C-274.49786315 299.44254502 -277.43542442 301.61881338 -280.46875 303.7734375 C-282.14463391 304.94052329 -282.14463391 304.94052329 -283 307 C-284.33333333 307.33333333 -285.66666667 307.66666667 -287 308 C-287.33 308.66 -287.66 309.32 -288 310 C-288.66 310 -289.32 310 -290 310 C-290 310.66 -290 311.32 -290 312 C-290.66 312 -291.32 312 -292 312 C-292 312.66 -292 313.32 -292 314 C-292.66 314 -293.32 314 -294 314 C-294.2475 314.845625 -294.495 315.69125 -294.75 316.5625 C-295.8873123 319.69010882 -297.2955366 322.35805042 -298.9921875 325.2109375 C-300.58027319 328.03009736 -301.75290221 331.01780963 -303 334 C-303.44988281 334.8353125 -303.89976562 335.670625 -304.36328125 336.53125 C-306.56805718 341.20390161 -308.07699092 346.01469994 -309.625 350.9375 C-309.93695312 351.90107422 -310.24890625 352.86464844 -310.5703125 353.85742188 C-312.17744219 358.92472949 -313.40099109 363.72036331 -314 369 C-314.2475 369.804375 -314.495 370.60875 -314.75 371.4375 C-315.08140152 374.83436562 -314.01287815 377.13123197 -312.69140625 380.23046875 C-312 382 -312 382 -312 384 C-311.34 384 -310.68 384 -310 384 C-310 384.66 -310 385.32 -310 386 C-308.989375 386.12375 -307.97875 386.2475 -306.9375 386.375 C-303.12062388 386.98085335 -299.68499888 387.87193912 -296 389 C-295.67 388.34 -295.34 387.68 -295 387 C-293.35 387 -291.7 387 -290 387 C-290 387.66 -290 388.32 -290 389 C-288.68 389 -287.36 389 -286 389 C-285.65775391 388.06800781 -285.65775391 388.06800781 -285.30859375 387.1171875 C-283.57507486 384.31250917 -282.18594946 384.06606799 -279.0625 383.125 C-269.5711908 379.93246872 -261.35592338 374.71598166 -253.03393555 369.24731445 C-250.20732812 367.39244347 -247.36381706 365.61801478 -244.4140625 363.96875 C-241.30940484 362.1784211 -238.4918573 360.26868609 -235.625 358.125 C-232.09797616 355.52716451 -228.56082866 352.96222978 -224.9375 350.5 C-224.22464844 350.0153125 -223.51179687 349.530625 -222.77734375 349.03125 C-221 348 -221 348 -219 348 C-219 347.34 -219 346.68 -219 346 C-216.83984375 344.44921875 -216.83984375 344.44921875 -213.9375 342.6875 C-210.66957109 340.67165113 -207.45482303 338.66848523 -204.375 336.375 C-201.88883381 334.55181146 -199.34776377 333.07088145 -196.625 331.625 C-189.49692939 327.76803029 -182.53278327 322.7991749 -178 316 C-177.34 316 -176.68 316 -176 316 C-175.773125 314.989375 -175.54625 313.97875 -175.3125 312.9375 C-174.06602124 308.5434382 -171.87815827 305.52574387 -169 302 C-168.34 302 -167.68 302 -167 302 C-166.690625 301.21625 -166.38125 300.4325 -166.0625 299.625 C-165 297 -165 297 -164 295 C-163.34 295 -162.68 295 -162 295 C-161.34 293.68 -160.68 292.36 -160 291 C-159.34 291 -158.68 291 -158 291 C-158 290.34 -158 289.68 -158 289 C-157.34 288.67 -156.68 288.34 -156 288 C-154.95191959 286.02477154 -153.9479589 284.02518491 -153 282 C-152.34 282 -151.68 282 -151 282 C-150.773125 281.4225 -150.54625 280.845 -150.3125 280.25 C-148.65238361 277.40408619 -146.60812043 276.00158079 -144 274 C-143.175 273.175 -142.35 272.35 -141.5 271.5 C-139.1195129 269.1195129 -136.63202673 267.09212381 -134 265 C-133.38125 264.34 -132.7625 263.68 -132.125 263 C-130.23309652 261.21938496 -128.68307679 260.17562725 -126.4375 258.9375 C-123.17366961 257.31102964 -123.17366961 257.31102964 -121.6328125 255.59375 C-113.13907139 247.30320844 -100.06125246 243.52677615 -89 240 C-89 239.34 -89 238.68 -89 238 C-88.34 238 -87.68 238 -87 238 C-87 237.01 -87 236.02 -87 235 C-86.34 235 -85.68 235 -85 235 C-84.87882813 234.32453125 -84.75765625 233.6490625 -84.6328125 232.953125 C-84.46523438 232.06109375 -84.29765625 231.1690625 -84.125 230.25 C-83.96257813 229.36828125 -83.80015625 228.4865625 -83.6328125 227.578125 C-83 225 -83 225 -81.9921875 223.109375 C-80.60196996 220.1537944 -80.43083803 217.23128524 -80 214 C-79.250218 210.62935841 -78.34336962 207.2988329 -77.4609375 203.9609375 C-76.3471762 199.65550203 -75.60304482 195.41319161 -75 191 C-74.36474424 189.32110979 -73.69313908 187.65583225 -73 186 C-71.50125411 181.50376232 -70.14130171 177.15059967 -69.5625 172.4375 C-68.92636771 168.5500249 -67.51457593 165.59947652 -65.84765625 162.0625 C-64.82561106 159.57568036 -64.85964974 157.66665486 -65 155 C-64.22805369 151.85707575 -63.48277463 148.93013336 -61.98828125 146.05078125 C-60.96253367 143.92225366 -60.49982803 142.06575604 -60.0625 139.75 C-59.27266083 135.95628431 -58.14083333 132.49630834 -56.71875 128.8984375 C-56.05008801 127.13229767 -55.51880551 125.31581927 -55 123.5 C-54.1253967 120.43888846 -53.0586842 117.53212404 -51.921875 114.5625 C-48.67276016 105.53106215 -45.96901604 96.39069188 -44 87 C-43.3711811 84.98777953 -42.70381157 82.98723268 -42 81 C-40.17421374 75.75223112 -38.55586942 70.47770451 -37.0625 65.125 C-35.5817378 59.86320761 -33.8620208 54.77426322 -31.94140625 49.66015625 C-30.35666528 45.18211227 -29.18865495 40.59613248 -28 36 C-25.8766016 27.78952618 -22.73262902 21.01734648 -18 14 C-17.23060319 11.77397385 -17.23060319 11.77397385 -17 10 C-16.34 10 -15.68 10 -15 10 C-15 9.34 -15 8.68 -15 8 C-14.34 8 -13.68 8 -13 8 C-13 7.34 -13 6.68 -13 6 C-12.34 6 -11.68 6 -11 6 C-10.7525 5.38125 -10.505 4.7625 -10.25 4.125 C-7.85904817 0.06038189 -4.50345362 -0.47404775 0 0 Z M-7 15 C-15.48648989 26.38976275 -18.61673161 42.87323666 -20.5234375 56.83203125 C-21 60 -21 60 -22.4375 62.8125 C-23.86031012 65.71503264 -24.43664484 67.80354102 -25 70.9375 C-25.7988063 75.37087496 -27.08482611 78.93025548 -29 83 C-30.3798898 86.08445956 -31.25034708 89.01754544 -31.9375 92.3125 C-32.72060549 96.05400403 -33.83614103 99.46004524 -35.31640625 102.98046875 C-36.20844098 105.61579421 -36.55334406 108.25389311 -37 111 C-37.60266496 113.57082757 -38.22309914 116.12942751 -38.875 118.6875 C-39.05281006 119.39156982 -39.23062012 120.09563965 -39.41381836 120.82104492 C-41.09338439 127.43740279 -42.85636444 134.03020745 -44.74609375 140.58984375 C-46.93530531 148.31447106 -48.48955347 156.12020064 -50 164 C-50.33163248 165.66700593 -50.66423038 167.33382244 -51 169 C-48.21865981 165.66404733 -46.66318745 162.18521359 -45 158.1875 C-44.505 157.00542969 -44.01 155.82335937 -43.5 154.60546875 C-43.005 153.41566406 -42.51 152.22585937 -42 151 C-40.60232677 147.68280466 -39.20184928 144.39492251 -37.5625 141.1875 C-35.82684536 137.64676454 -34.39001403 134.04172293 -32.96484375 130.3671875 C-32 128 -32 128 -30.96484375 125.984375 C-29.90882092 123.8124738 -29.26911484 121.70139125 -28.625 119.375 C-27.33179812 114.92716928 -25.72200665 110.70149352 -23.96875 106.41796875 C-17.86102411 91.58536758 -17.86102411 91.58536758 -16 76 C-15.34 76 -14.68 76 -14 76 C-13.53536131 74.68971889 -13.07875419 73.37659011 -12.625 72.0625 C-12.36976562 71.33160156 -12.11453125 70.60070312 -11.8515625 69.84765625 C-10.68349327 65.94158989 -9.84477908 61.98679938 -9 58 C-8.82919922 57.20746826 -8.65839844 56.41493652 -8.48242188 55.59838867 C-6.46289824 46.08471765 -4.71900704 36.66237083 -4.1875 26.9375 C-4.14681396 26.19443604 -4.10612793 25.45137207 -4.06420898 24.68579102 C-3.9286475 21.2928017 -3.89822904 18.23802914 -5 15 C-5.66 15 -6.32 15 -7 15 Z M-378.0625 68.5625 C-380.52869615 71.66513386 -380.70042017 74.10546216 -381 78 C-381.66 78 -382.32 78 -383 78 C-385.20457089 83.68488331 -387.15304034 89.31227631 -388.5625 95.25 C-389.64514504 99.80416991 -391.04793837 103.75638776 -393 108 C-393.68286274 109.99452825 -394.34703245 111.99548564 -395 114 C-397.4375 121.3125 -397.4375 121.3125 -398.11376953 123.33251953 C-399.00907098 126.00930807 -399.90141128 128.68565167 -400.74609375 131.37890625 C-403.93917427 141.51346615 -408.27581866 151.37373105 -412.75 161 C-414.53309312 164.85078416 -415.97558438 168.68706848 -417.2421875 172.734375 C-418.3834801 176.14648688 -419.80990521 179.43427392 -421.23046875 182.73828125 C-422.21473861 185.23296065 -422.21473861 185.23296065 -422 189 C-422.66 189 -423.32 189 -424 189 C-424.53229326 190.26607607 -425.05044544 191.53810412 -425.5625 192.8125 C-425.85253906 193.52019531 -426.14257812 194.22789062 -426.44140625 194.95703125 C-427.25063024 197.1735067 -427.25063024 197.1735067 -426 200 C-424.86968397 198.27430361 -423.74596893 196.54428261 -422.625 194.8125 C-421.99851562 193.84957031 -421.37203125 192.88664062 -420.7265625 191.89453125 C-419.16962497 189.28437127 -418.10737342 186.81677129 -417 184 C-415.90684879 182.02371185 -414.77955131 180.06605788 -413.625 178.125 C-412.99980469 177.06539063 -412.37460937 176.00578125 -411.73046875 174.9140625 C-410.77476023 173.30467524 -409.81904185 171.69529383 -408.86328125 170.0859375 C-404.73143777 163.00775838 -400.95405813 155.64730199 -398 148 C-396.40841908 144.05894249 -394.70069528 140.42297349 -392.5625 136.75 C-389.07412943 130.5928158 -386.86152316 124.04066998 -384.9375 117.25 C-384.10573695 114.36655476 -383.05131481 111.72535661 -381.8515625 108.98046875 C-376.94500034 97.56933565 -370.387588 79.36977441 -374 67 C-376.16555765 66.7987141 -376.16555765 66.7987141 -378.0625 68.5625 Z M-52 170 C-51 173 -51 173 -51 173 Z M-900 194 C-899 197 -899 197 -899 197 Z M-538 198 C-538 198.66 -538 199.32 -538 200 C-538.556875 200.268125 -539.11375 200.53625 -539.6875 200.8125 C-543.27600651 202.65524658 -546.64489054 204.76326036 -550 207 C-550.495 205.515 -550.495 205.515 -551 204 C-551.66 204.99 -552.32 205.98 -553 207 C-552.505 208.485 -552.505 208.485 -552 210 C-552 209.34 -552 208.68 -552 208 C-551.34 208 -550.68 208 -550 208 C-551 211 -551 211 -553.4375 213.375 C-555.9660071 215.965178 -556.72217786 217.71417165 -558 221 C-558.99 221.33 -559.98 221.66 -561 222 C-562.4477922 224.89558441 -563 226.74188938 -563 230 C-563.66 230 -564.32 230 -565 230 C-565 230.99 -565 231.98 -565 233 C-566.485 233.495 -566.485 233.495 -568 234 C-568.12375 234.804375 -568.2475 235.60875 -568.375 236.4375 C-568.684375 237.7059375 -568.684375 237.7059375 -569 239 C-569.99 239.495 -569.99 239.495 -571 240 C-571.45375 240.94875 -571.9075 241.8975 -572.375 242.875 C-574 246 -574 246 -576.0625 247.375 C-579.15650467 249.96997166 -579.23425693 253.10747275 -580 257 C-580.66 257 -581.32 257 -582 257 C-583.00824858 259.41979659 -583.93602818 261.67100208 -584.4375 264.25 C-584.623125 264.8275 -584.80875 265.405 -585 266 C-586.485 266.495 -586.485 266.495 -588 267 C-590.3300037 270.21717354 -590.3300037 270.21717354 -591 274 C-592.485 274.495 -592.485 274.495 -594 275 C-593.34 275 -592.68 275 -592 275 C-592 275.99 -592 276.98 -592 278 C-592.66 278 -593.32 278 -594 278 C-594.33 278.99 -594.66 279.98 -595 281 C-592.00847418 280.22520264 -592.00847418 280.22520264 -589 279 C-588.67 278.01 -588.34 277.02 -588 276 C-587.2575 275.773125 -586.515 275.54625 -585.75 275.3125 C-582.65465571 273.83517659 -582.21215069 273.01322337 -580.5625 270.125 C-578.30455259 266.17181132 -575.86832999 264.43872978 -572 262 C-570.98277695 260.34378895 -569.98557428 258.67523763 -569 257 C-566.67337433 254.09473168 -564.27121058 251.26383511 -561.86328125 248.42578125 C-559.79694828 246.24544894 -559.79694828 246.24544894 -560 244 C-559.38125 243.7525 -558.7625 243.505 -558.125 243.25 C-555.85109061 242.19197336 -555.85109061 242.19197336 -555.125 240 C-554 238 -554 238 -550.875 236.75 C-549.92625 236.5025 -548.9775 236.255 -548 236 C-548.99 235.505 -548.99 235.505 -550 235 C-549.505 234.21625 -549.01 233.4325 -548.5 232.625 C-546.83462035 230.21447673 -546.83462035 230.21447673 -547 228 C-546.01 227.67 -545.02 227.34 -544 227 C-542.35179805 224.39757586 -542 223.13751221 -542 220 C-541.01 219.67 -540.02 219.34 -539 219 C-538.814375 217.2365625 -538.814375 217.2365625 -538.625 215.4375 C-538.27703238 212.57811395 -537.75683807 210.1703887 -536.9375 207.375 C-536.01936491 204.06971368 -535.83376218 201.40787526 -536 198 C-536.66 198 -537.32 198 -538 198 Z M-428 201 C-427 203 -427 203 -427 203 Z M-224 206 C-229.92476271 211.27646041 -233.95594544 217.21319556 -238 224 C-238.53753906 224.88816406 -239.07507813 225.77632812 -239.62890625 226.69140625 C-240.85576699 228.75714613 -241.95820452 230.83627092 -243 233 C-243.66 233 -244.32 233 -245 233 C-246.58764656 235.06739895 -246.58764656 235.06739895 -248.1875 237.75 C-248.80625 238.74773437 -249.425 239.74546875 -250.0625 240.7734375 C-252.54395846 244.90586631 -254.95409599 249.07622726 -257.32421875 253.2734375 C-259 256 -259 256 -261.03515625 258.54296875 C-262.94455493 260.93066611 -264.33402599 263.2346555 -265.75 265.9375 C-268.49670083 271.09457095 -271.36254693 276.16921192 -274.28417969 281.22827148 C-275.94463731 284.11341986 -277.55537942 287.00020114 -279 290 C-278.34 290 -277.68 290 -277 290 C-277 289.34 -277 288.68 -277 288 C-274.65578881 286.8278944 -272.31055639 285.67638361 -269.9375 284.5625 C-267.40503746 283.21544546 -265.74941702 282.23536619 -264 280 C-264 279.34 -264 278.68 -264 278 C-263.01 277.690625 -263.01 277.690625 -262 277.375 C-257.86637148 275.48042026 -254.55189285 272.8110497 -251 270 C-250.39027344 269.53851563 -249.78054688 269.07703125 -249.15234375 268.6015625 C-247.70773487 267.47456266 -246.34503034 266.24415306 -245 265 C-245 264.01 -245 263.02 -245 262 C-244.401875 261.71125 -243.80375 261.4225 -243.1875 261.125 C-240.80672208 259.95257974 -240.80672208 259.95257974 -238 258 C-238 257.34 -238 256.68 -238 256 C-237.01 255.67 -236.02 255.34 -235 255 C-233.29407447 252.79525547 -233.29407447 252.79525547 -231.6875 250.0625 C-231.07777344 249.06992187 -230.46804688 248.07734375 -229.83984375 247.0546875 C-229.23269531 246.04664063 -228.62554688 245.03859375 -228 244 C-227.44441406 243.09507812 -226.88882813 242.19015625 -226.31640625 241.2578125 C-220.47356112 231.77783727 -220.47356112 231.77783727 -218.125 221 C-218.02445313 219.824375 -217.92390625 218.64875 -217.8203125 217.4375 C-218.02507658 213.52027411 -218.91758095 211.30116199 -221 208 C-221.99 207.34 -222.98 206.68 -224 206 Z M-452 254 C-452 254.99 -452 255.98 -452 257 C-451.34 256.34 -450.68 255.68 -450 255 C-450.66 254.67 -451.32 254.34 -452 254 Z M-117 274 C-117 274.66 -117 275.32 -117 276 C-117.55945313 276.25523437 -118.11890625 276.51046875 -118.6953125 276.7734375 C-126.08805836 280.70788191 -132.79593335 286.71978702 -137 294 C-137 294.66 -137 295.32 -137 296 C-137.66 296 -138.32 296 -139 296 C-139.5775 297.051875 -140.155 298.10375 -140.75 299.1875 C-142.56505785 302.38484389 -144.69286412 305.13596925 -147 308 C-147.33 308.99 -147.66 309.98 -148 311 C-148.99 311.495 -148.99 311.495 -150 312 C-150 312.99 -150 313.98 -150 315 C-150.66 315 -151.32 315 -152 315 C-152.54269531 316.04800781 -153.08539062 317.09601563 -153.64453125 318.17578125 C-154.36689559 319.55484044 -155.08956801 320.93373829 -155.8125 322.3125 C-156.16892578 323.00279297 -156.52535156 323.69308594 -156.89257812 324.40429688 C-157.24384766 325.07138672 -157.59511719 325.73847656 -157.95703125 326.42578125 C-158.27647705 327.03848877 -158.59592285 327.65119629 -158.92504883 328.2824707 C-160 330 -160 330 -161.5378418 331.50073242 C-163.5650275 333.57936782 -164.24229812 336.00244435 -165.18359375 338.703125 C-166.04014691 341.11294921 -167.01216007 343.45370352 -168 345.8125 C-171.27757989 354.10063306 -173.20640988 361.92349643 -173.8125 370.8125 C-173.86559326 371.52994385 -173.91868652 372.2473877 -173.97338867 372.98657227 C-174.20494305 377.45270979 -173.91666266 380.94354083 -172 385 C-169.87660744 387.47658168 -169.87660744 387.47658168 -167.25 389.5 C-166.40953125 390.2115625 -165.5690625 390.923125 -164.703125 391.65625 C-162.00909867 393.34400064 -162.00909867 393.34400064 -158.83203125 392.33203125 C-153.68893282 389.91300151 -149.82739583 386.15545833 -146 382 C-146 381.34 -146 380.68 -146 380 C-145.34 380 -144.68 380 -144 380 C-144 379.34 -144 378.68 -144 378 C-142.515 377.505 -142.515 377.505 -141 377 C-139.50546296 375.30848482 -139.50546296 375.30848482 -138.125 373.25 C-136.37844203 370.82279811 -134.77676257 368.78263724 -132.625 366.6875 C-127.34249133 361.27921731 -122.5953875 355.14019938 -120 348 C-119.38223707 346.60094866 -118.75726763 345.2050564 -118.125 343.8125 C-116.33423274 339.80805365 -114.68609569 335.76121983 -113.0703125 331.68359375 C-107.87314383 318.65273653 -107.87314383 318.65273653 -105.25 313.6875 C-103.74426342 310.45016636 -103.47911357 307.53346258 -103 304 C-102.33966899 301.77385412 -101.59574551 299.5932963 -100.81640625 297.40625 C-98.57383674 290.79657145 -97.05177091 284.04188434 -95.58789062 277.22851562 C-94.57893036 272.76256003 -93.14897976 269.07831243 -91 265 C-90.29241674 261.7633037 -90.29241674 261.7633037 -90 259 C-99.24850239 259 -110.40706833 267.8982323 -117 274 Z " fill="#FBFBFB" transform="translate(1088,18)"/>
<path d="M0 0 C5.64400585 1.65557505 10.19353867 3.50439176 15 7 C15.9075 7.495 16.815 7.99 17.75 8.5 C20 10 20 10 21.5625 11.75 C22.17429717 14.89638542 20.74715783 16.40912158 19.08984375 19.00390625 C17.20980784 22.44726952 16.6830433 26.17225239 16 30 C15.50010505 32.51963181 14.99228772 35.03676 14.46484375 37.55078125 C12.83424581 46.09028307 12.80239802 54.34942436 13 63 C12.01 63 11.02 63 10 63 C9.443125 61.7934375 9.443125 61.7934375 8.875 60.5625 C6.24440071 55.31376872 3.09921277 50.03747121 -1.125 45.9375 C-6.05240105 40.84585224 -7.27029409 35.97523278 -7.375 28.9375 C-7.21600633 23.93449903 -6.71956785 19.72881158 -5 15 C-4.30667556 12.73093819 -3.61972341 10.45992415 -2.9375 8.1875 C-1.12979351 2.25958702 -1.12979351 2.25958702 0 0 Z " fill="#FBFBFB" transform="translate(1177,80)"/>
<path d="M0 0 C0.66 0 1.32 0 2 0 C2.33 3.3 2.66 6.6 3 10 C2.01 10.495 2.01 10.495 1 11 C-0.20272819 8.59454362 -0.10071472 7.05003047 -0.0625 4.375 C-0.05347656 3.55773437 -0.04445313 2.74046875 -0.03515625 1.8984375 C-0.02355469 1.27195312 -0.01195312 0.64546875 0 0 Z " fill="#AEAEAE" transform="translate(310,437)"/>
<path d="M0 0 C3.3 0 6.6 0 10 0 C10 0.66 10 1.32 10 2 C6.37 2 2.74 2 -1 2 C-0.67 1.34 -0.34 0.68 0 0 Z " fill="#B0B0AE" transform="translate(447,436)"/>
<path d="M0 0 C0.66 0.33 1.32 0.66 2 1 C1.67 1.66 1.34 2.32 1 3 C0.34 3 -0.32 3 -1 3 C-1.268125 3.61875 -1.53625 4.2375 -1.8125 4.875 C-3 7 -3 7 -6 9 C-6.33 8.34 -6.66 7.68 -7 7 C-4.66666667 4.66666667 -2.33333333 2.33333333 0 0 Z " fill="#F2F2F2" transform="translate(953,386)"/>
<path d="M0 0 C0 0.66 0 1.32 0 2 C-3.47325181 3.1577506 -6.36067448 3.06866652 -10 3 C-10 2.34 -10 1.68 -10 1 C-2.25 0 -2.25 0 0 0 Z " fill="#AEAEAE" transform="translate(169,461)"/>
<path d="M0 0 C0.66 0 1.32 0 2 0 C2 2.97 2 5.94 2 9 C1.34 9 0.68 9 0 9 C0 6.03 0 3.06 0 0 Z " fill="#ACACAC" transform="translate(280,101)"/>
<path d="M0 0 C0.66 0 1.32 0 2 0 C2.33 2.64 2.66 5.28 3 8 C2.01 8.495 2.01 8.495 1 9 C0.67 6.03 0.34 3.06 0 0 Z " fill="#B0B0AE" transform="translate(327,338)"/>
<path d="M0 0 C0.66 0 1.32 0 2 0 C2 1.65 2 3.3 2 5 C1.34 5 0.68 5 0 5 C0 3.35 0 1.7 0 0 Z " fill="#B0B0AE" transform="translate(443,445)"/>
<path d="M0 0 C0.66 0 1.32 0 2 0 C2 1.65 2 3.3 2 5 C1.34 5 0.68 5 0 5 C0 3.35 0 1.7 0 0 Z " fill="#B0B0B0" transform="translate(276,55)"/>
<path d="M0 0 C0.66 0 1.32 0 2 0 C2 1.65 2 3.3 2 5 C1.34 5 0.68 5 0 5 C0 3.35 0 1.7 0 0 Z " fill="#AFAFAF" transform="translate(668,17)"/>
<path d="M0 0 C0.99 0.495 0.99 0.495 2 1 C2 2.32 2 3.64 2 5 C1.34 5 0.68 5 0 5 C0 3.35 0 1.7 0 0 Z " fill="#AEAEAE" transform="translate(1059,491)"/>
<path d="M0 0 C1.65 0 3.3 0 5 0 C4.67 0.66 4.34 1.32 4 2 C2.68 2 1.36 2 0 2 C0 1.34 0 0.68 0 0 Z " fill="#B1B1AF" transform="translate(371,443)"/>
<path d="M0 0 C0.66 0 1.32 0 2 0 C1.67 1.65 1.34 3.3 1 5 C0.67 5 0.34 5 0 5 C0 3.35 0 1.7 0 0 Z " fill="#AFAFAF" transform="translate(762,259)"/>
<path d="M0 0 C1.32 0 2.64 0 4 0 C4 0.66 4 1.32 4 2 C2.68 2 1.36 2 0 2 C0 1.34 0 0.68 0 0 Z " fill="#AFAFAF" transform="translate(560,449)"/>
<path d="M0 0 C0.66 0 1.32 0 2 0 C2.33 1.32 2.66 2.64 3 4 C2.01 3.67 1.02 3.34 0 3 C0 2.01 0 1.02 0 0 Z " fill="#AEAEAE" transform="translate(309,432)"/>
<path d="M0 0 C0 0.66 0 1.32 0 2 C-1.32 2.33 -2.64 2.66 -4 3 C-4 2.34 -4 1.68 -4 1 C-2 0 -2 0 0 0 Z " fill="#ADADAD" transform="translate(840,424)"/>
<path d="M0 0 C1.32 0 2.64 0 4 0 C4 0.66 4 1.32 4 2 C2.68 2 1.36 2 0 2 C0 1.34 0 0.68 0 0 Z " fill="#B1B1B0" transform="translate(376,376)"/>
<path d="M0 0 C0.66 0 1.32 0 2 0 C1.67 1.32 1.34 2.64 1 4 C0.34 4 -0.32 4 -1 4 C-0.67 2.68 -0.34 1.36 0 0 Z " fill="#B1B1AF" transform="translate(1116,168)"/>
<path d="M0 0 C0.66 0 1.32 0 2 0 C2 1.32 2 2.64 2 4 C1.34 4 0.68 4 0 4 C0 2.68 0 1.36 0 0 Z " fill="#ABABAB" transform="translate(276,61)"/>
<path d="M0 0 C1.32 0 2.64 0 4 0 C3.67 0.66 3.34 1.32 3 2 C2.01 2 1.02 2 0 2 C0 1.34 0 0.68 0 0 Z " fill="#B0B0B0" transform="translate(1155,373)"/>
<path d="M0 0 C0.66 0 1.32 0 2 0 C2 1.32 2 2.64 2 4 C1.34 3.67 0.68 3.34 0 3 C0 2.01 0 1.02 0 0 Z " fill="#AEAEAE" transform="translate(1037,253)"/>
<path d="M0 0 C0.66 0 1.32 0 2 0 C1.67 1.32 1.34 2.64 1 4 C0.67 2.68 0.34 1.36 0 0 Z " fill="#AEAEAE" transform="translate(275,50)"/>
<path d="M0 0 C0.99 0.33 1.98 0.66 3 1 C3 1.66 3 2.32 3 3 C2.01 2.67 1.02 2.34 0 2 C0 1.34 0 0.68 0 0 Z " fill="#ACACAC" transform="translate(1018,43)"/>
<path d="M0 0 C0.99 0 1.98 0 3 0 C3 0.66 3 1.32 3 2 C2.01 2 1.02 2 0 2 C0 1.34 0 0.68 0 0 Z " fill="#AFAFAF" transform="translate(843,474)"/>
<path d="M0 0 C0.99 0 1.98 0 3 0 C3 0.66 3 1.32 3 2 C2.01 2 1.02 2 0 2 C0 1.34 0 0.68 0 0 Z " fill="#B2B2B0" transform="translate(476,434)"/>
<path d="M0 0 C0.66 0 1.32 0 2 0 C2 0.99 2 1.98 2 3 C1.34 3 0.68 3 0 3 C0 2.01 0 1.02 0 0 Z " fill="#AEB0AD" transform="translate(777,432)"/>
<path d="M0 0 C0.66 0 1.32 0 2 0 C2 0.99 2 1.98 2 3 C1.34 3 0.68 3 0 3 C0 2.01 0 1.02 0 0 Z " fill="#AFAFAF" transform="translate(307,409)"/>
<path d="M0 0 C0.66 0 1.32 0 2 0 C2 0.99 2 1.98 2 3 C1.34 3 0.68 3 0 3 C0 2.01 0 1.02 0 0 Z " fill="#B0B0B0" transform="translate(37,396)"/>
<path d="M0 0 C0.66 0 1.32 0 2 0 C2 0.99 2 1.98 2 3 C1.34 3 0.68 3 0 3 C0 2.01 0 1.02 0 0 Z " fill="#AEAEAE" transform="translate(302,348)"/>
<path d="M0 0 C0.66 0 1.32 0 2 0 C2 0.99 2 1.98 2 3 C1.34 3 0.68 3 0 3 C0 2.01 0 1.02 0 0 Z " fill="#B1B1AF" transform="translate(293,252)"/>
<path d="M0 0 C0.99 0 1.98 0 3 0 C3 0.66 3 1.32 3 2 C2.01 2 1.02 2 0 2 C0 1.34 0 0.68 0 0 Z " fill="#ADADAD" transform="translate(351,236)"/>
<path d="M0 0 C0.66 0 1.32 0 2 0 C2 0.99 2 1.98 2 3 C1.34 3 0.68 3 0 3 C0 2.01 0 1.02 0 0 Z " fill="#AEAEAE" transform="translate(291,226)"/>
<path d="M0 0 C0.66 0 1.32 0 2 0 C2 0.99 2 1.98 2 3 C1.34 3 0.68 3 0 3 C0 2.01 0 1.02 0 0 Z " fill="#AFAFAF" transform="translate(283,141)"/>
<path d="M0 0 C0.66 0 1.32 0 2 0 C2 0.99 2 1.98 2 3 C1.34 3 0.68 3 0 3 C0 2.01 0 1.02 0 0 Z " fill="#A9A9A9" transform="translate(126,123)"/>
<path d="M0 0 C0.66 0 1.32 0 2 0 C2 0.99 2 1.98 2 3 C1.34 3 0.68 3 0 3 C0 2.01 0 1.02 0 0 Z " fill="#ABABAB" transform="translate(278,86)"/>
<path d="M0 0 C0.66 0 1.32 0 2 0 C2 0.66 2 1.32 2 2 C1.01 1.67 0.02 1.34 -1 1 C-0.67 0.67 -0.34 0.34 0 0 Z " fill="#B0B0AE" transform="translate(1019,176)"/>
<path d="M0 0 C0.66 0 1.32 0 2 0 C2 0.66 2 1.32 2 2 C1.34 2 0.68 2 0 2 C0 1.34 0 0.68 0 0 Z " fill="#AFAFAF" transform="translate(315,495)"/>
<path d="M0 0 C0 3 0 3 0 3 Z " fill="#AFAFAD" transform="translate(67,493)"/>
<path d="M0 0 C0.66 0 1.32 0 2 0 C2 0.66 2 1.32 2 2 C1.34 2 0.68 2 0 2 C0 1.34 0 0.68 0 0 Z " fill="#B0B0B0" transform="translate(339,472)"/>
<path d="M0 0 C0.66 0 1.32 0 2 0 C2 0.66 2 1.32 2 2 C1.34 2 0.68 2 0 2 C0 1.34 0 0.68 0 0 Z " fill="#B0B0B0" transform="translate(52,472)"/>
<path d="M0 0 C0.66 0 1.32 0 2 0 C2 0.66 2 1.32 2 2 C1.34 2 0.68 2 0 2 C0 1.34 0 0.68 0 0 Z " fill="#A4A4A4" transform="translate(45,472)"/>
<path d="M0 0 C0.66 0 1.32 0 2 0 C2 0.66 2 1.32 2 2 C1.34 2 0.68 2 0 2 C0 1.34 0 0.68 0 0 Z " fill="#ADADAD" transform="translate(313,470)"/>
<path d="M0 0 C0.66 0 1.32 0 2 0 C2 0.66 2 1.32 2 2 C1.34 2 0.68 2 0 2 C0 1.34 0 0.68 0 0 Z " fill="#B0B0B0" transform="translate(92,468)"/>
<path d="M0 0 C0.66 0 1.32 0 2 0 C2 0.66 2 1.32 2 2 C1.34 2 0.68 2 0 2 C0 1.34 0 0.68 0 0 Z " fill="#ACACAC" transform="translate(89,468)"/>
<path d="M0 0 C0.66 0 1.32 0 2 0 C2 0.66 2 1.32 2 2 C1.34 2 0.68 2 0 2 C0 1.34 0 0.68 0 0 Z " fill="#AEAEAE" transform="translate(376,467)"/>
<path d="M0 0 C0.66 0 1.32 0 2 0 C2 0.66 2 1.32 2 2 C1.34 2 0.68 2 0 2 C0 1.34 0 0.68 0 0 Z " fill="#AFAFAF" transform="translate(337,448)"/>
<path d="M0 0 C0 3 0 3 0 3 Z " fill="#A7A7A7" transform="translate(312,448)"/>
<path d="M0 0 C0.66 0 1.32 0 2 0 C2 0.66 2 1.32 2 2 C1.34 2 0.68 2 0 2 C0 1.34 0 0.68 0 0 Z " fill="#B0B0B0" transform="translate(420,439)"/>
<path d="M0 0 C0.66 0 1.32 0 2 0 C2 0.66 2 1.32 2 2 C1.34 2 0.68 2 0 2 C0 1.34 0 0.68 0 0 Z " fill="#B0B0B0" transform="translate(518,430)"/>
<path d="M0 0 C0.66 0 1.32 0 2 0 C2 0.66 2 1.32 2 2 C1.34 2 0.68 2 0 2 C0 1.34 0 0.68 0 0 Z " fill="#AEAEAE" transform="translate(309,428)"/>
<path d="M0 0 C0.66 0 1.32 0 2 0 C2 0.66 2 1.32 2 2 C1.34 2 0.68 2 0 2 C0 1.34 0 0.68 0 0 Z " fill="#AFB1B0" transform="translate(973,412)"/>
<path d="M0 0 C0.66 0 1.32 0 2 0 C2 0.66 2 1.32 2 2 C1.34 2 0.68 2 0 2 C0 1.34 0 0.68 0 0 Z " fill="#B0B0AE" transform="translate(1111,407)"/>
<path d="M0 0 C0.66 0 1.32 0 2 0 C2 0.66 2 1.32 2 2 C1.34 2 0.68 2 0 2 C0 1.34 0 0.68 0 0 Z " fill="#B0B0B0" transform="translate(1110,400)"/>
<path d="M0 0 C0.66 0 1.32 0 2 0 C2 0.66 2 1.32 2 2 C1.34 2 0.68 2 0 2 C0 1.34 0 0.68 0 0 Z " fill="#AFAFAF" transform="translate(235,388)"/>
<path d="M0 0 C0.66 0 1.32 0 2 0 C2 0.66 2 1.32 2 2 C1.34 2 0.68 2 0 2 C0 1.34 0 0.68 0 0 Z " fill="#AFAFAF" transform="translate(305,384)"/>
<path d="M0 0 C0.66 0 1.32 0 2 0 C2 0.66 2 1.32 2 2 C1.34 2 0.68 2 0 2 C0 1.34 0 0.68 0 0 Z " fill="#B0B0B0" transform="translate(21,382)"/>
<path d="M0 0 C0.66 0 1.32 0 2 0 C2 0.66 2 1.32 2 2 C1.34 2 0.68 2 0 2 C0 1.34 0 0.68 0 0 Z " fill="#B0B0B0" transform="translate(57,369)"/>
<path d="M0 0 C0.66 0 1.32 0 2 0 C2 0.66 2 1.32 2 2 C1.34 2 0.68 2 0 2 C0 1.34 0 0.68 0 0 Z " fill="#B0B0B0" transform="translate(303,362)"/>
<path d="M0 0 C0.66 0 1.32 0 2 0 C2 0.66 2 1.32 2 2 C1.34 2 0.68 2 0 2 C0 1.34 0 0.68 0 0 Z " fill="#AFAFAF" transform="translate(303,359)"/>
<path d="M0 0 C0.66 0 1.32 0 2 0 C2 0.66 2 1.32 2 2 C1.34 2 0.68 2 0 2 C0 1.34 0 0.68 0 0 Z " fill="#ADADAD" transform="translate(171,349)"/>
<path d="M0 0 C0.66 0 1.32 0 2 0 C2 0.66 2 1.32 2 2 C1.34 2 0.68 2 0 2 C0 1.34 0 0.68 0 0 Z " fill="#A7A7A7" transform="translate(143,311)"/>
<path d="M0 0 C0.66 0 1.32 0 2 0 C2 0.66 2 1.32 2 2 C1.34 2 0.68 2 0 2 C0 1.34 0 0.68 0 0 Z " fill="#E4E4E4" transform="translate(986,308)"/>
<path d="M0 0 C0.66 0 1.32 0 2 0 C2 0.66 2 1.32 2 2 C1.34 2 0.68 2 0 2 C0 1.34 0 0.68 0 0 Z " fill="#B0B0B0" transform="translate(1041,299)"/>
<path d="M0 0 C0.66 0 1.32 0 2 0 C2 0.66 2 1.32 2 2 C1.34 2 0.68 2 0 2 C0 1.34 0 0.68 0 0 Z " fill="#AEAEAE" transform="translate(1041,294)"/>
<path d="M0 0 C0.66 0 1.32 0 2 0 C2 0.66 2 1.32 2 2 C1.34 2 0.68 2 0 2 C0 1.34 0 0.68 0 0 Z " fill="#AFAFAF" transform="translate(140,280)"/>
<path d="M0 0 C0.66 0 1.32 0 2 0 C2 0.66 2 1.32 2 2 C1.34 2 0.68 2 0 2 C0 1.34 0 0.68 0 0 Z " fill="#ADADAD" transform="translate(292,238)"/>
<path d="M0 0 C0.66 0 1.32 0 2 0 C2 0.66 2 1.32 2 2 C1.34 2 0.68 2 0 2 C0 1.34 0 0.68 0 0 Z " fill="#B0B0B0" transform="translate(734,224)"/>
<path d="M0 0 C0.99 1.485 0.99 1.485 2 3 C1.34 3 0.68 3 0 3 C0 2.01 0 1.02 0 0 Z " fill="#B0B0B0" transform="translate(290,210)"/>
<path d="M0 0 C0.66 0 1.32 0 2 0 C2 0.66 2 1.32 2 2 C1.34 2 0.68 2 0 2 C0 1.34 0 0.68 0 0 Z " fill="#B2B2B0" transform="translate(287,186)"/>
<path d="M0 0 C0.66 0 1.32 0 2 0 C2 0.66 2 1.32 2 2 C1.34 2 0.68 2 0 2 C0 1.34 0 0.68 0 0 Z " fill="#AEAEAE" transform="translate(227,182)"/>
<path d="M0 0 C0.66 0 1.32 0 2 0 C2 0.66 2 1.32 2 2 C1.34 2 0.68 2 0 2 C0 1.34 0 0.68 0 0 Z " fill="#B0B0B0" transform="translate(536,179)"/>
<path d="M0 0 C0.66 0 1.32 0 2 0 C2 0.66 2 1.32 2 2 C1.34 2 0.68 2 0 2 C0 1.34 0 0.68 0 0 Z " fill="#AFAFAF" transform="translate(1090,173)"/>
<path d="M0 0 C0.66 0 1.32 0 2 0 C2 0.66 2 1.32 2 2 C1.34 2 0.68 2 0 2 C0 1.34 0 0.68 0 0 Z " fill="#AEAEAE" transform="translate(1138,168)"/>
<path d="M0 0 C0.66 0 1.32 0 2 0 C2 0.66 2 1.32 2 2 C1.34 2 0.68 2 0 2 C0 1.34 0 0.68 0 0 Z " fill="#B2B2B0" transform="translate(1113,167)"/>
<path d="M0 0 C0.66 0 1.32 0 2 0 C2 0.66 2 1.32 2 2 C1.34 2 0.68 2 0 2 C0 1.34 0 0.68 0 0 Z " fill="#AFAFAF" transform="translate(128,148)"/>
<path d="M0 0 C0.66 0 1.32 0 2 0 C2 0.66 2 1.32 2 2 C1.34 2 0.68 2 0 2 C0 1.34 0 0.68 0 0 Z " fill="#B0B0B0" transform="translate(1112,131)"/>
<path d="M0 0 C0.66 0 1.32 0 2 0 C2 0.66 2 1.32 2 2 C1.34 2 0.68 2 0 2 C0 1.34 0 0.68 0 0 Z " fill="#ADADAD" transform="translate(282,125)"/>
<path d="M0 0 C0.66 0 1.32 0 2 0 C2 0.66 2 1.32 2 2 C1.34 2 0.68 2 0 2 C0 1.34 0 0.68 0 0 Z " fill="#AEAEAE" transform="translate(1110,115)"/>
<path d="M0 0 C0.66 0 1.32 0 2 0 C2 0.66 2 1.32 2 2 C1.34 2 0.68 2 0 2 C0 1.34 0 0.68 0 0 Z " fill="#AFAFAF" transform="translate(281,115)"/>
<path d="M0 0 C0.66 0 1.32 0 2 0 C2 0.66 2 1.32 2 2 C1.34 2 0.68 2 0 2 C0 1.34 0 0.68 0 0 Z " fill="#B0B0B0" transform="translate(256,112)"/>
<path d="M0 0 C0.66 0 1.32 0 2 0 C2 0.66 2 1.32 2 2 C1.34 2 0.68 2 0 2 C0 1.34 0 0.68 0 0 Z " fill="#AFAFAF" transform="translate(748,108)"/>
<path d="M0 0 C0.66 0 1.32 0 2 0 C2 0.66 2 1.32 2 2 C1.34 2 0.68 2 0 2 C0 1.34 0 0.68 0 0 Z " fill="#AFAFAF" transform="translate(279,98)"/>
<path d="M0 0 C0.66 0 1.32 0 2 0 C2 0.66 2 1.32 2 2 C1.34 2 0.68 2 0 2 C0 1.34 0 0.68 0 0 Z " fill="#AEAEAE" transform="translate(412,97)"/>
<path d="M0 0 C0.66 0 1.32 0 2 0 C2 0.66 2 1.32 2 2 C1.34 2 0.68 2 0 2 C0 1.34 0 0.68 0 0 Z " fill="#B0B0B0" transform="translate(436,95)"/>
<path d="M0 0 C0.66 0 1.32 0 2 0 C2 0.66 2 1.32 2 2 C1.34 2 0.68 2 0 2 C0 1.34 0 0.68 0 0 Z " fill="#ACACAC" transform="translate(533,86)"/>
<path d="M0 0 C0.66 0 1.32 0 2 0 C2 0.66 2 1.32 2 2 C1.34 2 0.68 2 0 2 C0 1.34 0 0.68 0 0 Z " fill="#ADADAD" transform="translate(32,83)"/>
<path d="M0 0 C0.66 0 1.32 0 2 0 C2 0.66 2 1.32 2 2 C1.34 2 0.68 2 0 2 C0 1.34 0 0.68 0 0 Z " fill="#B0B0B0" transform="translate(747,79)"/>
<path d="M0 0 C0.66 0 1.32 0 2 0 C2 0.66 2 1.32 2 2 C1.34 2 0.68 2 0 2 C0 1.34 0 0.68 0 0 Z " fill="#A6A6A6" transform="translate(122,77)"/>
<path d="M0 0 C0.66 0 1.32 0 2 0 C2 0.66 2 1.32 2 2 C1.34 2 0.68 2 0 2 C0 1.34 0 0.68 0 0 Z " fill="#AFAFAF" transform="translate(744,58)"/>
<path d="M0 0 C0.66 0 1.32 0 2 0 C2 0.66 2 1.32 2 2 C1.34 2 0.68 2 0 2 C0 1.34 0 0.68 0 0 Z " fill="#AEAEAE" transform="translate(72,57)"/>
<path d="M0 0 C0.66 0 1.32 0 2 0 C2 0.66 2 1.32 2 2 C1.34 2 0.68 2 0 2 C0 1.34 0 0.68 0 0 Z " fill="#B0B0B0" transform="translate(969,47)"/>
<path d="M0 0 C0.66 0 1.32 0 2 0 C2 0.66 2 1.32 2 2 C1.34 2 0.68 2 0 2 C0 1.34 0 0.68 0 0 Z " fill="#B0B0B0" transform="translate(1127,44)"/>
<path d="M0 0 C0.66 0 1.32 0 2 0 C2 0.66 2 1.32 2 2 C1.34 2 0.68 2 0 2 C0 1.34 0 0.68 0 0 Z " fill="#ABADAC" transform="translate(300,37)"/>
<path d="M0 0 C0.66 0 1.32 0 2 0 C2 0.66 2 1.32 2 2 C1.34 2 0.68 2 0 2 C0 1.34 0 0.68 0 0 Z " fill="#ABABAB" transform="translate(274,37)"/>
<path d="M0 0 C0.66 0 1.32 0 2 0 C2 0.66 2 1.32 2 2 C1.34 2 0.68 2 0 2 C0 1.34 0 0.68 0 0 Z " fill="#ACACAC" transform="translate(47,12)"/>
<path d="M0 0 C0.66 0 1.32 0 2 0 C2 0.66 2 1.32 2 2 C1.34 2 0.68 2 0 2 C0 1.34 0 0.68 0 0 Z " fill="#AFAFAF" transform="translate(116,8)"/>
<path d="M0 0 C0.66 0 1.32 0 2 0 C2 0.66 2 1.32 2 2 C1.34 2 0.68 2 0 2 C0 1.34 0 0.68 0 0 Z " fill="#ADADAD" transform="translate(1015,6)"/>
<path d="M0 0 C0.99 0.495 0.99 0.495 2 1 C1.01 1.495 1.01 1.495 0 2 C0 1.34 0 0.68 0 0 Z " fill="#A8A8A8" transform="translate(1142,473)"/>
<path d="M0 0 C0.33 0.66 0.66 1.32 1 2 C0.34 1.67 -0.32 1.34 -1 1 C-0.67 0.67 -0.34 0.34 0 0 Z " fill="#B0B0B0" transform="translate(313,460)"/>
<path d="M0 0 C0.33 0.66 0.66 1.32 1 2 C0.34 1.67 -0.32 1.34 -1 1 C-0.67 0.67 -0.34 0.34 0 0 Z " fill="#AFAFAF" transform="translate(526,454)"/>
<path d="M0 0 C0.66 0 1.32 0 2 0 C1.67 0.66 1.34 1.32 1 2 C0.67 1.34 0.34 0.68 0 0 Z " fill="#B0B0B0" transform="translate(398,441)"/>
<path d="M0 0 C0.66 0 1.32 0 2 0 C1.67 0.66 1.34 1.32 1 2 C0.67 1.34 0.34 0.68 0 0 Z " fill="#B0B0B0" transform="translate(1172,395)"/>
<path d="M0 0 C0.99 0.495 0.99 0.495 2 1 C1.01 1.495 1.01 1.495 0 2 C0 1.34 0 0.68 0 0 Z " fill="#AFAFAF" transform="translate(59,390)"/>
<path d="M0 0 C0.99 0.495 0.99 0.495 2 1 C1.01 1.495 1.01 1.495 0 2 C0 1.34 0 0.68 0 0 Z " fill="#AFAFAF" transform="translate(37,381)"/>
<path d="M0 0 C0.99 0.495 0.99 0.495 2 1 C1.01 1.495 1.01 1.495 0 2 C0 1.34 0 0.68 0 0 Z " fill="#AEAEAE" transform="translate(740,271)"/>
<path d="M0 0 C0.99 0.495 0.99 0.495 2 1 C1.01 1.495 1.01 1.495 0 2 C0 1.34 0 0.68 0 0 Z " fill="#AEAEAE" transform="translate(220,248)"/>
<path d="M0 0 C0.33 0.66 0.66 1.32 1 2 C0.34 1.67 -0.32 1.34 -1 1 C-0.67 0.67 -0.34 0.34 0 0 Z " fill="#B0B0B0" transform="translate(712,247)"/>
<path d="M0 0 C0.33 0.66 0.66 1.32 1 2 C0.34 1.67 -0.32 1.34 -1 1 C-0.67 0.67 -0.34 0.34 0 0 Z " fill="#AEAEAE" transform="translate(1037,244)"/>
<path d="M0 0 C0.66 0 1.32 0 2 0 C1.67 0.66 1.34 1.32 1 2 C0.67 1.34 0.34 0.68 0 0 Z " fill="#AFAFAF" transform="translate(127,139)"/>
<path d="M0 0 C0.66 0 1.32 0 2 0 C1.67 0.66 1.34 1.32 1 2 C0.67 1.34 0.34 0.68 0 0 Z " fill="#ADADAD" transform="translate(12,133)"/>
<path d="M0 0 C0.33 0.66 0.66 1.32 1 2 C0.34 1.67 -0.32 1.34 -1 1 C-0.67 0.67 -0.34 0.34 0 0 Z " fill="#AFAFAF" transform="translate(1027,108)"/>
<path d="M0 0 C0.66 0.66 1.32 1.32 2 2 C1.34 2 0.68 2 0 2 C0 1.34 0 0.68 0 0 Z " fill="#AEAEAE" transform="translate(383,27)"/>
<path d="" fill="#AFAFAF" transform="translate(0,0)"/>
<path d="" fill="#AFAFAF" transform="translate(0,0)"/>
<path d="M0 0 C2 1 2 1 2 1 Z " fill="#AFAFAF" transform="translate(550,288)"/>
<path d="" fill="#B0B0B0" transform="translate(0,0)"/>
<path d="M0 0 C2 1 2 1 2 1 Z " fill="#AEAEAC" transform="translate(40,176)"/>
<path d="" fill="#B1B1AF" transform="translate(0,0)"/>
<path d="" fill="#ACACAC" transform="translate(0,0)"/>
<path d="" fill="#B1B1B1" transform="translate(0,0)"/>
</svg>
