<?xml version="1.0" encoding="UTF-8"?>
<svg version="1.1" xmlns="http://www.w3.org/2000/svg" width="32" height="32">
<path d="M0 0 C10.56 0 21.12 0 32 0 C32 10.56 32 21.12 32 32 C21.44 32 10.88 32 0 32 C0 21.44 0 10.88 0 0 Z " fill="#021005" transform="translate(0,0)"/>
<path d="M0 0 C6 0 6 0 8.1875 1.375 C10.8616361 5.24788676 11.85908893 9.4709288 13 14 C15.60045875 11.6975881 16.84739183 9.50103323 18.1875 6.3125 C18.53167969 5.50425781 18.87585938 4.69601563 19.23046875 3.86328125 C19.61138672 2.94095703 19.61138672 2.94095703 20 2 C22.31 2.33 24.62 2.66 27 3 C27 10.59 27 18.18 27 26 C25.35 26 23.7 26 22 26 C21.67 22.04 21.34 18.08 21 14 C19.35 17.96 17.7 21.92 16 26 C15.01 26 14.02 26 13 26 C11.02 21.38 9.04 16.76 7 12 C6.67 16.62 6.34 21.24 6 26 C4.02 26 2.04 26 0 26 C0 17.42 0 8.84 0 0 Z " fill="#1AA52C" transform="translate(3,2)"/>
<path d="M0 0 C10.56 0 21.12 0 32 0 C31.67 2.97 31.34 5.94 31 9 C30.67 7.68 30.34 6.36 30 5 C27.69 4.67 25.38 4.34 23 4 C22.80664062 4.61488281 22.61328125 5.22976562 22.4140625 5.86328125 C22.15367188 6.67152344 21.89328125 7.47976562 21.625 8.3125 C21.36976562 9.11300781 21.11453125 9.91351563 20.8515625 10.73828125 C20 13 20 13 18 16 C17.34 16 16.68 16 16 16 C15.66226562 15.14535156 15.32453125 14.29070313 14.9765625 13.41015625 C14.53054688 12.30542969 14.08453125 11.20070313 13.625 10.0625 C13.18414062 8.96035156 12.74328125 7.85820312 12.2890625 6.72265625 C11.28958568 3.88769814 11.28958568 3.88769814 9 3 C7.45976004 2.93049459 5.91665012 2.91547643 4.375 2.9375 C3.55773437 2.94652344 2.74046875 2.95554688 1.8984375 2.96484375 C1.27195313 2.97644531 0.64546875 2.98804688 0 3 C0 2.01 0 1.02 0 0 Z " fill="#0D2212" transform="translate(0,0)"/>
<path d="M0 0 C6.87055016 6.87055016 6.87055016 6.87055016 7.078125 11.88867188 C6.97395346 16.6154556 6.51876435 21.30292713 6 26 C4.02 26 2.04 26 0 26 C0 17.42 0 8.84 0 0 Z " fill="#0E9521" transform="translate(3,2)"/>
<path d="M0 0 C0 6.6 0 13.2 0 20 C-1.65 20 -3.3 20 -5 20 C-6.71534827 7.60193822 -6.71534827 7.60193822 -4.98828125 3.734375 C-1.82493932 0 -1.82493932 0 0 0 Z " fill="#0E9A21" transform="translate(30,8)"/>
<path d="M0 0 C2.31 0.33 4.62 0.66 7 1 C7.66 2.65 8.32 4.3 9 6 C7.35 6.66 5.7 7.32 4 8 C2.68 5.36 1.36 2.72 0 0 Z " fill="#3CB549" transform="translate(4,2)"/>
</svg>
