<?xml version="1.0" encoding="UTF-8"?>
<svg version="1.1" xmlns="http://www.w3.org/2000/svg" width="300" height="171">
<path d="M0 0 C6.52586105 5.47973065 12.39435688 11.30368263 17 18.5 C17 19.16 17 19.82 17 20.5 C17.79664063 20.46519531 18.59328125 20.43039063 19.4140625 20.39453125 C26.3824619 20.21650645 31.36584753 20.09298206 36.6875 25.08203125 C39.30986419 27.8682932 40.88229967 29.57801408 41.375 33.4375 C41.189375 34.4584375 41.189375 34.4584375 41 35.5 C42.155 35.4175 43.31 35.335 44.5 35.25 C49.39141875 35.25867273 52.99087585 36.75317215 57 39.5 C59.32353337 41.88311115 60.7574342 43.43877464 61.5 46.6875 C61.665 47.285625 61.83 47.88375 62 48.5 C62.5775 48.78875 63.155 49.0775 63.75 49.375 C67.09537062 51.04768531 69.19568286 53.28564243 71 56.5 C73.24023856 63.61983864 71.38736285 69.60325887 68.91015625 76.421875 C67.71275051 80.47147036 67.30198749 83.88584607 69 87.8125 C70.47630025 91.78005691 70.80561576 95.32933434 70 99.5 C67.75947211 103.71793329 65.05932421 106.01108114 60.75 108 C54.01450799 108.8980656 48.41770375 108.38070291 42.3125 105.3125 C37.82408901 103.13085075 35.76097571 103.88610993 31 105.5 C27.94296102 105.58162988 24.92223881 105.50196317 21.8671875 105.375 C18.79740783 105.50883236 16.80001672 106.29603894 14 107.5 C8.13565762 107.9806838 3.13077001 107.56820047 -2 104.5 C-7.23854279 99.94246778 -10.06296359 95.10871247 -12 88.5 C-12 87.84 -12 87.18 -12 86.5 C-12.66 86.5 -13.32 86.5 -14 86.5 C-13.95359375 87.08007812 -13.9071875 87.66015625 -13.859375 88.2578125 C-13.59778928 93.91927486 -14.17180622 97.03377393 -18 101.5 C-21.29526961 104.57655702 -23.54371996 104.861407 -28 104.75 C-29.03125 104.73453125 -30.0625 104.7190625 -31.125 104.703125 C-34 104.5 -34 104.5 -36.125 103.796875 C-38.1331171 103.25771286 -38.1331171 103.25771286 -39.96484375 104.859375 C-40.63644531 105.40078125 -41.30804688 105.9421875 -42 106.5 C-51.64070383 109.86823164 -60.9260617 108.65888839 -70 104.5 C-71.485 104.995 -71.485 104.995 -73 105.5 C-80.31669181 106.16121215 -87.04836352 106.24206602 -93 101.5 C-98 96.01100244 -98 96.01100244 -98 92.5 C-100.92655169 93.70650556 -103.83897009 94.94406161 -106.75 96.1875 C-107.575 96.52716797 -108.4 96.86683594 -109.25 97.21679688 C-114.12981833 99.32220236 -116.84888723 101.08844213 -120 105.5 C-124.53127437 108.24168547 -129.01408427 108.81144052 -134.1875 107.9375 C-142.18306878 105.90451817 -146.55201721 101.52168601 -150.75 94.625 C-153.94686844 86.7370746 -152.3133306 76.7189076 -151 68.5 C-151.845625 68.17 -152.69125 67.84 -153.5625 67.5 C-159.49800818 64.04661342 -163.8670182 59.07669389 -166 52.5 C-167.64081854 43.02559619 -167.42283917 34.99124245 -162.25 26.75 C-157.03987445 19.53115135 -150.41610875 15.1460924 -141.81225586 12.9387207 C-138.38990699 12.40482358 -135.21856918 12.53055813 -131.7578125 12.68359375 C-130.3477187 12.72546615 -128.9375573 12.7651104 -127.52734375 12.80273438 C-125.32478833 12.86431172 -123.12594437 12.93745231 -120.92529297 13.04858398 C-112.35137542 13.72338317 -112.35137542 13.72338317 -104.58862305 10.82861328 C-102.84182287 8.80634803 -101.41812375 6.76051117 -100 4.5 C-72.97273142 -21.8412973 -29.51041191 -22.15816152 0 0 Z " fill="#0E6D37" transform="translate(194,36.5)"/>
<path d="M0 0 C6.52586105 5.47973065 12.39435688 11.30368263 17 18.5 C17 19.16 17 19.82 17 20.5 C17.79664063 20.46519531 18.59328125 20.43039063 19.4140625 20.39453125 C26.3824619 20.21650645 31.36584753 20.09298206 36.6875 25.08203125 C39.30986419 27.8682932 40.88229967 29.57801408 41.375 33.4375 C41.189375 34.4584375 41.189375 34.4584375 41 35.5 C42.155 35.4175 43.31 35.335 44.5 35.25 C49.39141875 35.25867273 52.99087585 36.75317215 57 39.5 C59.32353337 41.88311115 60.7574342 43.43877464 61.5 46.6875 C61.665 47.285625 61.83 47.88375 62 48.5 C62.5775 48.78875 63.155 49.0775 63.75 49.375 C67.09537062 51.04768531 69.19568286 53.28564243 71 56.5 C73.24023856 63.61983864 71.38736285 69.60325887 68.91015625 76.421875 C67.71275051 80.47147036 67.30198749 83.88584607 69 87.8125 C70.47630025 91.78005691 70.80561576 95.32933434 70 99.5 C67.75947211 103.71793329 65.05932421 106.01108114 60.75 108 C54.01450799 108.8980656 48.41770375 108.38070291 42.3125 105.3125 C37.82408901 103.13085075 35.76097571 103.88610993 31 105.5 C27.94296102 105.58162988 24.92223881 105.50196317 21.8671875 105.375 C18.79740783 105.50883236 16.80001672 106.29603894 14 107.5 C8.13565762 107.9806838 3.13077001 107.56820047 -2 104.5 C-7.23854279 99.94246778 -10.06296359 95.10871247 -12 88.5 C-12 87.84 -12 87.18 -12 86.5 C-12.66 86.5 -13.32 86.5 -14 86.5 C-13.95359375 87.08007812 -13.9071875 87.66015625 -13.859375 88.2578125 C-13.59778928 93.91927486 -14.17180622 97.03377393 -18 101.5 C-21.29526961 104.57655702 -23.54371996 104.861407 -28 104.75 C-29.03125 104.73453125 -30.0625 104.7190625 -31.125 104.703125 C-34 104.5 -34 104.5 -36.125 103.796875 C-38.1331171 103.25771286 -38.1331171 103.25771286 -39.96484375 104.859375 C-40.63644531 105.40078125 -41.30804688 105.9421875 -42 106.5 C-51.64070383 109.86823164 -60.9260617 108.65888839 -70 104.5 C-71.485 104.995 -71.485 104.995 -73 105.5 C-80.31669181 106.16121215 -87.04836352 106.24206602 -93 101.5 C-98 96.01100244 -98 96.01100244 -98 92.5 C-100.92655169 93.70650556 -103.83897009 94.94406161 -106.75 96.1875 C-107.575 96.52716797 -108.4 96.86683594 -109.25 97.21679688 C-114.12981833 99.32220236 -116.84888723 101.08844213 -120 105.5 C-124.53127437 108.24168547 -129.01408427 108.81144052 -134.1875 107.9375 C-142.18306878 105.90451817 -146.55201721 101.52168601 -150.75 94.625 C-153.94686844 86.7370746 -152.3133306 76.7189076 -151 68.5 C-151.845625 68.17 -152.69125 67.84 -153.5625 67.5 C-159.49800818 64.04661342 -163.8670182 59.07669389 -166 52.5 C-167.64081854 43.02559619 -167.42283917 34.99124245 -162.25 26.75 C-157.03987445 19.53115135 -150.41610875 15.1460924 -141.81225586 12.9387207 C-138.38990699 12.40482358 -135.21856918 12.53055813 -131.7578125 12.68359375 C-130.3477187 12.72546615 -128.9375573 12.7651104 -127.52734375 12.80273438 C-125.32478833 12.86431172 -123.12594437 12.93745231 -120.92529297 13.04858398 C-112.35137542 13.72338317 -112.35137542 13.72338317 -104.58862305 10.82861328 C-102.84182287 8.80634803 -101.41812375 6.76051117 -100 4.5 C-72.97273142 -21.8412973 -29.51041191 -22.15816152 0 0 Z M-58 -0.5 C-57.01 2.965 -57.01 2.965 -56 6.5 C-56.556875 6.15066406 -57.11375 5.80132812 -57.6875 5.44140625 C-62.93298776 2.31360696 -66.89737784 0.8328703 -73 0.5 C-72.01 2.48 -72.01 2.48 -71 4.5 C-71.99 4.17 -72.98 3.84 -74 3.5 C-78.08594833 2.3134874 -81.76342394 2.35134821 -86 2.5 C-86 3.16 -86 3.82 -86 4.5 C-83.36 5.82 -80.72 7.14 -78 8.5 C-78.5775 8.90992188 -79.155 9.31984375 -79.75 9.7421875 C-80.4925 10.28101563 -81.235 10.81984375 -82 11.375 C-82.7425 11.90867187 -83.485 12.44234375 -84.25 12.9921875 C-84.8275 13.48976563 -85.405 13.98734375 -86 14.5 C-86 15.16 -86 15.82 -86 16.5 C-83.03 16.5 -80.06 16.5 -77 16.5 C-77 17.16 -77 17.82 -77 18.5 C-72.17639811 18.69294408 -68.50353262 18.25747614 -64 16.5 C-64 15.18 -64 13.86 -64 12.5 C-62.35 12.83 -60.7 13.16 -59 13.5 C-59.99 14.28375 -60.98 15.0675 -62 15.875 C-62.99 16.74125 -63.98 17.6075 -65 18.5 C-65 19.16 -65 19.82 -65 20.5 C-59.34605369 20.84615998 -55.96993194 19.93425238 -51 17.5 C-51 16.18 -51 14.86 -51 13.5 C-48.69 13.83 -46.38 14.16 -44 14.5 C-44 15.16 -44 15.82 -44 16.5 C-44.721875 16.5825 -45.44375 16.665 -46.1875 16.75 C-49.58926868 17.65713831 -51.45466084 19.10010879 -54 21.5 C-54 22.16 -54 22.82 -54 23.5 C-46.74773355 23.92779025 -46.74773355 23.92779025 -39.8125 22.1875 C-39.214375 21.630625 -38.61625 21.07375 -38 20.5 C-38 19.51 -38 18.52 -38 17.5 C-36.02 18.49 -34.04 19.48 -32 20.5 C-33.051875 20.9125 -34.10375 21.325 -35.1875 21.75 C-38.58772878 23.2082282 -41.28312264 24.94778188 -44 27.5 C-44 28.16 -44 28.82 -44 29.5 C-35.8282095 30.33817727 -35.8282095 30.33817727 -28.5625 27.375 C-27.716875 26.75625 -26.87125 26.1375 -26 25.5 C-17.83977158 26.92803997 -12.9472232 35.02050943 -8.5390625 41.26953125 C-8.03117188 42.00558594 -7.52328125 42.74164063 -7 43.5 C-7.72703125 43.01015625 -8.4540625 42.5203125 -9.203125 42.015625 C-12.09386667 40.4491337 -13.52525009 40.14178692 -16.75 40.25 C-17.91789062 40.27320312 -17.91789062 40.27320312 -19.109375 40.296875 C-21.01025902 40.30108393 -21.01025902 40.30108393 -22 41.5 C-23.2375 41.5825 -24.475 41.665 -25.75 41.75 C-30.20834808 42.22309809 -32.14627299 44.0220202 -35 47.5 C-37.49361571 46.29618552 -39.68143083 45.04571278 -42 43.5 C-45.6790538 42.85075521 -47.99297924 42.83652964 -51.1640625 44.92578125 C-54.59494017 47.83890829 -57.18291165 50.33084298 -59 54.5 C-59.33 53.448125 -59.66 52.39625 -60 51.3125 C-62.01923098 46.62636017 -65.36839629 44.41564492 -70 42.5 C-74.0055791 41.96592279 -75.98956511 41.87819391 -79.4375 44 C-79.953125 44.495 -80.46875 44.99 -81 45.5 C-81.020625 44.675 -81.04125 43.85 -81.0625 43 C-83.11759449 35.32764724 -89.43889315 30.86275716 -95.921875 26.81640625 C-98 25.5 -98 25.5 -100.875 23.1875 C-107.84917134 17.64918746 -121.11516105 19.30007434 -129.625 19.125 C-130.59018555 19.08689209 -131.55537109 19.04878418 -132.54980469 19.00952148 C-140.82084158 18.91434675 -147.09764473 21.19800708 -153.4375 26.5625 C-153.953125 27.201875 -154.46875 27.84125 -155 28.5 C-155.53625 29.139375 -156.0725 29.77875 -156.625 30.4375 C-160.44883457 36.17325186 -160.85292354 41.78434935 -160 48.5 C-158.34018119 54.02758263 -156.19576147 58.32046966 -151 61.125 C-147.91764969 62.47974268 -145.35184776 62.62802196 -142 62.5 C-142.2165625 63.19222656 -142.433125 63.88445312 -142.65625 64.59765625 C-145.1923587 73.50926045 -147.27142021 83.92469584 -143.66796875 92.76953125 C-141.22818866 96.76345697 -138.23031523 99.38484239 -134 101.5 C-129.85864965 101.89069343 -127.68813188 101.93382227 -124.125 99.6875 C-121.79349596 97.60416336 -121.79349596 97.60416336 -121 94.5 C-118.72940937 93.48318332 -116.52926131 92.62789642 -114.1875 91.8125 C-106.64686679 89.02142155 -100.50101014 85.26982867 -94 80.5 C-93.95875 81.634375 -93.9175 82.76875 -93.875 83.9375 C-93.21491833 89.30425096 -90.54861176 93.4943071 -87 97.5 C-83.28807852 99.81174678 -80.35381016 99.87532846 -76 99.5 C-73.99218823 98.51577854 -71.99107248 97.51765927 -70 96.5 C-66.54798816 96.69725782 -65.35322732 98.14677268 -63 100.5 C-57.26465482 102.3493052 -50.58064628 102.39532834 -44.9375 100.25 C-41.85819529 98.85297683 -41.85819529 98.85297683 -41.31640625 96.390625 C-41.21199219 95.76671875 -41.10757813 95.1428125 -41 94.5 C-40.43152344 94.78875 -39.86304688 95.0775 -39.27734375 95.375 C-34.3929409 97.72342741 -30.5326636 99.3678688 -25 98.5 C-21.78150559 96.15281071 -21.05902904 94.76173253 -20.171875 90.828125 C-20.01372574 89.47067718 -19.87349683 88.11103795 -19.75 86.75 C-19.67265625 86.05261719 -19.5953125 85.35523437 -19.515625 84.63671875 C-19.32816165 82.92611567 -19.16194497 81.21320729 -19 79.5 C-18.27425781 79.66371094 -17.54851562 79.82742187 -16.80078125 79.99609375 C-14.17961269 80.46768475 -11.84302133 80.60213465 -9.1875 80.5625 C-8.39730469 80.55347656 -7.60710937 80.54445313 -6.79296875 80.53515625 C-6.20128906 80.52355469 -5.60960937 80.51195313 -5 80.5 C-5.061875 81.69625 -5.12375 82.8925 -5.1875 84.125 C-5.16756498 89.77657725 -3.22970912 93.15031926 0.5625 97.3125 C3.74153314 100.16547846 5.27092187 100.65329164 9.4375 100.6875 C10.21996094 100.70167969 11.00242188 100.71585937 11.80859375 100.73046875 C14.29205987 100.64086064 14.29205987 100.64086064 17 98.5 C17 97.84 17 97.18 17 96.5 C17.639375 96.83 18.27875 97.16 18.9375 97.5 C24.35891332 99.27025741 29.59630279 99.38294299 34.8125 96.9375 C38 95.5 38 95.5 40.125 95.5625 C42.71376672 96.85688336 44.76811145 98.66870683 47 100.5 C50.72382683 101.74127561 54.13175432 102.02680389 58 101.5 C61.10847573 100.13057551 61.10847573 100.13057551 63 97.5 C63.54226552 93.08440935 63.48836965 91.23255448 61 87.5 C60.06106748 82.2594464 61.08165013 77.82861191 63 72.9375 C64.90309697 68.0603877 65.80895314 64.71325358 65 59.5 C62.55701712 56.46277803 60.2336335 54.65575567 57 52.5 C56.566875 51.55125 56.13375 50.6025 55.6875 49.625 C53.57551689 45.71392018 52.0214506 44.40104938 48 42.5 C40.44188045 41.1246279 35.21549536 43.29628333 29 47.5 C29.825 46.51 30.65 45.52 31.5 44.5 C34.50510785 40.27915051 34.75373265 37.6086324 34 32.5 C32.12984906 30.06880377 30.71861655 28.85930827 28 27.5 C20.31429705 26.61473775 20.31429705 26.61473775 13.5 29.625 C8.58708761 35.27484925 7.62407693 39.23215407 8 46.5 C7.34 46.5 6.68 46.5 6 46.5 C6 44.52 6 42.54 6 40.5 C4.68 41.16 3.36 41.82 2 42.5 C2 43.16 2 43.82 2 44.5 C1.01 44.5 0.02 44.5 -1 44.5 C-0.34 43.51 0.32 42.52 1 41.5 C1.2784628 39.28270283 1.2784628 39.28270283 1.1875 36.9375 C1.18105469 36.15246094 1.17460937 35.36742187 1.16796875 34.55859375 C1.12364089 32.43645328 1.12364089 32.43645328 0 30.5 C-0.66 30.5 -1.32 30.5 -2 30.5 C-3.32 33.47 -4.64 36.44 -6 39.5 C-6.53367188 38.8709375 -7.06734375 38.241875 -7.6171875 37.59375 C-13.76086556 30.53596068 -20.35862555 23.45486245 -29 19.5 C-28.67 19.17 -28.34 18.84 -28 18.5 C-27.65012161 15.46429041 -27.70203853 13.95698586 -29.390625 11.3671875 C-30.31101563 10.38105469 -30.31101563 10.38105469 -31.25 9.375 C-31.85328125 8.71242188 -32.4565625 8.04984375 -33.078125 7.3671875 C-36.5010855 3.77207237 -36.5010855 3.77207237 -41 2.5 C-40.40895235 7.34659077 -39.02055843 11.10748167 -37 15.5 C-38.65 15.17 -40.3 14.84 -42 14.5 C-41.91234375 13.76136719 -41.8246875 13.02273437 -41.734375 12.26171875 C-42.09187389 8.54478179 -43.42416038 7.66888562 -46.25 5.3125 C-47.43335938 4.30123047 -47.43335938 4.30123047 -48.640625 3.26953125 C-51.89779095 0.82665679 -53.8882662 -0.5 -58 -0.5 Z " fill="#F9E2AB" transform="translate(194,36.5)"/>
<path d="M0 0 C1.09538086 -0.00580078 1.09538086 -0.00580078 2.21289062 -0.01171875 C5.8995621 -0.00518789 9.47643237 0.1579985 13.1328125 0.64453125 C16.80500836 1.2360834 16.80500836 1.2360834 20.5 0.9375 C24.70285338 1.17539736 25.68228361 2.35876226 28.8125 5.125 C30.46805276 6.1024076 32.13599747 7.05897938 33.8125 8 C38.20402391 10.5878623 40.90787309 12.94959882 43.8125 17.125 C44.245625 17.74375 44.67875 18.3625 45.125 19 C47.54985853 26.49501727 44.88030087 33.2488946 41.8125 40.125 C39.9375 43.375 39.9375 43.375 37.8125 46.125 C37.41675781 46.67542969 37.02101562 47.22585937 36.61328125 47.79296875 C29.89482169 56.51349076 20.30119236 60.77178615 10.03173828 63.90844727 C7.77592859 64.6028372 7.77592859 64.6028372 4.8125 66.125 C3.72899236 68.69436473 3.72899236 68.69436473 3.8125 71.125 C-0.62393516 71.55994462 -2.51613378 71.66501196 -6.0625 68.8125 C-9.93295134 63.91751742 -9.58837972 59.10933252 -9.1875 53.125 C-8.61008635 49.75418894 -7.72995019 46.52436035 -6.75 43.25 C-6.48920654 42.35740479 -6.22841309 41.46480957 -5.9597168 40.54516602 C-2.67654364 29.79826473 1.40250417 16.80528082 8.8125 8.125 C1.8479432 8.38104988 -4.40191269 8.91993654 -10.1875 13.125 C-12.27690868 16.25911302 -12.46114412 17.09950472 -12.4375 20.6875 C-12.44265625 21.47253906 -12.4478125 22.25757812 -12.453125 23.06640625 C-12.37179262 25.34790968 -12.37179262 25.34790968 -10.1875 27.125 C-7.61688689 27.77267793 -7.61688689 27.77267793 -5.1875 28.125 C-6.1875 31.125 -6.1875 31.125 -8.1875 32.125 C-11.5715253 32.53768601 -14.81114069 32.62681754 -18.1875 32.125 C-21.34885131 29.19496708 -23.06344905 26.59734236 -23.42578125 22.296875 C-23.62429826 13.14419594 -23.62429826 13.14419594 -21.6875 8.625 C-15.18114804 2.11864804 -9.1091046 -0.04699452 0 0 Z " fill="#F8FAF9" transform="translate(63.1875,60.875)"/>
<path d="M0 0 C2.5 1.625 2.5 1.625 4 4 C4.25 7.25 4.25 7.25 4 10 C4.928125 10.103125 5.85625 10.20625 6.8125 10.3125 C10 11 10 11 11.9375 12.125 C13.70337567 15.24125119 12.78249823 17.59054344 12 21 C11.2265625 22.794375 11.2265625 22.794375 10.4375 24.625 C8.22580636 30.14339247 8.38431667 36.1550063 9 42 C9.66 42.99 10.32 43.98 11 45 C11 45.99 11 46.98 11 48 C6.18234501 48.47231912 3.05848974 48.74976357 -1 45.875 C-3.15299098 42.78007546 -3.73991338 40.72790821 -4 37 C-4.66 37 -5.32 37 -6 37 C-6.185625 37.5775 -6.37125 38.155 -6.5625 38.75 C-9.01295073 42.58548809 -12.9895652 43.9947826 -17 46 C-20.3125 46.375 -20.3125 46.375 -24 46 C-27.15954305 43.45862841 -28.71540886 41.85377341 -30 38 C-30.49219768 31.62839988 -29.43422437 27.64653038 -26.4375 22.0625 C-26.07470947 21.36664795 -25.71191895 20.6707959 -25.33813477 19.95385742 C-19.85822882 9.70039763 -13.05184476 -1.92568201 0 0 Z " fill="#F5F8F6" transform="translate(241,84)"/>
<path d="M0 0 C5.36170213 0.59574468 5.36170213 0.59574468 7.875 2.1875 C9.5335135 4.85954953 9.21176762 6.8953355 9 10 C7.9765625 12.5703125 7.9765625 12.5703125 6.625 15.125 C3.79317116 20.95712342 2.74870198 26.59692189 2 33 C10.41256494 28.37093956 14.70018505 20.16662446 19.15942383 11.96166992 C24.31392055 2.55055656 24.31392055 2.55055656 29.0625 1 C32 1 32 1 33.875 2.0625 C35.51351486 4.88438671 35.27648099 6.75040157 35 10 C33.93654189 12.62393712 32.84716835 15.056014 31.5625 17.5625 C28.57083907 23.50435329 26.86414615 28.37948781 26.8125 35.0625 C26.79832031 35.89910156 26.78414062 36.73570313 26.76953125 37.59765625 C26.85087685 40.02863584 26.85087685 40.02863584 28.07421875 42.05859375 C29 44 29 44 28.625 46.25 C28.41875 46.8275 28.2125 47.405 28 48 C25.70858714 48.05384521 23.41681812 48.09272087 21.125 48.125 C19.84882813 48.14820313 18.57265625 48.17140625 17.2578125 48.1953125 C14 48 14 48 12 46 C11.5859375 43.3984375 11.5859375 43.3984375 11.375 40.375 C11.30023438 39.37210938 11.22546875 38.36921875 11.1484375 37.3359375 C11.09945312 36.56507812 11.05046875 35.79421875 11 35 C10.63648438 35.54269531 10.27296875 36.08539063 9.8984375 36.64453125 C6.76416492 41.10484223 4.36369362 44.24858984 -1 46 C-4.625 46.5 -4.625 46.5 -8 46 C-11.85171964 42.14828036 -13.25004819 39.04097861 -13.625 33.6875 C-13.59941675 22.26457796 -7.65761498 8.43040181 0 0 Z " fill="#F9FBFA" transform="translate(119,84)"/>
<path d="M0 0 C2.6766477 0.91397726 4.42046542 2.05030387 6.5625 3.875 C6.00933414 7.83935532 5.10629132 11.1912378 3.5625 14.875 C4.55830078 13.84439453 4.55830078 13.84439453 5.57421875 12.79296875 C6.45722656 11.89191406 7.34023437 10.99085937 8.25 10.0625 C9.12011719 9.16917969 9.99023438 8.27585937 10.88671875 7.35546875 C13.93388982 4.53071892 16.57122066 2.17157352 20.765625 1.546875 C26.45138889 1.76388889 26.45138889 1.76388889 27.5625 2.875 C27.52557305 7.26007554 26.99904734 11.01936721 25 14.9375 C23.08728391 18.84609375 23.33936134 21.56098592 23.5625 25.875 C21.09880468 27.10684766 19.3730499 27.04232342 16.625 27.0625 C15.74972656 27.07667969 14.87445313 27.09085938 13.97265625 27.10546875 C11.5625 26.875 11.5625 26.875 8.5625 24.875 C7.875 22.25 7.875 22.25 7.5625 19.875 C2.06341993 27.95570926 0.30241651 35.1976709 -0.4375 44.875 C-6.17412874 45.3339303 -8.94126662 44.45154928 -13.4375 40.875 C-14.365625 40.25625 -14.365625 40.25625 -15.3125 39.625 C-17.21288298 36.6688487 -16.69787112 33.2658273 -16.4375 29.875 C-15.82468474 27.17156276 -15.17447198 24.67714835 -14.3125 22.0625 C-13.98016357 21.02863159 -13.98016357 21.02863159 -13.64111328 19.97387695 C-6.82782597 -0.35014492 -6.82782597 -0.35014492 0 0 Z " fill="#F7FAF8" transform="translate(168.4375,84.125)"/>
<path d="M0 0 C6.06995365 0.3793721 10.36393375 4.67335913 14.73046875 8.52734375 C16 10 16 10 16.1875 12.6875 C16.0946875 13.8321875 16.0946875 13.8321875 16 15 C18.475 15.495 18.475 15.495 21 16 C20.71125 15.39671875 20.4225 14.7934375 20.125 14.171875 C19.75375 13.37265625 19.3825 12.5734375 19 11.75 C18.62875 10.96109375 18.2575 10.1721875 17.875 9.359375 C17 7 17 7 17 3 C19.90336311 4.33657024 22.2102811 5.84722571 24.625 7.9375 C25.21539062 8.44152344 25.80578125 8.94554687 26.4140625 9.46484375 C28.75423221 11.73008192 29.95289955 13.34059363 30.1875 16.625 C30 19 30 19 29 20 C29.67804688 20.38929687 30.35609375 20.77859375 31.0546875 21.1796875 C39.08288223 26.00549984 48.20104796 32.06732898 52 41 C51.01 41.99 51.01 41.99 50 43 C49.59910156 42.35933594 49.19820313 41.71867187 48.78515625 41.05859375 C44.6187158 34.71917982 40.252519 30.28177038 34 26 C33.4225 26.28875 32.845 26.5775 32.25 26.875 C31.5075 27.24625 30.765 27.6175 30 28 C29.38640625 28.36867188 28.7728125 28.73734375 28.140625 29.1171875 C25.26243745 30.30417725 22.84973386 30.19238552 19.75 30.125 C18.67234375 30.10695313 17.5946875 30.08890625 16.484375 30.0703125 C15.66453125 30.04710938 14.8446875 30.02390625 14 30 C14 29.34 14 28.68 14 28 C15.609375 26.52734375 15.609375 26.52734375 17.75 24.9375 C18.44609375 24.41027344 19.1421875 23.88304688 19.859375 23.33984375 C21.95097666 22.03068432 23.59000935 21.43966046 26 21 C24.02 20.01 22.04 19.02 20 18 C20 18.99 20 19.98 20 21 C15.93150272 24.78791126 11.45485791 24.25039896 6.23046875 24.10546875 C5.12638672 24.05326172 5.12638672 24.05326172 4 24 C4 23.34 4 22.68 4 22 C5.42578125 20.7109375 5.42578125 20.7109375 7.3125 19.375 C7.92738281 18.92898437 8.54226562 18.48296875 9.17578125 18.0234375 C11 17 11 17 14 17 C14 16.34 14 15.68 14 15 C11.69 14.67 9.38 14.34 7 14 C7 15.32 7 16.64 7 18 C2.03006806 20.43425238 -1.34605369 21.34615998 -7 21 C-5.60667426 17.63279613 -4.0210714 16.0140476 -1 14 C-3.475 13.505 -3.475 13.505 -6 13 C-6 14.32 -6 15.64 -6 17 C-10.50353262 18.75747614 -14.17639811 19.19294408 -19 19 C-19 18.34 -19 17.68 -19 17 C-21.97 17 -24.94 17 -28 17 C-28 16.34 -28 15.68 -28 15 C-26.25 13.4921875 -26.25 13.4921875 -24 11.875 C-23.2575 11.33617187 -22.515 10.79734375 -21.75 10.2421875 C-21.1725 9.83226562 -20.595 9.42234375 -20 9 C-22.64 7.68 -25.28 6.36 -28 5 C-28 4.34 -28 3.68 -28 3 C-22.47322267 2.80607799 -18.24385089 3.2520497 -13 5 C-13.66 3.68 -14.32 2.36 -15 1 C-8.21017493 1.37035409 -3.73115109 3.40476401 2 7 C1.34 4.69 0.68 2.38 0 0 Z " fill="#4A874F" transform="translate(136,36)"/>
<path d="M0 0 C4.71218068 2.08983706 7.67230023 5.34460046 10 10 C11.2154005 18.7231909 9.09637073 24.92170732 4 32 C-0.67372778 37.49918717 -7.22450637 40.74150212 -14 43 C-16.8359375 43.1328125 -16.8359375 43.1328125 -19 43 C-16.4214929 27.2424566 -8.31684507 13.37054166 0 0 Z " fill="#13703C" transform="translate(85,75)"/>
<path d="M0 0 C0.66 0.66 1.32 1.32 2 2 C1.71271576 7.6055462 -0.09241131 12.01370143 -2.4375 17 C-6.01257421 24.69562366 -8.27675559 31.2190743 -8.0625 39.875 C-8.00906235 42.24949014 -7.97927057 44.62499909 -8 47 C-8.495 47.495 -8.495 47.495 -9 48 C-13.27765145 47.83857919 -15.33316458 47.68438372 -18.375 44.5625 C-22.13838926 38.62792463 -21.63693001 33.19849635 -20.28125 26.390625 C-15.66437763 8.14653259 -15.66437763 8.14653259 -9.625 1.3125 C-6.20766772 -0.39616614 -3.76969936 -0.42675842 0 0 Z " fill="#F6F9F8" transform="translate(215,84)"/>
<path d="M0 0 C6.78982507 0.37035409 11.26884891 2.40476401 17 6 C17.33 5.34 17.66 4.68 18 4 C20.66666667 6.66666667 23.33333333 9.33333333 26 12 C25.10796875 11.91621094 24.2159375 11.83242188 23.296875 11.74609375 C22.12640625 11.64425781 20.9559375 11.54242188 19.75 11.4375 C18.58984375 11.33308594 17.4296875 11.22867188 16.234375 11.12109375 C13.48128523 11.01801913 11.580018 11.13786527 9 12 C9 13.32 9 14.64 9 16 C4.49646738 17.75747614 0.82360189 18.19294408 -4 18 C-4 17.34 -4 16.68 -4 16 C-6.97 16 -9.94 16 -13 16 C-13 15.34 -13 14.68 -13 14 C-11.25 12.4921875 -11.25 12.4921875 -9 10.875 C-8.2575 10.33617187 -7.515 9.79734375 -6.75 9.2421875 C-6.1725 8.83226562 -5.595 8.42234375 -5 8 C-7.64 6.68 -10.28 5.36 -13 4 C-13 3.34 -13 2.68 -13 2 C-7.47322267 1.80607799 -3.24385089 2.2520497 2 4 C1.34 2.68 0.68 1.36 0 0 Z " fill="#F5D99D" transform="translate(121,37)"/>
<path d="M0 0 C1.67542976 0.28604898 3.34385343 0.61781233 5 1 C4.44271087 4.34373475 3.64826111 7.03312999 2 10 C3.98 9.67 5.96 9.34 8 9 C6.45320536 15.98771261 5.06687467 19.99844437 -1 24 C-3.76250036 25.38125018 -5.94731099 25.19079306 -9 25 C-11 23 -11 23 -11.4375 20 C-11.25193362 13.66423365 -7.65147502 7.3646396 -3.25 2.9375 C-2.5075 2.298125 -1.765 1.65875 -1 1 C-0.67 0.67 -0.34 0.34 0 0 Z " fill="#086A34" transform="translate(233,91)"/>
<path d="M0 0 C2.375 0.8125 2.375 0.8125 4.375 2.8125 C5.0466325 8.0543215 3.27275386 11.8187415 0.9375 16.375 C-2.05416093 22.31685329 -3.76085385 27.19198781 -3.8125 33.875 C-3.82667969 34.71160156 -3.84085938 35.54820313 -3.85546875 36.41015625 C-3.607673 38.99311192 -2.82099054 40.5415706 -1.625 42.8125 C-2 45.0625 -2 45.0625 -2.625 46.8125 C-3.285 46.8125 -3.945 46.8125 -4.625 46.8125 C-8.25440752 40.6878748 -9.91727649 35.92952275 -8.625 28.8125 C-6.78269687 22.88924477 -4.33892506 17.04866112 -1.4375 11.5703125 C-0.24407985 8.98839391 -0.49779122 6.61109316 -0.625 3.8125 C-3.57229537 2.65438612 -3.57229537 2.65438612 -6.625 2.8125 C-4.2650337 0.62734602 -3.28118881 -0.23437063 0 0 Z " fill="#DADEDD" transform="translate(149.625,85.1875)"/>
<path d="M0 0 C3 1 3 1 4 3 C4.36847031 10.43348795 1.47874422 16.22532285 -3 22 C-5.82604531 24.6426241 -8.02195588 26 -12 26 C-10.14065693 17.76853327 -6.13602764 6.13602764 0 0 Z " fill="#EDE4B2" transform="translate(86,84)"/>
<path d="M0 0 C3.375 -0.125 3.375 -0.125 7 0 C7.66 0.66 8.32 1.32 9 2 C8.71271576 7.6055462 6.90758869 12.01370143 4.5625 17 C0.98742579 24.69562366 -1.27675559 31.2190743 -1.0625 39.875 C-1.00906235 42.24949014 -0.97927057 44.62499909 -1 47 C-2 48 -2 48 -4.5625 48.0625 C-5.366875 48.041875 -6.17125 48.02125 -7 48 C-6.34 47.34 -5.68 46.68 -5 46 C-5.33 45.34 -5.66 44.68 -6 44 C-7.22029955 29.35640537 -0.03164944 15.91241457 6 3 C5.38125 2.87625 4.7625 2.7525 4.125 2.625 C2 2 2 2 0 0 Z " fill="#E6EAE9" transform="translate(208,84)"/>
<path d="M0 0 C0.99 0.66 1.98 1.32 3 2 C2.73991338 5.72790821 2.15299098 7.78007546 0 10.875 C-3.98888062 13.7004571 -7.23850311 13.68864624 -12 13 C-12.33 12.67 -12.66 12.34 -13 12 C-12.8387733 7.80810592 -12.35374509 5.48900057 -9.875 2.0625 C-6.27710864 -0.51859598 -4.34083735 -0.56270114 0 0 Z " fill="#F9FBFA" transform="translate(220,69)"/>
<path d="M0 0 C0.99 0.33 1.98 0.66 3 1 C2.44138971 6.01769245 0.07517214 9.73750141 -2.4375 14 C-6.12788679 20.29777665 -6.12788679 20.29777665 -9 27 C-9.66 26.67 -10.32 26.34 -11 26 C-11.33773437 27.12019531 -11.67546875 28.24039063 -12.0234375 29.39453125 C-12.47370046 30.86726636 -12.92423553 32.33991831 -13.375 33.8125 C-13.59671875 34.55048828 -13.8184375 35.28847656 -14.046875 36.04882812 C-14.26601562 36.76103516 -14.48515625 37.47324219 -14.7109375 38.20703125 C-14.90993652 38.8616333 -15.10893555 39.51623535 -15.31396484 40.19067383 C-16 42 -16 42 -18 45 C-17.37896663 33.200366 -12.83622145 22.42087603 -7.9375 11.8125 C-7.60935303 11.09384766 -7.28120605 10.37519531 -6.94311523 9.63476562 C-5.09569963 5.75828186 -3.31099271 2.8537955 0 0 Z " fill="#F5F8F7" transform="translate(81,74)"/>
<path d="M0 0 C5.30380482 1.62060703 7.65795973 4.51722549 10.25 9.3125 C10.4975 9.869375 10.745 10.42625 11 11 C11.66 10.34 12.32 9.68 13 9 C13.25 16.625 13.25 16.625 11 20 C10.34 19.67 9.68 19.34 9 19 C8.95875 19.78375 8.9175 20.5675 8.875 21.375 C6.65920376 30.55472729 0.60034566 37.60705908 -7 43 C-9.77734375 44.21875 -9.77734375 44.21875 -12 45 C-10.9790625 43.9790625 -10.9790625 43.9790625 -9.9375 42.9375 C-9.48246094 42.47601563 -9.02742188 42.01453125 -8.55859375 41.5390625 C-7.49284304 40.48666706 -6.39983902 39.46135894 -5.28515625 38.4609375 C0.38689755 33.22328607 5.40689357 25.88544078 6.203125 17.984375 C6.35464863 10.76174862 4.74492624 5.64872172 0 0 Z " fill="#D5D9D8" transform="translate(96,73)"/>
<path d="M0 0 C3.00489727 0.26129542 5.30440251 0.55945492 7.875 2.1875 C9.53317084 4.85899747 9.2119509 6.89643324 9 10 C7.9765625 12.53515625 7.9765625 12.53515625 6.625 15.0625 C3.63556527 21.21074253 2.71912874 27.24877642 2 34 C0.515 34.495 0.515 34.495 -1 35 C-2.95852449 31.08295102 -2.38684609 27.33864069 -1.2109375 23.26953125 C0.1538505 19.40957742 1.49454013 15.82634847 3.63671875 12.32421875 C5.2160797 10.08070144 5.2160797 10.08070144 5 7.4375 C3.68958704 4.24336842 1.79974546 2.93828532 -1 1 C-0.67 0.67 -0.34 0.34 0 0 Z " fill="#DFE4E3" transform="translate(119,84)"/>
<path d="M0 0 C0 0.33 0 0.66 0 1 C-1.258125 1.28875 -2.51625 1.5775 -3.8125 1.875 C-6.8539399 2.57303539 -8.30669878 3.20446585 -11 5 C-12.03125 5.66 -13.0625 6.32 -14.125 7 C-17.04489239 8.69074133 -17.04489239 8.69074133 -18 11 C-18.07009733 12.47765166 -18.08435939 13.95834814 -18.0625 15.4375 C-18.04896484 16.61119141 -18.04896484 16.61119141 -18.03515625 17.80859375 C-18.02355469 18.53175781 -18.01195312 19.25492188 -18 20 C-18 20.99 -18 21.98 -18 23 C-21.875 21.125 -21.875 21.125 -23 20 C-23.61882695 14.73113053 -24.00667165 10.42118351 -20.875 6 C-13.7136635 1.01820069 -8.4882497 -0.14147083 0 0 Z " fill="#E1E3E3" transform="translate(69,66)"/>
<path d="M0 0 C4.82449316 2.0871177 7.60061497 5.36589363 10 10 C10.46629518 13.07849984 10.38538001 15.9169599 10 19 C5.60764665 17.87053771 3.40537782 15.80017566 0.9375 12.15234375 C-0.77413686 8.22271079 -0.37969304 4.19349868 0 0 Z " fill="#126E37" transform="translate(169,44)"/>
<path d="M0 0 C2.44932852 1.43323154 3.98246934 2.93326127 6 5 C6 5.66 6 6.32 6 7 C2.0625182 8.9687409 -2.70893502 8.46471449 -7 8 C-9.47067185 6.92640635 -10.93896286 5.78251861 -13 4 C-9.19469282 -0.16771739 -5.53719999 -0.56310508 0 0 Z " fill="#156F37" transform="translate(173,66)"/>
<path d="M0 0 C6.15234375 -0.09765625 6.15234375 -0.09765625 8 0 C8.33 0.33 8.66 0.66 9 1 C8.96307305 5.38507554 8.43654734 9.14436721 6.4375 13.0625 C4.52478391 16.97109375 4.77686134 19.68598592 5 24 C3.68 24.33 2.36 24.66 1 25 C-0.44656348 22.10687304 -0.29947586 20.23433934 0 17 C0.61869243 15.64373974 1.28951379 14.31050813 2 13 C3.87073688 9.50573076 4.74934393 7.02772361 4 3 C2.11922127 1.08743288 2.11922127 1.08743288 0 0 Z " fill="#D8DFDC" transform="translate(187,86)"/>
<path d="M0 0 C0.99 0.33 1.98 0.66 3 1 C2.38511719 2.05574219 2.38511719 2.05574219 1.7578125 3.1328125 C-2.63186387 11.17705198 -4.22025784 17.91197064 -5 27 C-7.31 27 -9.62 27 -12 27 C-11.01 26.67 -10.02 26.34 -9 26 C-9.165 24.845 -9.33 23.69 -9.5 22.5 C-9.58742632 14.70656845 -4.71598607 7.59921416 -1 1 C-0.67 0.67 -0.34 0.34 0 0 Z " fill="#DEE4E2" transform="translate(173,102)"/>
<path d="M0 0 C2.90336311 1.33657024 5.2102811 2.84722571 7.625 4.9375 C8.21539062 5.44152344 8.80578125 5.94554687 9.4140625 6.46484375 C11.79627352 8.77077708 12.96912779 10.33624758 13.125 13.6875 C13.08375 14.450625 13.0425 15.21375 13 16 C8.42203743 15.73070808 6.28448409 13.8317207 3.29296875 10.6171875 C0.47138968 7.08808255 0 4.47484237 0 0 Z " fill="#0F6C34" transform="translate(153,39)"/>
<path d="M0 0 C0.33 1.32 0.66 2.64 1 4 C-2.92826365 6.77675038 -5.53124892 7.34512366 -10.3125 7.1875 C-11.91544922 7.14689453 -11.91544922 7.14689453 -13.55078125 7.10546875 C-14.35902344 7.07066406 -15.16726562 7.03585938 -16 7 C-16 5 -16 5 -13.625 2.375 C-9.49363876 -1.01152448 -5.08331988 -0.4520739 0 0 Z " fill="#116D35" transform="translate(166,59)"/>
<path d="M0 0 C0.99 0.66 1.98 1.32 3 2 C2.1646875 2.680625 2.1646875 2.680625 1.3125 3.375 C-2.90063204 8.15747421 -5.7582234 13.50164182 -6.375 19.875 C-6.07816786 22.34860117 -5.75819435 24.63064267 -5 27 C-8.875 26.125 -8.875 26.125 -10 25 C-11.30803116 16.9437172 -9.3985717 11.91030887 -4.82421875 5.3125 C-3.30688673 3.38902985 -1.78595914 1.67055871 0 0 Z " fill="#DEE5E2" transform="translate(229,91)"/>
<path d="M0 0 C0.66 0 1.32 0 2 0 C1.61288721 6.19380465 -0.37859401 10.01686642 -4 15 C-4.42152344 15.59941406 -4.84304687 16.19882813 -5.27734375 16.81640625 C-9.94096052 22.85883146 -16.76431465 27.58810488 -24 30 C-24.33 29.01 -24.66 28.02 -25 27 C-22.92805183 25.9256565 -20.98732585 24.99612734 -18.75 24.3125 C-9.566041 19.92924684 -4.14590477 11.6573853 -0.625 2.375 C-0.315625 1.199375 -0.315625 1.199375 0 0 Z " fill="#E8F0EC" transform="translate(105,92)"/>
<path d="M0 0 C6.12297484 0.38268593 10.8283963 4.8283963 15 9 C15 9.99 15 10.98 15 12 C11.39085598 12.33573433 9.49846099 12.30857109 6.375 10.375 C3.77459281 7.77459281 1.86012542 5.16910256 0 2 C0 1.34 0 0.68 0 0 Z " fill="#0F6C34" transform="translate(136,36)"/>
<path d="M0 0 C3 2 3 2 4 5 C4.16796875 6.9375 4.16796875 6.9375 4.1875 9 C4.20167969 9.680625 4.21585938 10.36125 4.23046875 11.0625 C4 13 4 13 2 16 C-1 15 -1 15 -3 12 C-3.046875 9.84375 -3.046875 9.84375 -2.75 7.5 C-2.66234375 6.7265625 -2.5746875 5.953125 -2.484375 5.15625 C-2 3 -2 3 0 0 Z " fill="#19723B" transform="translate(185,55)"/>
<path d="M0 0 C3.83206182 0.41427695 6.08025204 1.51280729 9 4 C8.45316966 8.59337489 7.12988056 11.91772893 5 16 C4.31363375 18.23525035 4.31363375 18.23525035 4 20 C3.34 20 2.68 20 2 20 C0.37485532 21.45833358 0.37485532 21.45833358 -1 23 C1.73972603 14.61643836 1.73972603 14.61643836 3.1875 11.1875 C4.23212435 8.76396971 4.23212435 8.76396971 4 5 C1.58119071 2.73122465 1.58119071 2.73122465 -1 1 C-0.67 0.67 -0.34 0.34 0 0 Z " fill="#DADFDD" transform="translate(166,84)"/>
<path d="M0 0 C0.33 1.32 0.66 2.64 1 4 C-2.27301919 6.96909598 -4.38065762 7.34354794 -8.75 7.1875 C-10.22726563 7.14689453 -10.22726563 7.14689453 -11.734375 7.10546875 C-12.85585937 7.05326172 -12.85585937 7.05326172 -14 7 C-14 5 -14 5 -12.71484375 3.7109375 C-8.36404155 0.4406642 -5.6194584 -0.57341412 0 0 Z " fill="#0F6C34" transform="translate(154,53)"/>
<path d="M0 0 C6.95757544 0.25300274 11.7191049 2.39144108 17 7 C17 7.66 17 8.32 17 9 C12.09987217 9.61251598 9.70110157 9.15917941 5.6875 6.1875 C3.18485102 4.19619776 1.80738813 2.71108219 0 0 Z " fill="#1E733B" transform="translate(121,37)"/>
<path d="M0 0 C3.79102622 0.20874212 4.86039289 0.84530023 7.45703125 3.72265625 C8.2563333 4.82582519 9.04120718 5.93956952 9.8125 7.0625 C10.21919922 7.63033203 10.62589844 8.19816406 11.04492188 8.78320312 C12.04255162 10.17988477 13.02301533 11.58879991 14 13 C11 13 11 13 8 11 C5.9507906 10.54860541 5.9507906 10.54860541 3.8125 10.375 C2.554375 10.25125 1.29625 10.1275 0 10 C0 9.34 0 8.68 0 8 C-1.65 8 -3.3 8 -5 8 C-5 7.67 -5 7.34 -5 7 C-1.7 6.67 1.6 6.34 5 6 C3.35 4.02 1.7 2.04 0 0 Z " fill="#C8C890" transform="translate(174,67)"/>
<path d="M0 0 C0.66 0 1.32 0 2 0 C3.16983345 2.3396669 3.1661241 3.83391527 3.1875 6.4375 C3.20167969 7.21996094 3.21585938 8.00242187 3.23046875 8.80859375 C3 11 3 11 1 14 C-0.9375 13.6875 -0.9375 13.6875 -3 13 C-4.12509213 9.62472362 -3.90597042 9.08116594 -2.625 5.9375 C-2.34914062 5.24527344 -2.07328125 4.55304688 -1.7890625 3.83984375 C-1.23249348 2.54210114 -0.63149109 1.26298217 0 0 Z " fill="#1F753E" transform="translate(192,67)"/>
<path d="M0 0 C0.33 1.32 0.66 2.64 1 4 C-3.96993194 6.43425238 -7.34605369 7.34615998 -13 7 C-10.30332745 0.48304134 -6.81821784 -0.39335872 0 0 Z " fill="#106C35" transform="translate(142,50)"/>
<path d="M0 0 C0.99 0.66 1.98 1.32 3 2 C2.71915428 6.02545534 2.21634296 7.74482626 -0.4375 10.875 C-3 13 -3 13 -5 13 C-3.66511872 9.40608886 -2.03977277 6.24509304 0 3 C-2.70590396 2.04632548 -2.70590396 2.04632548 -6 2 C-8.3586498 3.42368952 -10.00702837 5.05448008 -12 7 C-9.18565505 0.72184587 -7.0782485 -0.63198647 0 0 Z " fill="#DBE5E0" transform="translate(220,69)"/>
<path d="M0 0 C5.95945778 -0.31365567 9.72217292 0.14997338 15 3 C15.99 4.485 15.99 4.485 17 6 C10.11509775 6.57374185 5.97332123 5.4753869 0 2 C0 1.34 0 0.68 0 0 Z " fill="#257740" transform="translate(108,39)"/>
<path d="M0 0 C0.144375 0.61875 0.28875 1.2375 0.4375 1.875 C0.93152225 4.03258322 0.93152225 4.03258322 2 6 C2.27095876 8.26659157 2.44487997 10.53281159 2.62109375 12.80859375 C2.8967824 15.28373645 2.8967824 15.28373645 5 18 C4.67 18.99 4.34 19.98 4 21 C1 20 1 20 -0.6875 17.5625 C-2.57279891 12.44526011 -3.24055069 6.80431 -0.98046875 1.6953125 C-0.65691406 1.13585937 -0.33335937 0.57640625 0 0 Z " fill="#D9DEDC" transform="translate(247,111)"/>
<path d="M0 0 C0.99 0.33 1.98 0.66 3 1 C2.56429687 1.59425781 2.12859375 2.18851562 1.6796875 2.80078125 C-2.74387061 8.95737837 -6.50899767 15.27374642 -10 22 C-11 19 -11 19 -9.453125 15.3125 C-8.72909423 13.86976221 -7.99424422 12.43241524 -7.25 11 C-6.70859375 9.91332031 -6.70859375 9.91332031 -6.15625 8.8046875 C-4.40314335 5.36199256 -2.85926473 2.64935435 0 0 Z " fill="#D8D9DB" transform="translate(81,74)"/>
<path d="M0 0 C1.42133564 4.26400693 2.20602377 8.2044543 2.625 12.6875 C2.72039062 13.66074219 2.81578125 14.63398437 2.9140625 15.63671875 C2.94242188 16.41660156 2.97078125 17.19648438 3 18 C2 19 2 19 -0.5625 19.0625 C-1.366875 19.041875 -2.17125 19.02125 -3 19 C-2.34 18.34 -1.68 17.68 -1 17 C-1.33 16.34 -1.66 15.68 -2 15 C-2.46244252 9.62276143 -2.06810447 5.04100465 0 0 Z " fill="#D8E1DD" transform="translate(204,113)"/>
<path d="M0 0 C3.03742032 4.55613047 2.3586349 9.84819061 1.5 15 C1.335 15.66 1.17 16.32 1 17 C0.01 16.67 -0.98 16.34 -2 16 C-1.835 15.484375 -1.67 14.96875 -1.5 14.4375 C-0.8457536 11.24804881 -0.87750412 8.24614095 -1 5 C-2.58272601 3.41727399 -4.38034003 3.65264253 -6.5625 3.4375 C-7.38878906 3.35371094 -8.21507812 3.26992187 -9.06640625 3.18359375 C-9.70449219 3.12300781 -10.34257812 3.06242187 -11 3 C-7.65817252 -1.0165182 -4.96805907 -0.24433077 0 0 Z " fill="#D8DFDD" transform="translate(241,84)"/>
<path d="M0 0 C2.44580739 1.58646966 3.64020077 3.14817861 5.3125 5.5 C4.66023438 5.47679688 4.00796875 5.45359375 3.3359375 5.4296875 C-1.77448903 5.32416247 -5.89175033 5.48073698 -10.6875 7.5 C-10.6875 6.84 -10.6875 6.18 -10.6875 5.5 C-12.9975 5.5 -15.3075 5.5 -17.6875 5.5 C-17.6875 5.17 -17.6875 4.84 -17.6875 4.5 C-16.81738281 4.46132812 -16.81738281 4.46132812 -15.9296875 4.421875 C-11.56762171 4.10515735 -9.15681087 3.81588232 -5.4375 1.3125 C-2.6875 -0.5 -2.6875 -0.5 0 0 Z " fill="#EBD599" transform="translate(170.6875,61.5)"/>
<path d="M0 0 C0.33 0 0.66 0 1 0 C1 1.98 1 3.96 1 6 C1.928125 6.103125 2.85625 6.20625 3.8125 6.3125 C7 7 7 7 8.9375 8.125 C10.64468809 11.13768486 9.67845209 13.7310945 9 17 C8.01 17 7.02 17 6 17 C5.71125 16.0925 5.4225 15.185 5.125 14.25 C4.23468224 11.67797092 3.28505587 9.38653234 2 7 C1.34 7 0.68 7 0 7 C0 4.69 0 2.38 0 0 Z " fill="#D2DDD8" transform="translate(244,88)"/>
<path d="M0 0 C0.66 0.33 1.32 0.66 2 1 C1.94199219 1.64066406 1.88398438 2.28132813 1.82421875 2.94140625 C1.46749437 9.78032221 2.49099499 12.84685142 7 18 C7.66 18.66 8.32 19.32 9 20 C5.42959697 19.34097701 2.82267745 17.83770842 -0.25 15.9375 C-1.14203125 15.38964844 -2.0340625 14.84179688 -2.953125 14.27734375 C-3.62859375 13.85582031 -4.3040625 13.43429688 -5 13 C-4.01 12.67 -3.02 12.34 -2 12 C-2 11.01 -2 10.02 -2 9 C-1.34 9 -0.68 9 0 9 C0 6.03 0 3.06 0 0 Z " fill="#CEC78D" transform="translate(168,43)"/>
<path d="M0 0 C-0.1875 1.875 -0.1875 1.875 -1 4 C-4.6617375 6.09242143 -7.84532871 6.19324053 -12 6 C-12 4 -12 4 -9.9375 1.875 C-6.36313462 -0.40650982 -4.16216275 -0.32644414 0 0 Z " fill="#18713A" transform="translate(120,47)"/>
<path d="M0 0 C0 1.32 0 2.64 0 4 C-3.63423209 6.32590854 -6.77088331 6.16265833 -11 6 C-7.34769214 1.25199978 -6.01084259 -0.15818007 0 0 Z " fill="#146E37" transform="translate(128,49)"/>
<path d="M0 0 C1.32 0.66 2.64 1.32 4 2 C3.34 3.32 2.68 4.64 2 6 C1.67 5.67 1.34 5.34 1 5 C0.66226563 6.12019531 0.32453125 7.24039063 -0.0234375 8.39453125 C-0.47370046 9.86726636 -0.92423553 11.33991831 -1.375 12.8125 C-1.59671875 13.55048828 -1.8184375 14.28847656 -2.046875 15.04882812 C-2.37558594 16.11713867 -2.37558594 16.11713867 -2.7109375 17.20703125 C-2.90993652 17.8616333 -3.10893555 18.51623535 -3.31396484 19.19067383 C-4 21 -4 21 -6 24 C-5.55052002 15.45988044 -2.85091417 7.98466367 0 0 Z " fill="#E5E7E7" transform="translate(69,95)"/>
<path d="M0 0 C0.33 0 0.66 0 1 0 C1 1.65 1 3.3 1 5 C1.66 5 2.32 5 3 5 C2.01 8.3 1.02 11.6 0 15 C-2.93200474 12.14723863 -5.64315404 9.34920216 -8 6 C-7.01 6 -6.02 6 -5 6 C-4.67 6.66 -4.34 7.32 -4 8 C-3.34 8 -2.68 8 -2 8 C-1.34 5.36 -0.68 2.72 0 0 Z " fill="#DFDBA9" transform="translate(189,62)"/>
<path d="M0 0 C2.375 0.8125 2.375 0.8125 4.375 2.8125 C4.5 5.9375 4.5 5.9375 4.375 8.8125 C3.385 8.8125 2.395 8.8125 1.375 8.8125 C1.106875 8.008125 0.83875 7.20375 0.5625 6.375 C0.170625 5.529375 -0.22125 4.68375 -0.625 3.8125 C-3.57229537 2.65438612 -3.57229537 2.65438612 -6.625 2.8125 C-4.2650337 0.62734602 -3.28118881 -0.23437063 0 0 Z " fill="#D3DED9" transform="translate(149.625,85.1875)"/>
<path d="M0 0 C3.375 -0.125 3.375 -0.125 7 0 C9 2 9 2 9 5 C8.34 5 7.68 5 7 5 C6.80664062 5.63808594 6.61328125 6.27617188 6.4140625 6.93359375 C6.15367187 7.75988281 5.89328125 8.58617188 5.625 9.4375 C5.36976563 10.26121094 5.11453125 11.08492187 4.8515625 11.93359375 C4 14 4 14 2 15 C2.66498383 10.61110675 4.18757677 7.0188515 6 3 C5.38125 2.87625 4.7625 2.7525 4.125 2.625 C2 2 2 2 0 0 Z " fill="#D9DFDD" transform="translate(208,84)"/>
<path d="M0 0 C1.15475271 2.30950542 1.56042048 4.40478778 2.0625 6.9375 C2.23910156 7.81277344 2.41570313 8.68804687 2.59765625 9.58984375 C3 12 3 12 3 15 C-0.875 13.125 -0.875 13.125 -2 12 C-2.07226502 10.14712498 -2.0838122 8.29166122 -2.0625 6.4375 C-2.05347656 5.42558594 -2.04445312 4.41367188 -2.03515625 3.37109375 C-2.02355469 2.58863281 -2.01195312 1.80617188 -2 1 C-1.34 0.67 -0.68 0.34 0 0 Z " fill="#D4DBD8" transform="translate(48,74)"/>
<path d="M0 0 C0.33 0 0.66 0 1 0 C1.04898438 0.81984375 1.09796875 1.6396875 1.1484375 2.484375 C1.22320312 3.56203125 1.29796875 4.6396875 1.375 5.75 C1.44460937 6.81734375 1.51421875 7.8846875 1.5859375 8.984375 C1.97687873 11.83160733 2.66642952 13.51066844 4 16 C3.625 18.25 3.625 18.25 3 20 C2.34 20 1.68 20 1 20 C-0.7958955 13.02420757 -1.12067256 7.11778518 0 0 Z " fill="#E2E9E6" transform="translate(144,112)"/>
<path d="M0 0 C1.32 0 2.64 0 4 0 C4 0.66 4 1.32 4 2 C5.65 2.33 7.3 2.66 9 3 C9.33 2.34 9.66 1.68 10 1 C11.65 2.65 13.3 4.3 15 6 C12 7 12 7 9.8125 6.0625 C9.214375 5.711875 8.61625 5.36125 8 5 C7.67 5.99 7.34 6.98 7 8 C6.67 7.01 6.34 6.02 6 5 C3.98491642 4.26676204 3.98491642 4.26676204 2 4 C2 3.34 2 2.68 2 2 C1.34 1.34 0.68 0.68 0 0 Z " fill="#8BA569" transform="translate(148,49)"/>
<path d="M0 0 C0.99 0 1.98 0 3 0 C2.566875 1.8871875 2.566875 1.8871875 2.125 3.8125 C0.92819728 9.18101507 -0.04830632 14.58344556 -1 20 C-1.33 20 -1.66 20 -2 20 C-2.05425226 17.60385874 -2.09379027 15.20896147 -2.125 12.8125 C-2.14175781 12.13896484 -2.15851563 11.46542969 -2.17578125 10.77148438 C-2.21538674 6.71192193 -1.80020002 3.65001185 0 0 Z " fill="#E9ECEB" transform="translate(249,104)"/>
<path d="M0 0 C0.99386719 0.10183594 1.98773438 0.20367187 3.01171875 0.30859375 C3.77097656 0.39238281 4.53023437 0.47617187 5.3125 0.5625 C3.9925 0.8925 2.6725 1.2225 1.3125 1.5625 C1.3125 2.8825 1.3125 4.2025 1.3125 5.5625 C0.6525 5.2325 -0.0075 4.9025 -0.6875 4.5625 C-0.6875 3.9025 -0.6875 3.2425 -0.6875 2.5625 C-5.24487263 3.00070891 -8.26403445 3.41291169 -11.6875 6.5625 C-12.6775 5.9025 -13.6675 5.2425 -14.6875 4.5625 C-13.883125 4.27375 -13.07875 3.985 -12.25 3.6875 C-9.5548532 2.82987432 -9.5548532 2.82987432 -8.6875 0.5625 C-5.3763987 -0.54120043 -3.44001051 -0.36423641 0 0 Z " fill="#BCBF85" transform="translate(128.6875,47.4375)"/>
<path d="M0 0 C5.56 0.48347826 5.56 0.48347826 7.4375 2.6875 C8.18315243 5.75295997 7.80776872 7.97086729 7 11 C6.01 11.495 6.01 11.495 5 12 C5.185625 10.63875 5.185625 10.63875 5.375 9.25 C5.25125 8.1775 5.1275 7.105 5 6 C2.11490087 3.57577814 2.11490087 3.57577814 -1 2 C-0.67 1.34 -0.34 0.68 0 0 Z " fill="#D2D9D7" transform="translate(119,84)"/>
<path d="M0 0 C1.1655377 3.4966131 0.5938922 4.93032371 -0.8984375 8.21484375 C-2.74258732 11.20341278 -5.18456653 12.93534879 -8 15 C-8.33 14.01 -8.66 13.02 -9 12 C-8.2575 11.319375 -7.515 10.63875 -6.75 9.9375 C-3.75618047 6.96926868 -1.96562715 3.71285128 0 0 Z " fill="#D3DCD8" transform="translate(129,114)"/>
<path d="M0 0 C0.66 0.33 1.32 0.66 2 1 C2.6328125 3.28515625 2.6328125 3.28515625 3.125 6.0625 C3.29257813 6.98160156 3.46015625 7.90070313 3.6328125 8.84765625 C3.75398437 9.55792969 3.87515625 10.26820312 4 11 C0.125 10.125 0.125 10.125 -1 9 C-1.1328125 7.1875 -1.1328125 7.1875 -1.125 5 C-1.12757813 4.278125 -1.13015625 3.55625 -1.1328125 2.8125 C-1 1 -1 1 0 0 Z " fill="#D0D7D5" transform="translate(220,107)"/>
<path d="M0 0 C2.31 0.33 4.62 0.66 7 1 C7 1.66 7 2.32 7 3 C5.6078125 3.680625 5.6078125 3.680625 4.1875 4.375 C0.96078611 5.9421633 0.96078611 5.9421633 -2 8 C-2.66 7.01 -3.32 6.02 -4 5 C-2.68 4.67 -1.36 4.34 0 4 C0 2.68 0 1.36 0 0 Z " fill="#D8C788" transform="translate(143,50)"/>
<path d="M0 0 C1.12588014 0.95729916 2.2506715 1.91587895 3.375 2.875 C4.00148437 3.40867188 4.62796875 3.94234375 5.2734375 4.4921875 C6.55836651 5.61432007 7.79371975 6.79371975 9 8 C4.38 7.34 -0.24 6.68 -5 6 C-5 5.67 -5 5.34 -5 5 C-3.35 5 -1.7 5 0 5 C-0.33 4.01 -0.66 3.02 -1 2 C-0.67 1.34 -0.34 0.68 0 0 Z " fill="#E1CC8D" transform="translate(138,41)"/>
<path d="M0 0 C0.99 0.33 1.98 0.66 3 1 C1.61211198 2.30020011 0.21430742 3.5898193 -1.1875 4.875 C-1.96480469 5.59429687 -2.74210937 6.31359375 -3.54296875 7.0546875 C-5.97689776 8.9817092 -8.07536646 10.01300111 -11 11 C-7.33333333 7.33333333 -3.66666667 3.66666667 0 0 Z " fill="#DEDEE0" transform="translate(95,107)"/>
<path d="M0 0 C4.50802601 1.25805377 7.4912812 2.90407165 11 6 C9.35 6.33 7.7 6.66 6 7 C5.67 6.34 5.34 5.68 5 5 C3.10466658 4.53476937 3.10466658 4.53476937 0.9375 4.375 C-0.361875 4.25125 -1.66125 4.1275 -3 4 C-1.68 3.34 -0.36 2.68 1 2 C0.67 1.34 0.34 0.68 0 0 Z " fill="#548D54" transform="translate(161,55)"/>
<path d="M0 0 C3.76706644 0.52320367 6.27388801 1.27388801 9 4 C9 5.32 9 6.64 9 8 C8.34 8 7.68 8 7 8 C6.79375 7.38125 6.5875 6.7625 6.375 6.125 C4.45224112 3.15346355 2.33405473 2.86975341 -1 2 C-0.67 1.34 -0.34 0.68 0 0 Z " fill="#CCDFD5" transform="translate(166,84)"/>
<path d="M0 0 C5.75 1.75 5.75 1.75 8 4 C5.03 4.66 2.06 5.32 -1 6 C-1.33 5.01 -1.66 4.02 -2 3 C-1.34 3 -0.68 3 0 3 C0 2.01 0 1.02 0 0 Z " fill="#EDD394" transform="translate(156,54)"/>
<path d="M0 0 C0.66 0 1.32 0 2 0 C4 2 4 2 4.125 5.625 C4.08375 6.73875 4.0425 7.8525 4 9 C3.01 9 2.02 9 1 9 C-0.4783226 6.04335481 -0.06032783 3.25770263 0 0 Z " fill="#D5D9D8" transform="translate(117,110)"/>
<path d="M0 0 C0.66 0.33 1.32 0.66 2 1 C0.6302836 4.99500618 -1.25722422 7.80009492 -4 11 C-5 8 -5 8 -4.00390625 5.95703125 C-3.52824219 5.24933594 -3.05257812 4.54164062 -2.5625 3.8125 C-2.08941406 3.09707031 -1.61632812 2.38164063 -1.12890625 1.64453125 C-0.75636719 1.10183594 -0.38382812 0.55914062 0 0 Z " fill="#E8F0EC" transform="translate(82,76)"/>
<path d="M0 0 C1.65 1.32 3.3 2.64 5 4 C4.34 4 3.68 4 3 4 C3 4.66 3 5.32 3 6 C-0.63 6.33 -4.26 6.66 -8 7 C-4.81237635 4.87491756 -2.73487777 4.4979837 1 4 C0.01 3.01 -0.98 2.02 -2 1 C-1.34 0.67 -0.68 0.34 0 0 Z " fill="#B0BA80" transform="translate(123,40)"/>
<path d="M0 0 C0.66 0 1.32 0 2 0 C1.56179109 4.55737263 1.14958831 7.57653445 -2 11 C-3.13643966 7.59068103 -2.86747764 6.99664544 -1.5625 3.8125 C-1.13130859 2.73935547 -1.13130859 2.73935547 -0.69140625 1.64453125 C-0.46324219 1.10183594 -0.23507813 0.55914062 0 0 Z " fill="#F0F4F2" transform="translate(105,92)"/>
<path d="M0 0 C0.99 0.66 1.98 1.32 3 2 C-2.75 7 -2.75 7 -5 7 C-3.70700306 4.11562221 -2.34058637 2.12780579 0 0 Z " fill="#D7E3DD" transform="translate(232,121)"/>
<path d="M0 0 C0.66 0.33 1.32 0.66 2 1 C1.525625 1.680625 1.05125 2.36125 0.5625 3.0625 C-1.2225636 6.41841956 -1.63153086 9.24161481 -2 13 C-2.33 13 -2.66 13 -3 13 C-3.08121924 11.39667209 -3.13929134 9.79215974 -3.1875 8.1875 C-3.22230469 7.29417969 -3.25710937 6.40085937 -3.29296875 5.48046875 C-2.95081002 2.58352485 -2.24606427 1.77444972 0 0 Z " fill="#F2F6F4" transform="translate(51,73)"/>
<path d="M0 0 C2.31 0 4.62 0 7 0 C4.63707344 2.52588702 3.33537489 3.88820837 0 5 C0 3.35 0 1.7 0 0 Z " fill="#EDD395" transform="translate(130,49)"/>
<path d="M0 0 C0.66 0 1.32 0 2 0 C2 1.98 2 3.96 2 6 C0.68 6.33 -0.64 6.66 -2 7 C-1.125 2.25 -1.125 2.25 0 0 Z " fill="#D9DCDC" transform="translate(221,101)"/>
<path d="M0 0 C3 3.625 3 3.625 3 7 C1.68 7.33 0.36 7.66 -1 8 C-0.67 5.36 -0.34 2.72 0 0 Z " fill="#E2EBE6" transform="translate(189,103)"/>
</svg>
