<?xml version="1.0" encoding="UTF-8"?>
<svg version="1.1" xmlns="http://www.w3.org/2000/svg" width="225" height="220">
<path d="M0 0 C1.04623504 0.00092179 2.09247007 0.00184359 3.1704092 0.00279331 C4.96468601 0.00073132 4.96468601 0.00073132 6.79521084 -0.00137234 C8.13279653 0.00216726 9.47038198 0.00580208 10.80796719 0.00952244 C12.20711166 0.00980431 13.60625627 0.00964658 15.00540066 0.00907993 C18.81515014 0.00879195 22.62486841 0.01468885 26.43461061 0.02165389 C30.41179863 0.02788724 34.38898731 0.02849121 38.36617947 0.0296793 C45.90267094 0.03279267 53.43914798 0.04100614 60.97563308 0.05102879 C69.55348383 0.06218974 78.13133525 0.06770033 86.70919144 0.07272422 C104.35923101 0.08318875 122.00925712 0.1007883 139.65928555 0.12304783 C139.67474674 1.56004787 139.67474674 1.56004787 139.69052029 3.02607822 C139.78819844 12.04620383 139.89092725 21.06625958 139.9986248 30.08627129 C140.0538326 34.72375006 140.10724923 39.36123516 140.1566 43.99878025 C140.2042751 48.47271027 140.25661913 52.94656335 140.3122263 57.42040157 C140.33263557 59.12883881 140.35135102 60.83729713 140.36835957 62.5457716 C140.39243513 64.93529615 140.4224854 67.32467539 140.45396328 69.71411228 C140.45971874 70.42333332 140.46547421 71.13255436 140.47140408 71.86326694 C140.51678566 74.88604435 140.69535473 77.23125539 141.65928555 80.12304783 C141.33615813 82.12472207 141.00114455 84.12448746 140.65928555 86.12304783 C140.64014893 88.53972853 140.66461492 90.95696767 140.72178555 93.37304783 C140.94141621 115.66033076 136.77162353 135.22861068 120.88584805 151.88476658 C120.15108242 152.62339939 119.4163168 153.3620322 118.65928555 154.12304783 C118.06889492 154.74824314 117.4785043 155.37343845 116.87022305 156.01757908 C103.75660498 168.81346631 84.29649824 173.79610283 66.49961758 173.59179783 C45.44783038 172.85863201 28.02370913 164.35930059 13.65928555 149.12304783 C-0.07273361 134.19940718 -3.51220776 114.27798934 -3.47010899 94.68383884 C-3.47186131 93.66990559 -3.47361362 92.65597233 -3.47541904 91.61131382 C-3.47979606 88.28317615 -3.47691579 84.95509222 -3.47352695 81.62695408 C-3.47420082 79.3090778 -3.47517153 76.99120158 -3.47642612 74.67332554 C-3.47789715 69.82916684 -3.47576629 64.98502664 -3.47108555 60.14087009 C-3.46536627 53.91737537 -3.46868487 47.69392356 -3.47465801 41.47043037 C-3.47826068 36.69139879 -3.47712679 31.91237749 -3.47453022 27.1333456 C-3.47386129 24.83710761 -3.47468821 22.54086869 -3.47700977 20.24463177 C-3.47953386 17.04856074 -3.47570019 13.85256079 -3.47010899 10.65649509 C-3.47213322 9.70018192 -3.47415745 8.74386875 -3.47624302 7.75857639 C-3.47342319 6.89369099 -3.47060337 6.02880558 -3.4676981 5.13771152 C-3.46732107 4.3820921 -3.46694405 3.62647268 -3.4665556 2.8479557 C-3.26728322 0.11652396 -2.72707213 0.14335807 0 0 Z " fill="#080708" transform="translate(45.34071445465088,25.876952171325684)"/>
<path d="M0 0 C45.54 0 91.08 0 138 0 C138 19.66949132 137.53141382 39.33768863 137 59 C92.12 59 47.24 59 1 59 C-7.79646394 41.40707213 0 19.66949132 0 0 Z " fill="#EB1A22" transform="translate(45,29)"/>
<path d="M0 0 C7.92 0 15.84 0 24 0 C24.53625 1.98 25.0725 3.96 25.625 6 C27.49368772 12.03881189 29.65604716 16.42520909 34 21 C34.51304688 21.54140625 35.02609375 22.0828125 35.5546875 22.640625 C44.70018711 31.30478253 57.37658041 34.56374326 69.6875 34.3125 C83.68637757 32.99185117 95.35692852 28.08198038 104.37890625 17.2265625 C108.3079922 11.82998662 109.35385289 6.58458846 111 0 C119.25 0 127.5 0 136 0 C133.99469371 18.04775657 125.7996229 32.1717518 112 44 C96.19288757 55.80772254 77.04464129 61.26450626 57.4296875 58.49609375 C38.36834189 54.83045036 22.39810024 45.5841683 10.70703125 29.9296875 C4.89194595 21.04886304 0 10.76513087 0 0 Z " fill="#F3F3F3" transform="translate(46,138)"/>
<path d="M0 0 C26.73 0 53.46 0 81 0 C79.71528246 10.27774032 76.27672801 16.92658666 68.20703125 23.46875 C57.06588771 31.19853455 45.29986065 33.24618043 32 32 C19.72948372 29.55976173 10.41134391 22.95138197 3 13 C0.2857558 8.51876461 0 5.41276647 0 0 Z " fill="#F8F8F8" transform="translate(73,138)"/>
<path d="M0 0 C2.64 0 5.28 0 8 0 C8 7.26 8 14.52 8 22 C15.59 22 23.18 22 31 22 C31 17.71 31 13.42 31 9 C29.79601562 9.6496875 28.59203125 10.299375 27.3515625 10.96875 C25.77615779 11.81271681 24.2006306 12.656455 22.625 13.5 C21.8309375 13.92925781 21.036875 14.35851562 20.21875 14.80078125 C19.45820312 15.20683594 18.69765625 15.61289063 17.9140625 16.03125 C17.2123291 16.40830078 16.5105957 16.78535156 15.78759766 17.17382812 C14 18 14 18 12 18 C12 12.06 12 6.12 12 0 C20.91 0 29.82 0 39 0 C39 8.91 39 17.82 39 27 C34.08776615 27.0919129 29.17852248 27.17151843 24.26611328 27.21972656 C22.59576298 27.23982393 20.92548287 27.26710683 19.25537109 27.30175781 C16.8523628 27.35036119 14.45028566 27.37298656 12.046875 27.390625 C11.30193787 27.41127014 10.55700073 27.43191528 9.78948975 27.45318604 C6.39975373 27.45464818 4.35414823 27.24084312 1.52148438 25.31445312 C-0.33406371 22.49182863 -0.46525153 20.93631895 -0.390625 17.578125 C-0.37773438 16.55332031 -0.36484375 15.52851562 -0.3515625 14.47265625 C-0.31804688 13.40917969 -0.28453125 12.34570312 -0.25 11.25 C-0.23195312 10.17105469 -0.21390625 9.09210938 -0.1953125 7.98046875 C-0.14821415 5.31941212 -0.082456 2.66015746 0 0 Z " fill="#EDEDED" transform="translate(47,98)"/>
<path d="M0 0 C3.89325614 2.40307879 6.96219386 5.43963536 9.265625 9.3984375 C9.760625 12.3684375 9.760625 12.3684375 10.265625 15.3984375 C-5.574375 15.3984375 -21.414375 15.3984375 -37.734375 15.3984375 C-36.44118617 8.93249337 -34.51901289 5.32236913 -29.15625 1.6171875 C-19.49063533 -3.74697562 -10.18021784 -4.63035715 0 0 Z " fill="#FDE5EE" transform="translate(125.734375,70.6015625)"/>
<path d="M0 0 C2.97 0 5.94 0 9 0 C9.33 7.26 9.66 14.52 10 22 C15.61 22.33 21.22 22.66 27 23 C27 20.36 27 17.72 27 15 C26.08476563 15.03480469 25.16953125 15.06960937 24.2265625 15.10546875 C23.03804687 15.13253906 21.84953125 15.15960938 20.625 15.1875 C19.44164063 15.22230469 18.25828125 15.25710937 17.0390625 15.29296875 C15.53472656 15.14794922 15.53472656 15.14794922 14 15 C10.83579142 10.25368713 11.87887245 5.63243123 12 0 C18.93 0 25.86 0 33 0 C33 2.31 33 4.62 33 7 C31.02 7 29.04 7 27 7 C26.67 5.68 26.34 4.36 26 3 C23.69 3 21.38 3 19 3 C19 5.31 19 7.62 19 10 C23.62 10 28.24 10 33 10 C33 15.61 33 21.22 33 27 C28.92416543 27.09187855 24.8509704 27.17149189 20.7746582 27.21972656 C19.38846662 27.23983275 18.00235975 27.26712245 16.61645508 27.30175781 C14.62358094 27.35031225 12.63008611 27.37083972 10.63671875 27.390625 C9.43748779 27.41157227 8.23825684 27.43251953 7.00268555 27.45410156 C4 27 4 27 2.1171875 25.31445312 C0.79771051 22.58092124 0.57246666 20.60879986 0.48828125 17.578125 C0.45283203 16.55332031 0.41738281 15.52851562 0.38085938 14.47265625 C0.35830078 13.40917969 0.33574219 12.34570312 0.3125 11.25 C0.27833984 10.17105469 0.24417969 9.09210938 0.20898438 7.98046875 C0.12659337 5.32041623 0.05741355 2.66068965 0 0 Z " fill="#EFEFEF" transform="translate(90,98)"/>
<path d="M0 0 C44.88 0 89.76 0 136 0 C136 1.32 136 2.64 136 4 C91.12 4 46.24 4 0 4 C0 2.68 0 1.36 0 0 Z " fill="#ECECEC" transform="translate(46,132)"/>
<path d="M0 0 C1.98 0 3.96 0 6 0 C6.06058594 1.07121094 6.12117187 2.14242187 6.18359375 3.24609375 C6.26798537 4.64324391 6.35263406 6.04037857 6.4375 7.4375 C6.47681641 8.14455078 6.51613281 8.85160156 6.55664062 9.58007812 C6.47624438 13.08690419 6.47624438 13.08690419 8 16 C12.32490853 16.4652292 16.65935537 16.70500473 21 17 C21 12.71 21 8.42 21 4 C19.68 4 18.36 4 17 4 C17 4.99 17 5.98 17 7 C15.02 7 13.04 7 11 7 C11 4.69 11 2.38 11 0 C16.61 0 22.22 0 28 0 C28 6.93 28 13.86 28 21 C24.08292059 21.08085714 20.16750641 21.14043614 16.25 21.1875 C15.13882813 21.21263672 14.02765625 21.23777344 12.8828125 21.26367188 C11.81289062 21.27333984 10.74296875 21.28300781 9.640625 21.29296875 C8.65610352 21.3086792 7.67158203 21.32438965 6.65722656 21.34057617 C3.52622454 20.9392763 2.1775507 20.27421767 0 18 C-0.45410156 16.00708008 -0.45410156 16.00708008 -0.390625 13.76953125 C-0.37773437 12.96708984 -0.36484375 12.16464844 -0.3515625 11.33789062 C-0.31804687 10.50451172 -0.28453125 9.67113281 -0.25 8.8125 C-0.23195312 7.96751953 -0.21390625 7.12253906 -0.1953125 6.25195312 C-0.14820586 4.16748427 -0.07646233 2.08359856 0 0 Z " fill="#E2E2E2" transform="translate(140,105)"/>
<path d="M0 0 C1.8871875 0.37125 1.8871875 0.37125 3.8125 0.75 C4.17578125 3.41796875 4.17578125 3.41796875 3.8125 6.75 C1.89630728 8.83679176 0.22094126 10.37215481 -2 12.0625 C-2.88534424 12.77188721 -2.88534424 12.77188721 -3.78857422 13.49560547 C-4.99958091 14.46447592 -6.21641936 15.4261019 -7.43896484 16.38037109 C-9.9334615 18.3343122 -12.36998979 20.35665944 -14.8125 22.375 C-16.60374608 23.8338499 -18.39542356 25.29217024 -20.1875 26.75 C-22.25104879 28.43622162 -24.3129667 30.12442421 -26.375 31.8125 C-27.97916667 33.125 -29.58333333 34.4375 -31.1875 35.75 C-32.1775 35.09 -33.1675 34.43 -34.1875 33.75 C-32.7033627 30.26345524 -30.72535948 28.10808928 -28 25.5 C-25.16076046 22.72395498 -22.40558142 19.94497215 -19.8125 16.9375 C-19.255625 16.30199219 -18.69875 15.66648437 -18.125 15.01171875 C-17.05620057 13.7640678 -15.99382482 12.51045033 -14.9609375 11.23291016 C-5.84117625 -0.03679481 -5.84117625 -0.03679481 0 0 Z " fill="#FBF5F5" transform="translate(179.1875,28.25)"/>
<path d="M0 0 C7.09221667 -0.67326329 7.09221667 -0.67326329 11.16015625 2.34375 C12.14939874 3.37536723 13.11635814 4.42871554 14.0625 5.5 C14.57997803 6.05171875 15.09745605 6.6034375 15.63061523 7.171875 C17.11089413 8.76148608 18.55986557 10.37404177 20 12 C20.639375 12.7115625 21.27875 13.423125 21.9375 14.15625 C23.0129018 15.37641743 24.07823522 16.60553986 25.1328125 17.84375 C27.67722458 20.78206688 30.30673831 23.63904144 32.9375 26.5 C33.43515869 27.04140625 33.93281738 27.5828125 34.44555664 28.140625 C35.6296415 29.4277549 36.81471435 30.71397579 38 32 C37.34 32.99 36.68 33.98 36 35 C31.85587282 33.29958418 28.75613578 30.35855082 25.4375 27.4375 C24.18577076 26.34925324 22.93315637 25.26202381 21.6796875 24.17578125 C21.05932617 23.63775879 20.43896484 23.09973633 19.79980469 22.54541016 C17.25544335 20.36068318 14.66468209 18.24062449 12.0625 16.125 C10.75539063 15.05185547 10.75539063 15.05185547 9.421875 13.95703125 C7.89070921 12.71975051 6.3404941 11.50537057 4.765625 10.32421875 C0.09158485 6.70651167 0.09158485 6.70651167 -0.4375 2.625 C-0.293125 1.75875 -0.14875 0.8925 0 0 Z " fill="#FBF7F7" transform="translate(45,29)"/>
<path d="M0 0 C10.89 0 21.78 0 33 0 C33 8.91 33 17.82 33 27 C31.02 27 29.04 27 27 27 C27 19.41 27 11.82 27 4 C17.76 4 8.52 4 -1 4 C-0.67 2.68 -0.34 1.36 0 0 Z " fill="#EFEFEF" transform="translate(145,98)"/>
<path d="M0 0 C0.99 0.33 1.98 0.66 3 1 C3.03996094 1.64066406 3.07992187 2.28132812 3.12109375 2.94140625 C3.77054123 8.32139711 4.75243603 11.42845059 9.0625 14.875 C15.5631604 19.30963992 22.41064347 22.06229195 30 24 C29.01 26.64 28.02 29.28 27 32 C25.35 32 23.7 32 22 32 C21.34 30.02 20.68 28.04 20 26 C20.66 25.67 21.32 25.34 22 25 C19.58380177 24.74969023 19.58380177 24.74969023 17 25 C16.34 25.99 15.68 26.98 15 28 C16.32 28 17.64 28 19 28 C19 28.66 19 29.32 19 30 C17.35 29.67 15.7 29.34 14 29 C13.875 26.625 13.875 26.625 14 24 C14.66 23.34 15.32 22.68 16 22 C13.74832154 20.28184562 13.74832154 20.28184562 11 19 C8.6880353 19.19662521 8.6880353 19.19662521 7 21 C5.70079254 24.54588501 5.70079254 24.54588501 5 28 C4.67 27.01 4.34 26.02 4 25 C1.98491642 24.26676204 1.98491642 24.26676204 0 24 C0 23.01 0 22.02 0 21 C1.98 20.67 3.96 20.34 6 20 C6 19.34 6 18.68 6 18 C4.35 17.67 2.7 17.34 1 17 C1.33 16.34 1.66 15.68 2 15 C1.67 14.67 1.34 14.34 1 14 C1 13.34 1 12.68 1 12 C1.66 12 2.32 12 3 12 C2.34 10.68 1.68 9.36 1 8 C0.01 9.485 0.01 9.485 -1 11 C-2.32 10.67 -3.64 10.34 -5 10 C-5.33 11.32 -5.66 12.64 -6 14 C-6.9765625 7.9453125 -6.9765625 7.9453125 -7 6 C-6.34 5.34 -5.68 4.68 -5 4 C-4.566875 4.9590625 -4.566875 4.9590625 -4.125 5.9375 C-3.17176549 8.15206079 -3.17176549 8.15206079 -1 9 C-1 8.34 -1 7.68 -1 7 C-1.99 6.67 -2.98 6.34 -4 6 C-4 5.34 -4 4.68 -4 4 C-3.34 3.67 -2.68 3.34 -2 3 C-1.67 2.34 -1.34 1.68 -1 1 C-0.67 0.67 -0.34 0.34 0 0 Z " fill="#323232" transform="translate(69,153)"/>
<path d="M0 0 C0 3.63 0 7.26 0 11 C-3.70335843 13.13375871 -7.4135082 15.25542516 -11.125 17.375 C-12.17171875 17.97828125 -13.2184375 18.5815625 -14.296875 19.203125 C-15.31523437 19.78320312 -16.33359375 20.36328125 -17.3828125 20.9609375 C-18.31496582 21.49509277 -19.24711914 22.02924805 -20.20751953 22.57958984 C-23.08043628 24.04091435 -25.92151095 25.05857819 -29 26 C-29 24.68 -29 23.36 -29 22 C-26.99722122 20.12201442 -25.07809083 18.54772961 -22.875 16.9375 C-21.59730184 15.97182291 -20.31996923 15.00566201 -19.04296875 14.0390625 C-18.37958496 13.5430957 -17.71620117 13.04712891 -17.03271484 12.53613281 C-13.08211056 9.55064132 -9.22881447 6.43972547 -5.35693359 3.35327148 C-1.11056125 0 -1.11056125 0 0 0 Z " fill="#FCF7F7" transform="translate(182,45)"/>
<path d="M0 0 C3.3 0 6.6 0 10 0 C10.34780518 0.64026123 10.69561035 1.28052246 11.05395508 1.94018555 C12.63901911 4.85656606 14.22574316 7.7720402 15.8125 10.6875 C16.35970703 11.69490234 16.90691406 12.70230469 17.47070312 13.74023438 C18.00244141 14.71669922 18.53417969 15.69316406 19.08203125 16.69921875 C19.56905518 17.59471436 20.0560791 18.49020996 20.55786133 19.4128418 C21.55546416 21.20251459 22.60063292 22.9661901 23.68237305 24.70629883 C25 27 25 27 25 29 C23.68 29.33 22.36 29.66 21 30 C20.64808594 29.51233154 20.29617187 29.02466309 19.93359375 28.5222168 C18.88316482 27.06673507 17.83261731 25.61133892 16.78198242 24.15600586 C15.59178016 22.50726835 14.40183969 20.85834183 13.2121582 19.20922852 C10.60362141 15.59535159 7.99372757 11.98288319 5.35546875 8.390625 C4.64003906 7.41609375 3.92460938 6.4415625 3.1875 5.4375 C2.56230469 4.59058594 1.93710938 3.74367187 1.29296875 2.87109375 C0 1 0 1 0 0 Z " fill="#FCF6F6" transform="translate(66,29)"/>
<path d="M0 0 C6.6925502 4.33623394 13.08943004 8.98909621 19.4375 13.8125 C21.20594744 15.15377394 22.97542624 16.49368949 24.74609375 17.83203125 C25.51622803 18.41702393 26.2863623 19.0020166 27.07983398 19.60473633 C28.9476595 21.04215838 28.9476595 21.04215838 31 22 C30.67 22.99 30.34 23.98 30 25 C26.12572445 24.40472691 23.22730644 23.24082578 19.8046875 21.34765625 C18.84175781 20.81849609 17.87882812 20.28933594 16.88671875 19.74414062 C15.89285156 19.18919922 14.89898437 18.63425781 13.875 18.0625 C12.87339844 17.51142578 11.87179688 16.96035156 10.83984375 16.39257812 C7.14728524 14.35299715 3.51130695 12.3408713 0 10 C-0.41056513 6.66073694 -0.12910171 3.35664452 0 0 Z " fill="#F9F3F3" transform="translate(45,46)"/>
<path d="M0 0 C25.08 0 50.16 0 76 0 C75.67 0.66 75.34 1.32 75 2 C70.96789839 2.92655902 67.0791315 3.12619386 62.95385742 3.12939453 C61.78211472 3.13254669 60.61037201 3.13569885 59.40312195 3.13894653 C58.14989639 3.1369223 56.89667084 3.13489807 55.60546875 3.1328125 C53.65257683 3.13424759 53.65257683 3.13424759 51.66023254 3.13571167 C48.90913704 3.1371819 46.15807412 3.13505686 43.40698242 3.13037109 C39.90376007 3.12469112 36.40061464 3.12794609 32.89739513 3.13394356 C29.52924709 3.13845647 26.16111897 3.13528215 22.79296875 3.1328125 C21.54581589 3.13483673 20.29866302 3.13686096 19.01371765 3.13894653 C12.59016334 3.12180457 6.36731311 2.86059785 0 2 C0 1.34 0 0.68 0 0 Z " fill="#140204" transform="translate(67,27)"/>
<path d="M0 0 C2.01822917 0.06510417 4.03645833 0.13020833 6.0546875 0.1953125 C1.8655632 7.02476514 -2.55138339 13.70549683 -7.0703125 20.3203125 C-7.57272461 21.07884521 -8.07513672 21.83737793 -8.59277344 22.61889648 C-12.29561208 27.97048429 -12.29561208 27.97048429 -15.8125 29.1875 C-16.86824219 29.19136719 -16.86824219 29.19136719 -17.9453125 29.1953125 C-15.78230754 23.51933751 -12.85726045 18.32692497 -9.9453125 13.0078125 C-9.39875 11.99783203 -8.8521875 10.98785156 -8.2890625 9.94726562 C-7.763125 8.98369141 -7.2371875 8.02011719 -6.6953125 7.02734375 C-6.21578125 6.14796143 -5.73625 5.2685791 -5.2421875 4.36254883 C-2.79985287 0.28110973 -2.79985287 0.28110973 0 0 Z " fill="#FAF3F3" transform="translate(154.9453125,28.8046875)"/>
<path d="M0 0 C2.64 0 5.28 0 8 0 C16.4220415 17.74004487 16.4220415 17.74004487 16 26 C14.68 26 13.36 26 12 26 C9.99687083 21.85567137 7.99802094 17.70929346 6 13.5625 C5.42765625 12.37849609 4.8553125 11.19449219 4.265625 9.97460938 C3.45351562 8.28754883 3.45351562 8.28754883 2.625 6.56640625 C2.12226562 5.52427979 1.61953125 4.48215332 1.1015625 3.40844727 C0 1 0 1 0 0 Z " fill="#FBF0F1" transform="translate(83,29)"/>
<path d="M0 0 C1.134375 0.020625 2.26875 0.04125 3.4375 0.0625 C2.4874978 5.53169428 0.40802767 10.25343372 -1.8125 15.3125 C-2.19535156 16.23546875 -2.57820312 17.1584375 -2.97265625 18.109375 C-3.35808594 18.9859375 -3.74351562 19.8625 -4.140625 20.765625 C-4.48512695 21.56645508 -4.82962891 22.36728516 -5.18457031 23.19238281 C-6.5625 25.0625 -6.5625 25.0625 -9.21386719 25.83105469 C-10.37644043 25.94562012 -10.37644043 25.94562012 -11.5625 26.0625 C-10.39231326 20.1051857 -8.80180991 14.35407791 -7 8.5625 C-6.66705933 7.48452148 -6.66705933 7.48452148 -6.32739258 6.38476562 C-4.33744484 0.07609552 -4.33744484 0.07609552 0 0 Z " fill="#FCF0F0" transform="translate(139.5625,28.9375)"/>
<path d="M0 0 C6.39296661 1.99332068 12.47046394 4.41474614 18.5625 7.1875 C19.38041016 7.55552734 20.19832031 7.92355469 21.04101562 8.30273438 C23.02909218 9.19795013 25.01480308 10.0984165 27 11 C27 12.32 27 13.64 27 15 C1.85385878 8.85385878 1.85385878 8.85385878 0 7 C-0.04092937 4.66702567 -0.04241723 2.33294775 0 0 Z " fill="#F8EDED" transform="translate(45,65)"/>
<path d="M0 0 C1.98 0 3.96 0 6 0 C6 8.58 6 17.16 6 26 C4.02 26 2.04 26 0 26 C0 17.42 0 8.84 0 0 Z " fill="#F8F8F8" transform="translate(129,99)"/>
<path d="M0 0 C2.31 0 4.62 0 7 0 C6.03644647 16.8929385 6.03644647 16.8929385 5 24 C3.35 24 1.7 24 0 24 C0 16.08 0 8.16 0 0 Z " fill="#FBEDED" transform="translate(117,29)"/>
<path d="M0 0 C0 2.97 0 5.94 0 9 C-8.25 9 -16.5 9 -25 9 C-24.67 8.01 -24.34 7.02 -24 6 C-21.89868164 5.10864258 -21.89868164 5.10864258 -19.16015625 4.39453125 C-18.17982422 4.13349609 -17.19949219 3.87246094 -16.18945312 3.60351562 C-15.15755859 3.34248047 -14.12566406 3.08144531 -13.0625 2.8125 C-12.03447266 2.53986328 -11.00644531 2.26722656 -9.94726562 1.98632812 C-2.36536654 0 -2.36536654 0 0 0 Z " fill="#FCF5F5" transform="translate(182,77)"/>
<path d="M0 0 C5.94650633 0.64784186 11.67387483 1.71983435 17.5 3.0625 C18.73363281 3.3419043 18.73363281 3.3419043 19.9921875 3.62695312 C21.9955717 4.08120885 23.9979003 4.54011599 26 5 C26 5.99 26 6.98 26 8 C17.42 8 8.84 8 0 8 C0 5.36 0 2.72 0 0 Z " fill="#F8EAEA" transform="translate(45,78)"/>
<path d="M0 0 C2.31 0 4.62 0 7 0 C7 7.92 7 15.84 7 24 C5.35 24 3.7 24 2 24 C1.34 16.08 0.68 8.16 0 0 Z " fill="#FCF7F8" transform="translate(103,29)"/>
<path d="M0 0 C0 1.98 0 3.96 0 6 C-3.57569376 7.53926208 -7.16159808 9.05312844 -10.75 10.5625 C-11.76578125 11.00013672 -12.7815625 11.43777344 -13.828125 11.88867188 C-14.8078125 12.29794922 -15.7875 12.70722656 -16.796875 13.12890625 C-18.14797363 13.70233765 -18.14797363 13.70233765 -19.52636719 14.28735352 C-22.18091325 15.05212059 -23.44300584 14.94191316 -26 14 C-25 11 -25 11 -22.69921875 9.6496582 C-21.20841797 8.98196411 -21.20841797 8.98196411 -19.6875 8.30078125 C-18.61242187 7.81416016 -17.53734375 7.32753906 -16.4296875 6.82617188 C-15.29789063 6.32666016 -14.16609375 5.82714844 -13 5.3125 C-11.86820313 4.80138672 -10.73640625 4.29027344 -9.5703125 3.76367188 C-1.18873081 0 -1.18873081 0 0 0 Z " fill="#FBF2F2" transform="translate(182,64)"/>
<path d="M0 0 C3 2 3 2 3.73046875 4.1640625 C3.88128906 4.97617188 4.03210938 5.78828125 4.1875 6.625 C4.34605469 7.44226563 4.50460938 8.25953125 4.66796875 9.1015625 C4.77753906 9.72804687 4.88710937 10.35453125 5 11 C2.7522025 8.94766315 1.9977758 7.99332739 1 5 C0.01 5 -0.98 5 -2 5 C-1.67 6.32 -1.34 7.64 -1 9 C-1.99 9 -2.98 9 -4 9 C-4.33 9.99 -4.66 10.98 -5 12 C-7.31 11.01 -9.62 10.02 -12 9 C-11.01 8.01 -10.02 7.02 -9 6 C-11.31 6.66 -13.62 7.32 -16 8 C-16.33 9.32 -16.66 10.64 -17 12 C-15.68 11.67 -14.36 11.34 -13 11 C-13.33 11.99 -13.66 12.98 -14 14 C-15.32 13.67 -16.64 13.34 -18 13 C-18.86296159 10.17576206 -19.29422633 8.63590852 -18.03125 5.90625 C-15.03156155 3.09115776 -11.74295573 3.07954039 -7.8125 2.75 C-7.06291016 2.67265625 -6.31332031 2.5953125 -5.54101562 2.515625 C-3.69558903 2.32755605 -1.8479313 2.16161424 0 2 C0 1.34 0 0.68 0 0 Z " fill="#0F0F0F" transform="translate(136,174)"/>
<path d="M0 0 C2.51587701 1.2579385 4.04849462 2.98751008 6 5 C6.66 5.66 7.32 6.32 8 7 C5.03 6.505 5.03 6.505 2 6 C1.67 7.65 1.34 9.3 1 11 C-0.32 10.67 -1.64 10.34 -3 10 C-3 12.76223278 -1.68574837 13.89281454 0 16 C-0.99 16 -1.98 16 -3 16 C-3.474375 15.360625 -3.94875 14.72125 -4.4375 14.0625 C-6.22490611 11.70312394 -7.13667247 11.39494173 -10 11 C-10.375 8.75 -10.375 8.75 -10 6 C-7.25 3.8125 -7.25 3.8125 -4 2 C-3.2575 1.566875 -2.515 1.13375 -1.75 0.6875 C-0.88375 0.3471875 -0.88375 0.3471875 0 0 Z " fill="#4B4B4B" transform="translate(158,159)"/>
<path d="M0 0 C0.99 0.33 1.98 0.66 3 1 C4.61729417 4.67566856 4.06546005 9.07239675 4 13 C2 10 2 10 1 8 C0.01 9.485 0.01 9.485 -1 11 C-2.32 10.67 -3.64 10.34 -5 10 C-5.33 11.32 -5.66 12.64 -6 14 C-6.9765625 7.9453125 -6.9765625 7.9453125 -7 6 C-6.34 5.34 -5.68 4.68 -5 4 C-4.566875 4.9590625 -4.566875 4.9590625 -4.125 5.9375 C-3.17176549 8.15206079 -3.17176549 8.15206079 -1 9 C-1 8.34 -1 7.68 -1 7 C-1.99 6.67 -2.98 6.34 -4 6 C-4 5.34 -4 4.68 -4 4 C-3.34 3.67 -2.68 3.34 -2 3 C-1.67 2.34 -1.34 1.68 -1 1 C-0.67 0.67 -0.34 0.34 0 0 Z " fill="#454545" transform="translate(69,153)"/>
<path d="M0 0 C2.31 0 4.62 0 7 0 C7.33 0.99 7.66 1.98 8 3 C9.93330603 4.09166275 9.93330603 4.09166275 12 5 C12.66 5.66 13.32 6.32 14 7 C9.38 7 4.76 7 0 7 C0 4.69 0 2.38 0 0 Z " fill="#292929" transform="translate(109,101)"/>
<path d="M0 0 C3.3 0 6.6 0 10 0 C10.33 0.66 10.66 1.32 11 2 C10.34 2 9.68 2 9 2 C9 4.64 9 7.28 9 10 C8.34 10 7.68 10 7 10 C6.67 8.35 6.34 6.7 6 5 C4.02 5.99 4.02 5.99 2 7 C1.67 6.34 1.34 5.68 1 5 C1.33 4.67 1.66 4.34 2 4 C1.01 4 0.02 4 -1 4 C-0.67 2.68 -0.34 1.36 0 0 Z " fill="#3B3B3B" transform="translate(100,178)"/>
<path d="M0 0 C-0.99 2.64 -1.98 5.28 -3 8 C-4.65 8 -6.3 8 -8 8 C-8.66 6.02 -9.32 4.04 -10 2 C-9.34 1.67 -8.68 1.34 -8 1 C-9.32 0.34 -10.64 -0.32 -12 -1 C-7.47907032 -2.45606519 -4.48351204 -1.27032841 0 0 Z " fill="#585858" transform="translate(99,177)"/>
<path d="M0 0 C0.86625 0.37125 0.86625 0.37125 1.75 0.75 C0.875 5.5 0.875 5.5 -0.25 7.75 C-1.9 7.75 -3.55 7.75 -5.25 7.75 C-5.58 8.41 -5.91 9.07 -6.25 9.75 C-6.58102914 6.1086795 -6.67019439 4.33527075 -4.5 1.3125 C-2.25 -0.25 -2.25 -0.25 0 0 Z " fill="#ACACAC" transform="translate(80.25,171.25)"/>
<path d="M0 0 C4.49797113 1.68673918 8.72886302 3.81673892 13 6 C12.37609375 6.28617188 11.7521875 6.57234375 11.109375 6.8671875 C8.63533198 8.19584023 7.54215535 9.68676698 6 12 C7.32 12 8.64 12 10 12 C10 12.66 10 13.32 10 14 C8.35 13.67 6.7 13.34 5 13 C4.875 10.625 4.875 10.625 5 8 C5.66 7.34 6.32 6.68 7 6 C3.535 4.02 3.535 4.02 0 2 C0 1.34 0 0.68 0 0 Z " fill="#252525" transform="translate(78,169)"/>
<path d="M0 0 C-2.76223278 2.76223278 -5.20706617 2.57856291 -9 3 C-9.66 4.65 -10.32 6.3 -11 8 C-9.68 7.67 -8.36 7.34 -7 7 C-7.33 7.99 -7.66 8.98 -8 10 C-9.32 9.67 -10.64 9.34 -12 9 C-12.89063845 6.08518324 -13.25805827 4.5806311 -12 1.75 C-8.41231009 -1.38922867 -4.388012 -1.46267067 0 0 Z " fill="#3E3E3E" transform="translate(130,178)"/>
<path d="M0 0 C3.63 0 7.26 0 11 0 C8.05321567 2.94678433 5.75906182 4.32041919 2 6 C1.34 6 0.68 6 0 6 C0 4.02 0 2.04 0 0 Z " fill="#050505" transform="translate(65,102)"/>
<path d="M0 0 C1.65 1.65 3.3 3.3 5 5 C5 4.34 5 3.68 5 3 C4.01 2.67 3.02 2.34 2 2 C2 1.34 2 0.68 2 0 C3.32 0.66 4.64 1.32 6 2 C5.67 3.65 5.34 5.3 5 7 C3.68 6.67 2.36 6.34 1 6 C0.67 7.32 0.34 8.64 0 10 C-1.125 2.25 -1.125 2.25 0 0 Z " fill="#0D0D0D" transform="translate(63,157)"/>
<path d="M0 0 C1.67542976 0.28604898 3.34385343 0.61781233 5 1 C4.67 2.32 4.34 3.64 4 5 C2.68 5.33 1.36 5.66 0 6 C-0.38218767 4.34385343 -0.71395102 2.67542976 -1 1 C-0.67 0.67 -0.34 0.34 0 0 Z " fill="#0E0E0E" transform="translate(59,145)"/>
<path d="M0 0 C1.65 0 3.3 0 5 0 C4.67 1.65 4.34 3.3 4 5 C2.35 4.67 0.7 4.34 -1 4 C-0.67 2.68 -0.34 1.36 0 0 Z " fill="#040404" transform="translate(167,144)"/>
<path d="M0 0 C0 0.99 0 1.98 0 3 C-0.99 3 -1.98 3 -3 3 C-3.33 3.99 -3.66 4.98 -4 6 C-4.66 5.67 -5.32 5.34 -6 5 C-6 4.34 -6 3.68 -6 3 C-6.66 2.67 -7.32 2.34 -8 2 C-4.91190305 0.23537317 -3.76687864 0 0 0 Z " fill="#676767" transform="translate(135,180)"/>
<path d="M0 0 C3 2 3 2 3.73046875 4.1640625 C3.88128906 4.97617188 4.03210938 5.78828125 4.1875 6.625 C4.34605469 7.44226563 4.50460938 8.25953125 4.66796875 9.1015625 C4.83232422 10.04128906 4.83232422 10.04128906 5 11 C2.7522025 8.94766315 1.9977758 7.99332739 1 5 C0.01 4.67 -0.98 4.34 -2 4 C-2 3.34 -2 2.68 -2 2 C-1.34 2 -0.68 2 0 2 C0 1.34 0 0.68 0 0 Z " fill="#2B2B2B" transform="translate(136,174)"/>
<path d="M0 0 C2.31 0 4.62 0 7 0 C6.01 0.495 6.01 0.495 5 1 C4.67 1.66 4.34 2.32 4 3 C1.4375 3.625 1.4375 3.625 -1 4 C-0.67 2.68 -0.34 1.36 0 0 Z " fill="#111111" transform="translate(100,178)"/>
<path d="M0 0 C1.65 0 3.3 0 5 0 C4.67 1.98 4.34 3.96 4 6 C3.01 5.67 2.02 5.34 1 5 C0.67 3.35 0.34 1.7 0 0 Z " fill="#393939" transform="translate(89,179)"/>
<path d="M0 0 C1.32 0 2.64 0 4 0 C3.67 1.32 3.34 2.64 3 4 C1.68 4 0.36 4 -1 4 C-0.67 2.68 -0.34 1.36 0 0 Z " fill="#3C3C3C" transform="translate(144,178)"/>
<path d="M0 0 C1.65 0 3.3 0 5 0 C5 0.99 5 1.98 5 3 C3.68 3.33 2.36 3.66 1 4 C0.67 2.68 0.34 1.36 0 0 Z " fill="#444444" transform="translate(141,174)"/>
<path d="M0 0 C0.99 0.33 1.98 0.66 3 1 C2.67 2.32 2.34 3.64 2 5 C1.01 5 0.02 5 -1 5 C-0.67 3.35 -0.34 1.7 0 0 Z " fill="#393939" transform="translate(161,154)"/>
</svg>
