<?xml version="1.0" encoding="UTF-8"?>
<svg version="1.1" xmlns="http://www.w3.org/2000/svg" width="250" height="213">
<path d="M0 0 C1.79613921 0.07237191 3.59076094 0.20262604 5.37890625 0.38671875 C6.30123047 0.43634766 7.22355469 0.48597656 8.17382812 0.53710938 C10.43796961 0.66615371 12.68547856 0.84591184 14.94140625 1.07421875 C13.54417515 4.77235231 11.8757593 8.17017873 9.95703125 11.625 C9.35882568 12.70346191 8.76062012 13.78192383 8.14428711 14.89306641 C7.49355973 16.05774735 6.84259322 17.22229471 6.19140625 18.38671875 C5.85916046 18.98313171 5.52691467 19.57954468 5.18460083 20.19403076 C-0.04607502 29.58229518 -5.41052433 38.88634368 -10.85644531 48.15161133 C-15.01596547 55.24255274 -19.06141051 62.39065689 -23.05859375 69.57421875 C-28.22727851 78.86306915 -33.50884853 88.07711371 -38.9140625 97.23046875 C-44.13120708 106.09578778 -49.05600994 115.0695679 -54.05859375 124.07421875 C-24.35859375 124.07421875 5.34140625 124.07421875 35.94140625 124.07421875 C39.90140625 131.00421875 39.90140625 131.00421875 43.94140625 138.07421875 C43.10689016 133.90163832 42.30868569 131.52086179 40.37890625 127.88671875 C37.94140625 123.28101762 37.94140625 123.28101762 37.94140625 121.07421875 C34.97140625 121.07421875 32.00140625 121.07421875 28.94140625 121.07421875 C27.95140625 116.61921875 27.95140625 116.61921875 26.94140625 112.07421875 C20.67140625 112.40421875 14.40140625 112.73421875 7.94140625 113.07421875 C6.95140625 115.71421875 5.96140625 118.35421875 4.94140625 121.07421875 C-1.65859375 121.07421875 -8.25859375 121.07421875 -15.05859375 121.07421875 C-12.97959894 113.87700676 -10.58777522 106.88244064 -7.93359375 99.87890625 C-7.5454248 98.84661896 -7.15725586 97.81433167 -6.75732422 96.75076294 C-5.52752706 93.48239898 -4.29315597 90.21578537 -3.05859375 86.94921875 C-2.23016221 84.75011545 -1.40203451 82.55089767 -0.57421875 80.3515625 C1.28127333 75.42340127 3.13892696 70.49606779 5.00196838 65.570755 C5.60760593 63.96128604 6.20820626 62.34990817 6.80259705 60.73625183 C8.38336823 56.44901108 10.18007521 52.57669146 12.50390625 48.63671875 C13.40302734 47.09177734 13.40302734 47.09177734 14.3203125 45.515625 C15.94140625 43.07421875 15.94140625 43.07421875 17.94140625 42.07421875 C18.41336426 42.96802246 18.88532227 43.86182617 19.37158203 44.78271484 C31.184894 67.15078552 31.184894 67.15078552 43.12890625 89.44921875 C43.67708008 90.46612793 44.22525391 91.48303711 44.79003906 92.53076172 C47.18938487 96.97957795 49.59074911 101.42728745 51.99755859 105.87207031 C53.76538513 109.13719929 55.52908828 112.40452857 57.29043579 115.67315674 C57.96985995 116.93208915 58.65080938 118.19019969 59.33334351 119.44744873 C60.276797 121.18557196 61.2147086 122.92669991 62.15234375 124.66796875 C62.96131104 126.16360352 62.96131104 126.16360352 63.78662109 127.68945312 C64.94140625 130.07421875 64.94140625 130.07421875 64.94140625 132.07421875 C65.93140625 131.74421875 66.92140625 131.41421875 67.94140625 131.07421875 C62.17054969 119.91289971 56.36863236 108.77352499 50.31640625 97.76171875 C43.11118998 84.64612605 36.14931256 71.40210301 29.16433716 58.16844177 C25.44478749 51.12560083 21.69543561 44.09872697 17.94140625 37.07421875 C15.40507071 40.23998894 13.56477199 43.53282356 11.71875 47.140625 C11.41726044 47.7269722 11.11577087 48.3133194 10.80514526 48.91743469 C10.16077095 50.1715663 9.51805541 51.42655136 8.87686157 52.68231201 C7.52732588 55.32525763 6.16979268 57.96406529 4.81260681 60.60308838 C4.1337076 61.92331636 3.45520921 63.24375053 2.77711487 64.56439209 C0.13430318 69.70946159 -2.54253228 74.83578962 -5.24609375 79.94921875 C-7.89827511 84.96798764 -10.53983742 89.9918442 -13.16015625 95.02734375 C-13.69358643 96.05230957 -14.2270166 97.07727539 -14.77661133 98.13330078 C-15.80613657 100.11290236 -16.83468998 102.0930098 -17.86206055 104.07373047 C-18.33554932 104.98396973 -18.80903809 105.89420898 -19.296875 106.83203125 C-19.70977783 107.62754395 -20.12268066 108.42305664 -20.5480957 109.24267578 C-22.66682464 113.21439362 -24.87246926 117.13919466 -27.05859375 121.07421875 C-34.31859375 121.07421875 -41.57859375 121.07421875 -49.05859375 121.07421875 C-45.07214425 112.76911563 -40.6695674 104.80256539 -36.07275391 96.82446289 C-31.8743602 89.52846607 -27.76276171 82.18748048 -23.68359375 74.82421875 C-17.66879555 63.97103032 -11.62420213 53.13517636 -5.5546875 42.3125 C-3.12476461 37.97958406 -0.70108196 33.64324687 1.71875 29.3046875 C2.34193115 28.18852051 2.9651123 27.07235352 3.60717773 25.92236328 C4.78890791 23.80553582 5.96949819 21.6880714 7.14868164 19.56982422 C8.73458696 16.73114123 10.33308434 13.90025586 11.94140625 11.07421875 C12.49183594 10.10339355 13.04226562 9.13256836 13.609375 8.13232422 C14.40794922 6.75584717 14.40794922 6.75584717 15.22265625 5.3515625 C15.69767578 4.527771 16.17269531 3.70397949 16.66210938 2.85522461 C17.29536133 1.97362671 17.29536133 1.97362671 17.94140625 1.07421875 C18.60140625 1.07421875 19.26140625 1.07421875 19.94140625 1.07421875 C21.36410961 3.71638214 22.78680589 6.35854933 24.20947266 9.00073242 C25.45903094 11.32127025 26.70870756 13.64174437 27.95849609 15.9621582 C30.93653575 21.49153626 33.91379959 27.02132248 36.88601685 32.55383301 C37.83632641 34.32266156 38.78705716 36.0912638 39.73779297 37.85986328 C40.93286019 40.08310316 42.12722625 42.30672011 43.32080078 44.53076172 C45.60761057 48.78346095 47.89319412 53.02433588 50.33984375 57.1875 C51.94140625 60.07421875 51.94140625 60.07421875 51.94140625 62.07421875 C68.11140625 62.07421875 84.28140625 62.07421875 100.94140625 62.07421875 C100.94140625 67.35421875 100.94140625 72.63421875 100.94140625 78.07421875 C94.67140625 78.07421875 88.40140625 78.07421875 81.94140625 78.07421875 C81.94654184 83.5718723 81.97014825 89.06342444 82.0390625 94.55981445 C82.05710047 96.4246511 82.06481341 98.28962003 82.06152344 100.15454102 C82.04947832 111.39564761 82.40706354 119.51914276 88.94140625 129.07421875 C88.94140625 129.73421875 88.94140625 130.39421875 88.94140625 131.07421875 C90.13765625 131.01234375 91.33390625 130.95046875 92.56640625 130.88671875 C96.69855153 130.88671875 99.41928803 131.80999989 102.94140625 134.07421875 C104.94140625 137.07421875 104.94140625 137.07421875 104.94140625 141.07421875 C101.97140625 141.40421875 99.00140625 141.73421875 95.94140625 142.07421875 C95.94140625 142.73421875 95.94140625 143.39421875 95.94140625 144.07421875 C99.24140625 144.07421875 102.54140625 144.07421875 105.94140625 144.07421875 C105.94140625 148.36421875 105.94140625 152.65421875 105.94140625 157.07421875 C100.76889133 160.4148013 97.11052516 161.7657628 90.94140625 162.07421875 C89.95140625 161.74421875 88.96140625 161.41421875 87.94140625 161.07421875 C87.61140625 162.06421875 87.28140625 163.05421875 86.94140625 164.07421875 C84.96140625 162.42421875 82.98140625 160.77421875 80.94140625 159.07421875 C81.27140625 160.72421875 81.60140625 162.37421875 81.94140625 164.07421875 C29.47140625 164.07421875 -22.99859375 164.07421875 -77.05859375 164.07421875 C-86.05859375 148.07421875 -86.05859375 148.07421875 -86.05859375 146.07421875 C-62.62859375 146.07421875 -39.19859375 146.07421875 -15.05859375 146.07421875 C-15.05859375 144.75421875 -15.05859375 143.43421875 -15.05859375 142.07421875 C-38.15859375 142.07421875 -61.25859375 142.07421875 -85.05859375 142.07421875 C-83.55294978 138.31010882 -82.02658006 135.03881811 -80.07421875 131.5234375 C-79.47601318 130.44497559 -78.87780762 129.36651367 -78.26147461 128.25537109 C-77.61074723 127.09069015 -76.95978072 125.92614279 -76.30859375 124.76171875 C-75.97634796 124.16530579 -75.64410217 123.56889282 -75.30178833 122.95440674 C-70.07111248 113.56614232 -64.70666317 104.26209382 -59.26074219 94.99682617 C-55.10122144 87.90588377 -51.05582181 80.7577561 -47.05859375 73.57421875 C-41.92761426 64.3543446 -36.66956503 55.2192228 -31.32397461 46.12231445 C-26.40140447 37.72165359 -21.63734047 29.23720495 -16.93945312 20.70898438 C-15.86844333 18.77653812 -14.78306209 16.85197607 -13.68237305 14.9362793 C-12.56051559 12.95890222 -11.48916414 10.95231978 -10.46020508 8.92504883 C-5.84294639 0.47105672 -5.84294639 0.47105672 0 0 Z M60.94140625 78.07421875 C61.93140625 79.55921875 61.93140625 79.55921875 62.94140625 81.07421875 C62.94140625 80.08421875 62.94140625 79.09421875 62.94140625 78.07421875 C62.28140625 78.07421875 61.62140625 78.07421875 60.94140625 78.07421875 Z M16.94140625 82.07421875 C14.86005318 87.37220839 13.22849012 92.52985746 11.94140625 98.07421875 C15.24140625 98.07421875 18.54140625 98.07421875 21.94140625 98.07421875 C20.77813166 92.67330101 19.51844769 87.36857216 17.94140625 82.07421875 C17.61140625 82.07421875 17.28140625 82.07421875 16.94140625 82.07421875 Z M72.94140625 140.07421875 C72.47618332 144.86730217 72.47618332 144.86730217 74.44140625 149.01171875 C74.93640625 149.36234375 75.43140625 149.71296875 75.94140625 150.07421875 C76.2463611 145.64757311 76.2463611 145.64757311 74.44140625 141.69921875 C73.94640625 141.16296875 73.45140625 140.62671875 72.94140625 140.07421875 Z M9.94140625 142.07421875 C9.28140625 143.39421875 8.62140625 144.71421875 7.94140625 146.07421875 C10.91140625 146.07421875 13.88140625 146.07421875 16.94140625 146.07421875 C17.27140625 144.75421875 17.60140625 143.43421875 17.94140625 142.07421875 C15.30140625 142.07421875 12.66140625 142.07421875 9.94140625 142.07421875 Z M36.94140625 142.07421875 C37.27140625 143.39421875 37.60140625 144.71421875 37.94140625 146.07421875 C40.25140625 146.07421875 42.56140625 146.07421875 44.94140625 146.07421875 C44.94140625 144.75421875 44.94140625 143.43421875 44.94140625 142.07421875 C42.30140625 142.07421875 39.66140625 142.07421875 36.94140625 142.07421875 Z M26.94140625 143.07421875 C26.61140625 144.06421875 26.28140625 145.05421875 25.94140625 146.07421875 C26.60140625 146.07421875 27.26140625 146.07421875 27.94140625 146.07421875 C27.61140625 145.08421875 27.28140625 144.09421875 26.94140625 143.07421875 Z M93.94140625 151.07421875 C93.94140625 152.06421875 93.94140625 153.05421875 93.94140625 154.07421875 C94.93140625 153.08421875 95.92140625 152.09421875 96.94140625 151.07421875 C95.95140625 151.07421875 94.96140625 151.07421875 93.94140625 151.07421875 Z " fill="#1D0E4E" transform="translate(86.05859375,-1.07421875)"/>
<path d="M0 0 C1.79613921 0.07237191 3.59076094 0.20262604 5.37890625 0.38671875 C6.30123047 0.43634766 7.22355469 0.48597656 8.17382812 0.53710938 C10.43796961 0.66615371 12.68547856 0.84591184 14.94140625 1.07421875 C13.54417515 4.77235231 11.8757593 8.17017873 9.95703125 11.625 C9.35882568 12.70346191 8.76062012 13.78192383 8.14428711 14.89306641 C7.49355973 16.05774735 6.84259322 17.22229471 6.19140625 18.38671875 C5.85916046 18.98313171 5.52691467 19.57954468 5.18460083 20.19403076 C-0.04607502 29.58229518 -5.41052433 38.88634368 -10.85644531 48.15161133 C-15.01596547 55.24255274 -19.06141051 62.39065689 -23.05859375 69.57421875 C-28.22727851 78.86306915 -33.50884853 88.07711371 -38.9140625 97.23046875 C-44.13120708 106.09578778 -49.05600994 115.0695679 -54.05859375 124.07421875 C-24.35859375 124.07421875 5.34140625 124.07421875 35.94140625 124.07421875 C44.94140625 140.07421875 44.94140625 140.07421875 44.94140625 142.07421875 C41.97140625 142.07421875 39.00140625 142.07421875 35.94140625 142.07421875 C37.92140625 148.01421875 39.90140625 153.95421875 41.94140625 160.07421875 C39.30140625 160.07421875 36.66140625 160.07421875 33.94140625 160.07421875 C33.71710938 159.4296875 33.4928125 158.78515625 33.26171875 158.12109375 C32.11251169 155.83033023 32.11251169 155.83033023 29.55859375 155.46484375 C28.65367188 155.4184375 27.74875 155.37203125 26.81640625 155.32421875 C25.90632813 155.2675 24.99625 155.21078125 24.05859375 155.15234375 C23.35992187 155.1265625 22.66125 155.10078125 21.94140625 155.07421875 C21.61140625 156.72421875 21.28140625 158.37421875 20.94140625 160.07421875 C18.30140625 160.07421875 15.66140625 160.07421875 12.94140625 160.07421875 C13.79043827 156.20965921 15.15720374 152.53613827 16.50390625 148.82421875 C16.85485352 147.8496875 16.85485352 147.8496875 17.21289062 146.85546875 C17.78733412 145.26109497 18.36413555 143.66757108 18.94140625 142.07421875 C17.52390062 142.18931536 16.10739456 142.31675533 14.69140625 142.44921875 C13.50804688 142.55363281 13.50804688 142.55363281 12.30078125 142.66015625 C9.85552925 143.08928988 8.09303722 143.86022513 5.94140625 145.07421875 C6.60140625 145.40421875 7.26140625 145.73421875 7.94140625 146.07421875 C10.23992123 148.37273373 10.28123535 148.94875002 10.37890625 152.07421875 C10.24416044 154.69694975 10.12102332 155.80906973 8.62890625 158.01171875 C5.65923096 159.8815143 3.12462018 160.19608552 -0.2890625 160.171875 C-1.09150391 160.16865234 -1.89394531 160.16542969 -2.72070312 160.16210938 C-3.55408203 160.15373047 -4.38746094 160.14535156 -5.24609375 160.13671875 C-6.51356445 160.12995117 -6.51356445 160.12995117 -7.80664062 160.12304688 C-9.8906553 160.11127278 -11.97463352 160.09333765 -14.05859375 160.07421875 C-14.05073853 158.85520874 -14.05073853 158.85520874 -14.04272461 157.61157227 C-14.02202381 153.95329553 -14.00895572 150.29503108 -13.99609375 146.63671875 C-13.98352539 144.71762695 -13.98352539 144.71762695 -13.97070312 142.75976562 C-13.96586914 140.93735352 -13.96586914 140.93735352 -13.9609375 139.078125 C-13.95308228 137.38925171 -13.95308228 137.38925171 -13.94506836 135.66625977 C-13.76313927 133.14451004 -13.76313927 133.14451004 -15.05859375 132.07421875 C-15.05859375 135.37421875 -15.05859375 138.67421875 -15.05859375 142.07421875 C-38.15859375 142.07421875 -61.25859375 142.07421875 -85.05859375 142.07421875 C-83.55294978 138.31010882 -82.02658006 135.03881811 -80.07421875 131.5234375 C-79.47601318 130.44497559 -78.87780762 129.36651367 -78.26147461 128.25537109 C-77.61074723 127.09069015 -76.95978072 125.92614279 -76.30859375 124.76171875 C-75.97634796 124.16530579 -75.64410217 123.56889282 -75.30178833 122.95440674 C-70.07111248 113.56614232 -64.70666317 104.26209382 -59.26074219 94.99682617 C-55.10122144 87.90588377 -51.05582181 80.7577561 -47.05859375 73.57421875 C-41.92761426 64.3543446 -36.66956503 55.2192228 -31.32397461 46.12231445 C-26.40140447 37.72165359 -21.63734047 29.23720495 -16.93945312 20.70898438 C-15.86844333 18.77653812 -14.78306209 16.85197607 -13.68237305 14.9362793 C-12.56051559 12.95890222 -11.48916414 10.95231978 -10.46020508 8.92504883 C-5.84294639 0.47105672 -5.84294639 0.47105672 0 0 Z M26.94140625 143.07421875 C26.61140625 144.06421875 26.28140625 145.05421875 25.94140625 146.07421875 C26.60140625 146.07421875 27.26140625 146.07421875 27.94140625 146.07421875 C27.61140625 145.08421875 27.28140625 144.09421875 26.94140625 143.07421875 Z " fill="#ED1B29" transform="translate(86.05859375,-1.07421875)"/>
<path d="M0 0 C0.66 0 1.32 0 2 0 C3.42270336 2.64216339 4.84539964 5.28433058 6.26806641 7.92651367 C7.51762469 10.2470515 8.76730131 12.56752562 10.01708984 14.88793945 C12.9951295 20.41731751 15.97239334 25.94710373 18.9446106 31.47961426 C19.89492016 33.24844281 20.84565091 35.01704505 21.79638672 36.78564453 C22.99145394 39.00888441 24.18582 41.23250136 25.37939453 43.45654297 C27.66620432 47.7092422 29.95178787 51.95011713 32.3984375 56.11328125 C34 59 34 59 34 61 C31.69 61 29.38 61 27 61 C27 66.28 27 71.56 27 77 C32.17601141 76.8814423 32.17601141 76.8814423 37.35107422 76.72973633 C39.236076 76.70782866 41.12076763 76.85101223 43 77 C45.62202981 80.93304472 45.25148527 84.26625069 45.1953125 88.82421875 C45.1924826 89.68561966 45.18965271 90.54702057 45.18673706 91.43452454 C45.17554237 94.18565769 45.15043921 96.93646525 45.125 99.6875 C45.11496927 101.55272967 45.10584359 103.41796445 45.09765625 105.28320312 C45.07560538 109.8555942 45.04108049 114.42774189 45 119 C42.82798707 116.23734159 41.10358376 113.47810505 39.50390625 110.3515625 C39.03452637 109.44108154 38.56514648 108.53060059 38.08154297 107.5925293 C37.58025879 106.61324463 37.07897461 105.63395996 36.5625 104.625 C32.58674667 96.92927522 28.55128526 89.27626614 24.375 81.6875 C16.06045008 66.56029143 8.05216133 51.2679091 0 36 C-2.53633554 39.16577019 -4.37663426 42.45860481 -6.22265625 46.06640625 C-6.52414581 46.65275345 -6.82563538 47.23910065 -7.13626099 47.84321594 C-7.7806353 49.09734755 -8.42335084 50.35233261 -9.06454468 51.60809326 C-10.41408037 54.25103888 -11.77161357 56.88984654 -13.12879944 59.52886963 C-13.80769865 60.84909761 -14.48619704 62.16953178 -15.16429138 63.49017334 C-17.80710307 68.63524284 -20.48393853 73.76157087 -23.1875 78.875 C-25.83968136 83.89376889 -28.48124367 88.91762545 -31.1015625 93.953125 C-31.63499268 94.97809082 -32.16842285 96.00305664 -32.71801758 97.05908203 C-33.74754282 99.03868361 -34.77609623 101.01879105 -35.8034668 102.99951172 C-36.27695557 103.90975098 -36.75044434 104.81999023 -37.23828125 105.7578125 C-37.65118408 106.5533252 -38.06408691 107.34883789 -38.48950195 108.16845703 C-40.60823089 112.14017487 -42.81387551 116.06497591 -45 120 C-52.26 120 -59.52 120 -67 120 C-63.0135505 111.69489688 -58.61097365 103.72834664 -54.01416016 95.75024414 C-49.81576645 88.45424732 -45.70416796 81.11326173 -41.625 73.75 C-35.6102018 62.89681157 -29.56560838 52.06095761 -23.49609375 41.23828125 C-21.06617086 36.90536531 -18.64248821 32.56902812 -16.22265625 28.23046875 C-15.5994751 27.11430176 -14.97629395 25.99813477 -14.33422852 24.84814453 C-13.15249834 22.73131707 -11.97190806 20.61385265 -10.79272461 18.49560547 C-9.20681929 15.65692248 -7.60832191 12.82603711 -6 10 C-5.44957031 9.0291748 -4.89914063 8.05834961 -4.33203125 7.05810547 C-3.79964844 6.1404541 -3.26726562 5.22280273 -2.71875 4.27734375 C-2.24373047 3.45355225 -1.76871094 2.62976074 -1.27929688 1.78100586 C-0.64604492 0.89940796 -0.64604492 0.89940796 0 0 Z " fill="#00774A" transform="translate(104,0)"/>
<path d="M0 0 C18.48 0 36.96 0 56 0 C56 5.28 56 10.56 56 16 C49.73 16 43.46 16 37 16 C37.00513559 21.49765355 37.028742 26.98920569 37.09765625 32.4855957 C37.11569422 34.35043235 37.12340716 36.21540128 37.12011719 38.08032227 C37.10807207 49.32142886 37.46565729 57.44492401 44 67 C44 67.66 44 68.32 44 69 C45.19625 68.938125 46.3925 68.87625 47.625 68.8125 C51.75714528 68.8125 54.47788178 69.73578114 58 72 C60 75 60 75 60 79 C55.545 79.495 55.545 79.495 51 80 C51 80.66 51 81.32 51 82 C54.3 82 57.6 82 61 82 C61 86.29 61 90.58 61 95 C55.82748508 98.34058255 52.16911891 99.69154405 46 100 C45.01 99.67 44.02 99.34 43 99 C42.505 100.485 42.505 100.485 42 102 C36.99226522 98.25448878 33.84560897 95.18821831 32 89 C31.8125 85.0625 31.8125 85.0625 32 82 C31.34 82 30.68 82 30 82 C29.34 80.68 28.68 79.36 28 78 C27.67 84.6 27.34 91.2 27 98 C19 98 19 98 16.5390625 95.69921875 C15.90742188 94.70535156 15.27578125 93.71148437 14.625 92.6875 C13.97789062 91.70136719 13.33078125 90.71523437 12.6640625 89.69921875 C12.11492187 88.80847656 11.56578125 87.91773438 11 87 C10.34 86.01 9.68 85.02 9 84 C8.67 88.62 8.34 93.24 8 98 C5.69 98 3.38 98 1 98 C1 89.09 1 80.18 1 71 C3.64 71 6.28 71 9 71 C11.17293296 73.24701022 12.46986838 74.88080673 14 77.5 C14.39316406 78.12003906 14.78632813 78.74007812 15.19140625 79.37890625 C16.15307314 80.90350009 17.08012154 82.44983446 18 84 C18.33 79.71 18.66 75.42 19 71 C21.475 70.505 21.475 70.505 24 70 C23.57122559 69.54061035 23.14245117 69.0812207 22.70068359 68.60791016 C15.68213542 59.42760828 17.34832576 48.32190345 17.625 37.375 C17.65513572 35.30081994 17.68250515 33.22659773 17.70703125 31.15234375 C17.77274387 26.10051214 17.87606752 21.05072504 18 16 C12.06 16 6.12 16 0 16 C0 10.72 0 5.44 0 0 Z M49 89 C49 89.99 49 90.98 49 92 C49.99 91.01 50.98 90.02 52 89 C51.01 89 50.02 89 49 89 Z " fill="#0E512C" transform="translate(131,61)"/>
<path d="M0 0 C5.94 0 11.88 0 18 0 C21.87735608 3.93120825 23.53108337 6.30212625 26 11 C27.75725994 13.74610015 29.60196579 16.4308365 31.4375 19.125 C32.29198852 20.41819927 33.14497658 21.7123919 33.99609375 23.0078125 C35.70674828 25.77143185 35.70674828 25.77143185 37 27 C37.33 18.09 37.66 9.18 38 0 C43.94 0 49.88 0 56 0 C56 19.47 56 38.94 56 59 C38 59 38 59 34.1171875 56.140625 C32.91137695 54.27368164 32.91137695 54.27368164 31.875 52.25 C31.25274536 51.23957642 31.25274536 51.23957642 30.61791992 50.20874023 C29.77563272 48.83482298 28.95858458 47.44508948 28.16845703 46.04052734 C26.38537188 42.92664818 24.34409201 40.01979133 22.3125 37.0625 C20.6728125 34.5565625 20.6728125 34.5565625 19 32 C18.67 40.91 18.34 49.82 18 59 C12.06 59 6.12 59 0 59 C0 39.53 0 20.06 0 0 Z " fill="#E1B60C" transform="translate(194,61)"/>
<path d="M0 0 C6.27 0 12.54 0 19 0 C21.7397969 7.28357101 24.47821508 14.56765669 27.21417999 21.85266781 C28.4845274 25.23503282 29.75548799 28.6171648 31.02783203 31.9987793 C32.25471164 35.25962668 33.4800039 38.52106633 34.70417786 41.78293037 C35.40107986 43.63857717 36.09964271 45.49359995 36.79821777 47.34861755 C37.21865356 48.46970413 37.63908936 49.59079071 38.07226562 50.74584961 C38.63185974 52.23476967 38.63185974 52.23476967 39.20275879 53.75376892 C40 56 40 56 40 57 C34.06 57 28.12 57 22 57 C21.34 54.03 20.68 51.06 20 48 C12.74 48 5.48 48 -2 48 C-2.66 50.97 -3.32 53.94 -4 57 C-9.61 57 -15.22 57 -21 57 C-19.72677242 44.99528284 -15.25561672 34.41296152 -10.875 23.25 C-10.11223408 21.28165548 -9.35050633 19.31290831 -8.58984375 17.34375 C-6.73850606 12.55777126 -4.87318053 7.77746962 -3 3 C-2.34 3 -1.68 3 -1 3 C-0.67 2.01 -0.34 1.02 0 0 Z M9 19 C6.91864693 24.29798964 5.28708387 29.45563871 4 35 C7.3 35 10.6 35 14 35 C12.83672541 29.59908226 11.57704144 24.29435341 10 19 C9.67 19 9.34 19 9 19 Z " fill="#F4C60D" transform="translate(94,62)"/>
<path d="M0 0 C17.49 0 34.98 0 53 0 C53 4.62 53 9.24 53 14 C47.06 14 41.12 14 35 14 C35 28.19 35 42.38 35 57 C29.39 57 23.78 57 18 57 C18 42.81 18 28.62 18 14 C12.06 14 6.12 14 0 14 C0 9.38 0 4.76 0 0 Z " fill="#FBCB0D" transform="translate(132,62)"/>
<path d="M0 0 C2.88369072 1.76252744 5.45228354 3.78429978 8 6 C7.67 6.66 7.34 7.32 7 8 C4.52275598 7.557635 3.11320455 7.09056364 1.125 5.5 C-1.65568422 3.53716408 -3.60338057 3.0707629 -7 3 C-9.39795381 4.81287195 -9.39795381 4.81287195 -11 7 C-8.82217319 9.17782681 -3.74896922 8.26089916 -0.71484375 8.31640625 C0.21597519 8.33718735 1.14679413 8.35796844 2.1058197 8.37937927 C5.09130182 8.44497931 8.07687484 8.50380802 11.0625 8.5625 C13.08138976 8.6056753 15.1002702 8.64928925 17.11914062 8.69335938 C22.07933297 8.80067129 27.03961709 8.90190888 32 9 C32 8.01 32 7.02 32 6 C33.32 6 34.64 6 36 6 C36 6.99 36 7.98 36 9 C43.59 9 51.18 9 59 9 C59 9.99 59 10.98 59 12 C58.01 12 57.02 12 56 12 C56 18.93 56 25.86 56 33 C55.01 33 54.02 33 53 33 C52.97421875 32.39671875 52.9484375 31.7934375 52.921875 31.171875 C52.59668017 25.89464661 52.59668017 25.89464661 49.9375 21.4375 C49.298125 20.963125 48.65875 20.48875 48 20 C46.515 20.495 46.515 20.495 45 21 C45.165 21.7425 45.33 22.485 45.5 23.25 C46 26 46 26 46 30 C42.125 28.125 42.125 28.125 41 27 C40.85884839 24.32941149 40.95752893 21.67567762 41 19 C42.32 18.34 43.64 17.68 45 17 C45 16.34 45 15.68 45 15 C43.35 14.67 41.7 14.34 40 14 C40 13.34 40 12.68 40 12 C38.68 12 37.36 12 36 12 C36 18.93 36 25.86 36 33 C34.68 33 33.36 33 32 33 C31.67 26.73 31.34 20.46 31 14 C29.68 13.34 28.36 12.68 27 12 C27 18.93 27 25.86 27 33 C26.01 33 25.02 33 24 33 C23.67 31.948125 23.34 30.89625 23 29.8125 C21.03583874 25.09851297 17.38707863 23.26127331 13 21 C13.24609375 19.140625 13.24609375 19.140625 14 17 C16.52476762 15.27056087 19.1872522 14.25011013 22 13 C15.07 12.505 15.07 12.505 8 12 C8 18.93 8 25.86 8 33 C7.01 33 6.02 33 5 33 C4.773125 32.0925 4.54625 31.185 4.3125 30.25 C2.31232818 25.29719358 -1.23161112 23.11928395 -6 21 C-6 20.01 -6 19.02 -6 18 C-2.7 16.35 0.6 14.7 4 13 C-2.93 12.505 -2.93 12.505 -10 12 C-10 18.93 -10 25.86 -10 33 C-10.99 33 -11.98 33 -13 33 C-13 26.07 -13 19.14 -13 12 C-14.65 12 -16.3 12 -18 12 C-18 18.93 -18 25.86 -18 33 C-18.99 33 -19.98 33 -21 33 C-22.485 29.535 -22.485 29.535 -24 26 C-24.59167969 26.11859375 -25.18335937 26.2371875 -25.79296875 26.359375 C-32.21872411 27.4076222 -32.21872411 27.4076222 -35.875 25.5 C-39.07737491 21.7325001 -41 17.99150634 -41 13 C-41.66 12.67 -42.32 12.34 -43 12 C-43 11.01 -43 10.02 -43 9 C-33.76 9 -24.52 9 -15 9 C-15 7.35 -15 5.7 -15 4 C-10.82805013 -1.17897226 -6.24768207 -1.85771785 0 0 Z M-38 12 C-36.41175422 18.04352848 -36.41175422 18.04352848 -33.0625 23.125 C-30.58294138 24.17693396 -29.47197179 23.97113178 -27 23 C-26.32041397 20.60280568 -26.32041397 20.60280568 -26 18 C-26.66 17.34 -27.32 16.68 -28 16 C-28.99 16 -29.98 16 -31 16 C-31 16.66 -31 17.32 -31 18 C-31.99 18 -32.98 18 -34 18 C-33.67 16.68 -33.34 15.36 -33 14 C-30.69 14 -28.38 14 -26 14 C-24.68 16.97 -23.36 19.94 -22 23 C-21.67 23 -21.34 23 -21 23 C-21 19.37 -21 15.74 -21 12 C-26.61 12 -32.22 12 -38 12 Z M47 12 C49.03802135 16.06024321 49.03802135 16.06024321 53 18 C53 16.02 53 14.04 53 12 C51.02 12 49.04 12 47 12 Z M-1 20 C0.98 20.99 2.96 21.98 5 23 C5 21.02 5 19.04 5 17 C2.23776722 17 1.10718546 18.31425163 -1 20 Z M18 19 C20.71003293 21.67331713 20.71003293 21.67331713 24 23 C24 20.69 24 18.38 24 16 C21.84481828 16 19.7838343 17.90225582 18 19 Z " fill="#000000" transform="translate(43,171)"/>
<path d="M0 0 C3.3 0 6.6 0 10 0 C10 6.93 10 13.86 10 21 C14.29 21 18.58 21 23 21 C23.33 21.66 23.66 22.32 24 23 C24.3556604 22.06148193 24.3556604 22.06148193 24.71850586 21.10400391 C25.7904212 18.27725731 26.86394047 15.45112254 27.9375 12.625 C28.31068359 11.64015625 28.68386719 10.6553125 29.06835938 9.640625 C29.42607422 8.69960937 29.78378906 7.75859375 30.15234375 6.7890625 C30.48226318 5.91975098 30.81218262 5.05043945 31.15209961 4.15478516 C32 2 32 2 33 0 C36.63 0 40.26 0 44 0 C46.67028949 6.30642837 49.28890979 12.63334241 51.8125 19 C52.23144531 20.051875 52.65039062 21.10375 53.08203125 22.1875 C54 25 54 25 54 29 C50.7 29 47.4 29 44 29 C43.67 27.35 43.34 25.7 43 24 C40.03 24 37.06 24 34 24 C33.505 26.475 33.505 26.475 33 29 C22.11 29 11.22 29 0 29 C0 19.43 0 9.86 0 0 Z M38 11 C37.67 12.98 37.34 14.96 37 17 C37.99 17 38.98 17 40 17 C39.67 15.02 39.34 13.04 39 11 C38.67 11 38.34 11 38 11 Z " fill="#B59309" transform="translate(196,131)"/>
<path d="M0 0 C3.238125 -0.061875 6.47625 -0.12375 9.8125 -0.1875 C11.33774292 -0.22846802 11.33774292 -0.22846802 12.89379883 -0.27026367 C13.69841553 -0.27775635 14.50303223 -0.28524902 15.33203125 -0.29296875 C16.56530151 -0.31653442 16.56530151 -0.31653442 17.82348633 -0.34057617 C20.52849168 0.08269724 21.38936674 0.8172647 23 3 C23.375 6 23.375 6 23 9 C21.5 10.875 21.5 10.875 20 12 C20.66 12.33 21.32 12.66 22 13 C24.29851498 15.29851498 24.3398291 15.87453127 24.4375 19 C24.30275419 21.622731 24.17961707 22.73485098 22.6875 24.9375 C19.71782471 26.80729555 17.18321393 27.12186677 13.76953125 27.09765625 C13.04612549 27.09515869 12.32271973 27.09266113 11.57739258 27.09008789 C10.66497803 27.08098389 9.75256348 27.07187988 8.8125 27.0625 C5.904375 27.041875 2.99625 27.02125 0 27 C0 18.09 0 9.18 0 0 Z " fill="#FBCC0D" transform="translate(72,132)"/>
<path d="M0 0 C0.99 0 1.98 0 3 0 C3 0.99 3 1.98 3 3 C9.93 3 16.86 3 24 3 C24 3.99 24 4.98 24 6 C23.01 6 22.02 6 21 6 C21 12.93 21 19.86 21 27 C20.01 27 19.02 27 18 27 C17.773125 26.0925 17.54625 25.185 17.3125 24.25 C15.31232818 19.29719358 11.76838888 17.11928395 7 15 C7 14.01 7 13.02 7 12 C10.3 10.35 13.6 8.7 17 7 C10.07 6.505 10.07 6.505 3 6 C3 12.93 3 19.86 3 27 C2.01 27 1.02 27 0 27 C-0.495 17.595 -0.495 17.595 -1 8 C-2.32 7.34 -3.64 6.68 -5 6 C-5 12.93 -5 19.86 -5 27 C-6.32 27 -7.64 27 -9 27 C-9.06058594 26.00097656 -9.12117188 25.00195312 -9.18359375 23.97265625 C-9.26738281 22.68230469 -9.35117188 21.39195312 -9.4375 20.0625 C-9.51871094 18.77472656 -9.59992188 17.48695313 -9.68359375 16.16015625 C-9.64919188 13.13976043 -9.64919188 13.13976043 -11 12 C-11.33 12.99 -11.66 13.98 -12 15 C-12.99 15 -13.98 15 -15 15 C-15.66 14.01 -16.32 13.02 -17 12 C-17.66 12 -18.32 12 -19 12 C-19.33 12.99 -19.66 13.98 -20 15 C-19.2575 15.6496875 -19.2575 15.6496875 -18.5 16.3125 C-17 18 -17 18 -17 21 C-19.375 20.6875 -19.375 20.6875 -22 20 C-24 17 -24 17 -23.75 13.4375 C-23 10 -23 10 -21 8 C-18.46875 7.76953125 -18.46875 7.76953125 -15.5 7.8125 C-14.5203125 7.81894531 -13.540625 7.82539063 -12.53125 7.83203125 C-10 8 -10 8 -8 9 C-8 8.01 -8 7.02 -8 6 C-13.94 6 -19.88 6 -26 6 C-26 5.01 -26 4.02 -26 3 C-17.75 3 -9.5 3 -1 3 C-0.67 2.01 -0.34 1.02 0 0 Z M12 14 C13.98 14.99 15.96 15.98 18 17 C18 15.02 18 13.04 18 11 C15.23776722 11 14.10718546 12.31425163 12 14 Z " fill="#000000" transform="translate(175,177)"/>
<path d="M0 0 C2.64 0 5.28 0 8 0 C10.17293296 2.24701022 11.46986838 3.88080673 13 6.5 C13.39316406 7.12003906 13.78632813 7.74007812 14.19140625 8.37890625 C15.15307314 9.90350009 16.08012154 11.44983446 17 13 C17.33 8.71 17.66 4.42 18 0 C20.64 0 23.28 0 26 0 C26 8.91 26 17.82 26 27 C18 27 18 27 15.5390625 24.69921875 C14.90742188 23.70535156 14.27578125 22.71148437 13.625 21.6875 C12.97789062 20.70136719 12.33078125 19.71523437 11.6640625 18.69921875 C11.11492187 17.80847656 10.56578125 16.91773438 10 16 C9.34 15.01 8.68 14.02 8 13 C7.67 17.62 7.34 22.24 7 27 C4.69 27 2.38 27 0 27 C0 18.09 0 9.18 0 0 Z " fill="#F6C80D" transform="translate(132,132)"/>
<path d="M0 0 C1.375 2.6875 1.375 2.6875 2 5 C-4.15234375 5.09765625 -4.15234375 5.09765625 -6 5 C-6.33 4.67 -6.66 4.34 -7 4 C-10.45812169 3.66661404 -10.45812169 3.66661404 -14 4 C-16.06520632 7.09780948 -16.29477024 7.9540481 -16.3125 11.5 C-16.32925781 12.2734375 -16.34601563 13.046875 -16.36328125 13.84375 C-15.91152792 16.52512459 -15.16877629 17.39875395 -13 19 C-9.90498792 19.25265405 -7.79870027 19.39935013 -5 18 C-4.67 17.01 -4.34 16.02 -4 15 C-5.98 15 -7.96 15 -10 15 C-10 13.35 -10 11.7 -10 10 C-6.04 10 -2.08 10 2 10 C2 13.96 2 17.92 2 22 C-4.15113328 25.35516361 -10.05216788 26.04072936 -17 25 C-20.99545631 23.06745683 -23.30950108 20.05266927 -25 16 C-26.02504095 9.55177729 -24.74924015 5.24893621 -21 0 C-14.51690015 -4.32206657 -6.49805434 -4.38240874 0 0 Z " fill="#F8CA0D" transform="translate(188,134)"/>
<path d="M0 0 C1.23556641 0.01740234 1.23556641 0.01740234 2.49609375 0.03515625 C3.32238281 0.04417969 4.14867188 0.05320313 5 0.0625 C5.63808594 0.07410156 6.27617188 0.08570313 6.93359375 0.09765625 C8.23109874 3.28281009 9.52052248 6.47117704 10.80859375 9.66015625 C11.17339844 10.55541016 11.53820312 11.45066406 11.9140625 12.37304688 C13.87314486 17.23513311 15.61126504 22.02408979 16.93359375 27.09765625 C14.29359375 27.09765625 11.65359375 27.09765625 8.93359375 27.09765625 C8.70929688 26.453125 8.485 25.80859375 8.25390625 25.14453125 C7.10469919 22.85376773 7.10469919 22.85376773 4.55078125 22.48828125 C3.19339844 22.41867188 3.19339844 22.41867188 1.80859375 22.34765625 C0.89851563 22.2909375 -0.0115625 22.23421875 -0.94921875 22.17578125 C-1.99722656 22.13710937 -1.99722656 22.13710937 -3.06640625 22.09765625 C-3.39640625 23.74765625 -3.72640625 25.39765625 -4.06640625 27.09765625 C-6.70640625 27.09765625 -9.34640625 27.09765625 -12.06640625 27.09765625 C-10.86403744 21.88359607 -8.89627925 16.92951068 -7.06640625 11.91015625 C-6.51339844 10.37584961 -6.51339844 10.37584961 -5.94921875 8.81054688 C-5.59601563 7.83923828 -5.2428125 6.86792969 -4.87890625 5.8671875 C-4.55535156 4.97620361 -4.23179688 4.08521973 -3.8984375 3.16723633 C-2.6759584 0.12646306 -2.6759584 0.12646306 0 0 Z M1.93359375 10.09765625 C1.60359375 11.08765625 1.27359375 12.07765625 0.93359375 13.09765625 C1.59359375 13.09765625 2.25359375 13.09765625 2.93359375 13.09765625 C2.60359375 12.10765625 2.27359375 11.11765625 1.93359375 10.09765625 Z " fill="#FBCB0D" transform="translate(111.06640625,131.90234375)"/>
<path d="M0 0 C0.99 0 1.98 0 3 0 C3 0.99 3 1.98 3 3 C3.68707031 2.96519531 4.37414062 2.93039063 5.08203125 2.89453125 C5.98308594 2.86746094 6.88414062 2.84039062 7.8125 2.8125 C9.15248047 2.76029297 9.15248047 2.76029297 10.51953125 2.70703125 C13 3 13 3 14.8046875 4.3515625 C16.47948435 6.66124965 16.35691675 8.21604938 16 11 C15.34 11.66 14.68 12.32 14 13 C11 12.8125 11 12.8125 8 12 C6 9 6 9 6 6 C5.01 6 4.02 6 3 6 C3 12.93 3 19.86 3 27 C2.01 27 1.02 27 0 27 C-0.06058594 25.72382813 -0.12117188 24.44765625 -0.18359375 23.1328125 C-0.26799568 21.46352984 -0.35264386 19.79425963 -0.4375 18.125 C-0.47681641 17.28324219 -0.51613281 16.44148438 -0.55664062 15.57421875 C-0.59853516 14.76855469 -0.64042969 13.96289062 -0.68359375 13.1328125 C-0.72025146 12.38918457 -0.75690918 11.64555664 -0.79467773 10.87939453 C-0.89955865 8.91135688 -0.89955865 8.91135688 -2 7 C-3.32 6.67 -4.64 6.34 -6 6 C-6 12.93 -6 19.86 -6 27 C-6.99 27 -7.98 27 -9 27 C-9.226875 26.0925 -9.45375 25.185 -9.6875 24.25 C-11.68767182 19.29719358 -15.23161112 17.11928395 -20 15 C-20 14.01 -20 13.02 -20 12 C-16.7 10.35 -13.4 8.7 -10 7 C-13.96 6.67 -17.92 6.34 -22 6 C-22 5.01 -22 4.02 -22 3 C-15.07 3 -8.14 3 -1 3 C-0.67 2.01 -0.34 1.02 0 0 Z M10 6 C10.33 7.32 10.66 8.64 11 10 C11.66 9.67 12.32 9.34 13 9 C12.67 8.01 12.34 7.02 12 6 C11.34 6 10.68 6 10 6 Z M-15 14 C-13.02 14.99 -11.04 15.98 -9 17 C-9 15.02 -9 13.04 -9 11 C-11.76223278 11 -12.89281454 12.31425163 -15 14 Z " fill="#000000" transform="translate(132,177)"/>
<path d="M0 0 C7.26 0 14.52 0 22 0 C22 0.99 22 1.98 22 3 C21.01 3 20.02 3 19 3 C19.02287143 6.56390672 19.1002735 10.12463316 19.1875 13.6875 C19.19330078 14.69490234 19.19910156 15.70230469 19.20507812 16.74023438 C19.2654181 23.07395539 19.2654181 23.07395539 22.55078125 28.20703125 C23.35902344 28.79871094 24.16726562 29.39039063 25 30 C24.67 30.99 24.34 31.98 24 33 C21.50638429 31.79618552 19.31856917 30.54571278 17 29 C14.99890722 29.32670903 12.99883869 29.65977214 11 30 C10.34 29.34 9.68 28.68 9 28 C9.0625 25.5 9.0625 25.5 10 23 C12.5625 21.6875 12.5625 21.6875 15 21 C14.67495741 16.17805357 14.67495741 16.17805357 12.4375 12.0625 C11.963125 11.711875 11.48875 11.36125 11 11 C10.01 11.33 9.02 11.66 8 12 C7.67 13.65 7.34 15.3 7 17 C7.99 17.33 8.98 17.66 10 18 C9.67 18.99 9.34 19.98 9 21 C7.125 20.6875 7.125 20.6875 5 20 C3 17 3 17 3.125 13.4375 C4 10 4 10 6.0625 8.5625 C7.0215625 8.2840625 7.0215625 8.2840625 8 8 C8 7.34 8 6.68 8 6 C6.35 5.67 4.7 5.34 3 5 C3 4.34 3 3.68 3 3 C2.01 3 1.02 3 0 3 C0 2.01 0 1.02 0 0 Z M10 3 C12.37629089 7.14670039 12.37629089 7.14670039 16 10 C16 7.69 16 5.38 16 3 C14.02 3 12.04 3 10 3 Z M13 25 C14 27 14 27 14 27 Z " fill="#000000" transform="translate(207,180)"/>
<path d="M0 0 C2.31 0 4.62 0 7 0 C7 6.93 7 13.86 7 21 C11.62 21 16.24 21 21 21 C21 22.98 21 24.96 21 27 C14.07 27 7.14 27 0 27 C0 18.09 0 9.18 0 0 Z " fill="#FECE0D" transform="translate(197,132)"/>
<path d="M0 0 C2.30476056 2.92952704 4.14601182 5.92595734 5.91796875 9.203125 C6.44970703 10.1828125 6.98144531 11.1625 7.52929688 12.171875 C8.07650391 13.18765625 8.62371094 14.2034375 9.1875 15.25 C9.74630859 16.28125 10.30511719 17.3125 10.88085938 18.375 C12.2567669 20.91513696 13.6297 23.45683493 15 26 C14.34 26.33 13.68 26.66 13 27 C12.34 26.67 11.68 26.34 11 26 C10.375 23.4375 10.375 23.4375 10 21 C6.8742604 21.10962816 3.74975219 21.24031241 0.625 21.375 C-0.26445313 21.4059375 -1.15390625 21.436875 -2.0703125 21.46875 C-2.92109375 21.50742187 -3.771875 21.54609375 -4.6484375 21.5859375 C-5.82672119 21.63306885 -5.82672119 21.63306885 -7.02880859 21.68115234 C-9.23002939 21.8399465 -9.23002939 21.8399465 -11 24 C-9.87968451 15.87771267 -5.949229 5.949229 0 0 Z " fill="#1A0B52" transform="translate(103,41)"/>
<path d="M0 0 C5.60726423 -0.29003091 9.1241995 -0.13444318 14 3 C16 6 16 6 16 10 C11.545 10.495 11.545 10.495 7 11 C7 11.66 7 12.32 7 13 C10.3 13 13.6 13 17 13 C17 17.29 17 21.58 17 26 C11.82748508 29.34058255 8.16911891 30.69154405 2 31 C1.01 30.67 0.02 30.34 -1 30 C-1.33 30.99 -1.66 31.98 -2 33 C-3.17539996 32.07347299 -4.34010577 31.13336613 -5.5 30.1875 C-6.1496875 29.66542969 -6.799375 29.14335937 -7.46875 28.60546875 C-9 27 -9 27 -9 24 C-8.4225 24.66 -7.845 25.32 -7.25 26 C-1.88591976 29.30097246 4.259675 28.73805744 10.3359375 27.5390625 C11.91177937 27.09525397 13.46142194 26.55948293 15 26 C15 22.04 15 18.08 15 14 C11.04 14 7.08 14 3 14 C3 15.65 3 17.3 3 19 C4.98 19 6.96 19 9 19 C8.625 20.9375 8.625 20.9375 8 23 C5.15916359 24.42041821 3.14522722 24.31452272 0 24 C-2.375 22.5625 -2.375 22.5625 -4 20 C-4.67298561 15.87890836 -4.54130175 12.30549246 -2.9375 8.4375 C-0.00040336 6.25836378 2.45889165 6.6721196 6 7 C6.33 7.33 6.66 7.66 7 8 C8.34747084 8.23075082 9.70377565 8.41153063 11.0625 8.5625 C12.361875 8.706875 13.66125 8.85125 15 9 C13.55979112 6.11958224 12.603799 4.33544389 9.75 2.75 C6.51795537 1.86853328 3.32468113 1.39113896 0 1 C0 0.67 0 0.34 0 0 Z M5 20 C5 20.99 5 21.98 5 23 C5.99 22.01 6.98 21.02 8 20 C7.01 20 6.02 20 5 20 Z " fill="#255C28" transform="translate(175,130)"/>
<path d="M0 0 C0.99 0 1.98 0 3 0 C3 1.32 3 2.64 3 4 C3.99 4 4.98 4 6 4 C6 4.99 6 5.98 6 7 C5.01 7 4.02 7 3 7 C3 13.93 3 20.86 3 28 C2.01 28 1.02 28 0 28 C-0.226875 27.2575 -0.45375 26.515 -0.6875 25.75 C-2.83838898 21.24337546 -6.5270897 18.98796013 -11 17 C-10.625 15.0625 -10.625 15.0625 -10 13 C-9.34 12.67 -8.68 12.34 -8 12 C-9.65 11.67 -11.3 11.34 -13 11 C-13.33 9.35 -13.66 7.7 -14 6 C-13.01 6 -12.02 6 -11 6 C-11 6.99 -11 7.98 -11 9 C-9.29159719 7.36587557 -8.06546953 6.13093906 -7 4 C-5.125 4.3125 -5.125 4.3125 -3 5 C-1 8 -1 8 -1.25 10.5625 C-2 13 -2 13 -4 15 C-3.01 15.99 -2.02 16.98 -1 18 C-0.505 9.09 -0.505 9.09 0 0 Z " fill="#000000" transform="translate(244,176)"/>
<path d="M0 0 C0.66 0 1.32 0 2 0 C3.00465729 3.12352227 4.00292927 6.24904853 5 9.375 C5.28617188 10.26445313 5.57234375 11.15390625 5.8671875 12.0703125 C6.13789062 12.92109375 6.40859375 13.771875 6.6875 14.6484375 C7.06455078 15.82672119 7.06455078 15.82672119 7.44921875 17.02880859 C8 19 8 19 8 21 C3.38 21 -1.24 21 -6 21 C-4.10586705 13.96464905 -2.13097381 6.96722642 0 0 Z M1 4 C-1.08135307 9.29798964 -2.71291613 14.45563871 -4 20 C-0.7 20 2.6 20 6 20 C4.83672541 14.59908226 3.57704144 9.29435341 2 4 C1.67 4 1.34 4 1 4 Z " fill="#2C2303" transform="translate(102,77)"/>
<path d="M0 0 C3.68069887 1.53643852 5.98775204 3.78150945 8.75 6.625 C9.54921875 7.44226563 10.3484375 8.25953125 11.171875 9.1015625 C12.07679688 10.04128906 12.07679688 10.04128906 13 11 C12.67 11.99 12.34 12.98 12 14 C8.52224821 12.48446596 6.0442016 10.4226544 3.25 7.875 C2.45078125 7.15054688 1.6515625 6.42609375 0.828125 5.6796875 C-0.07679688 4.84824219 -0.07679688 4.84824219 -1 4 C-0.67 2.68 -0.34 1.36 0 0 Z " fill="#000000" transform="translate(139,190)"/>
<path d="M0 0 C0.33 0 0.66 0 1 0 C1 4.29 1 8.58 1 13 C-4.17251492 16.34058255 -7.83088109 17.69154405 -14 18 C-14.99 17.67 -15.98 17.34 -17 17 C-17.33 17.99 -17.66 18.98 -18 20 C-19.17539996 19.07347299 -20.34010577 18.13336613 -21.5 17.1875 C-22.1496875 16.66542969 -22.799375 16.14335937 -23.46875 15.60546875 C-25 14 -25 14 -25 11 C-24.4225 11.66 -23.845 12.32 -23.25 13 C-18.32858972 16.02856017 -13.63900162 15.6472205 -8 15 C-5.39340862 14.23720152 -3.39874693 13.30840742 -1 12 C-0.67 8.04 -0.34 4.08 0 0 Z " fill="#25300E" transform="translate(191,143)"/>
<path d="M0 0 C3.375 -0.125 3.375 -0.125 7 0 C7.66 0.66 8.32 1.32 9 2 C8.46428571 5.53571429 8.46428571 5.53571429 7 7 C4.66702567 7.04092937 2.33294775 7.04241723 0 7 C0 4.69 0 2.38 0 0 Z " fill="#2F203D" transform="translate(80,147)"/>
<path d="M0 0 C2.31 0 4.62 0 7 0 C7.625 1.875 7.625 1.875 8 4 C6 6 6 6 2.875 6.125 C1.451875 6.063125 1.451875 6.063125 0 6 C0 4.02 0 2.04 0 0 Z " fill="#AA2A19" transform="translate(80,137)"/>
<path d="M0 0 C2.45823172 3.68734758 3.01242616 6.69699971 4 11 C1.69 11 -0.62 11 -3 11 C-2.69078116 9.54096742 -2.37751201 8.08279278 -2.0625 6.625 C-1.88847656 5.81289062 -1.71445313 5.00078125 -1.53515625 4.1640625 C-1 2 -1 2 0 0 Z M0 4 C-0.33 4.99 -0.66 5.98 -1 7 C-0.34 7 0.32 7 1 7 C0.67 6.01 0.34 5.02 0 4 Z " fill="#3B2923" transform="translate(113,138)"/>
<path d="M0 0 C2.3129482 2.3129482 2.49580975 3.47904875 3.125 6.625 C3.29257813 7.44226563 3.46015625 8.25953125 3.6328125 9.1015625 C3.81457031 10.04128906 3.81457031 10.04128906 4 11 C1.69 11 -0.62 11 -3 11 C-2.01 7.37 -1.02 3.74 0 0 Z M0 4 C-0.33 5.98 -0.66 7.96 -1 10 C-0.01 10 0.98 10 2 10 C1.67 8.02 1.34 6.04 1 4 C0.67 4 0.34 4 0 4 Z " fill="#3C3003" transform="translate(234,138)"/>
<path d="M0 0 C1.65 0.33 3.3 0.66 5 1 C4.67 2.32 4.34 3.64 4 5 C2.35 4.67 0.7 4.34 -1 4 C-0.67 2.68 -0.34 1.36 0 0 Z " fill="#000000" transform="translate(186,197)"/>
<path d="M0 0 C1.32 0 2.64 0 4 0 C4 1.65 4 3.3 4 5 C2.35 5 0.7 5 -1 5 C-0.67 3.35 -0.34 1.7 0 0 Z " fill="#000000" transform="translate(60,197)"/>
</svg>
