<?xml version="1.0" encoding="UTF-8"?>
<svg version="1.1" xmlns="http://www.w3.org/2000/svg" width="960" height="800">
<path d="M0 0 C3.42377174 0.19603813 6.8502252 0.28147388 10.27801514 0.37689209 C16.97833615 0.58551738 23.66674061 0.90257815 30.35809326 1.30462646 C29.54956643 4.84158313 28.24535202 7.57749068 26.47137451 10.75775146 C25.86994629 11.83943604 25.26851807 12.92112061 24.64886475 14.0355835 C23.98968991 15.20873776 23.3302594 16.38174839 22.67059326 17.55462646 C21.98954398 18.77313486 21.30863774 19.99172322 20.62786865 21.21038818 C15.70864671 29.99488319 10.6620329 38.70189491 5.56048584 47.3817749 C1.4007283 54.47270906 -2.6446247 61.62099212 -6.64190674 68.80462646 C-11.77815839 78.03397417 -17.04403298 87.17699772 -22.39190674 96.28509521 C-26.5643483 103.40991172 -30.62671696 110.59016483 -34.64190674 117.80462646 C-39.74021598 126.96185961 -44.95498729 136.04155816 -50.25567627 145.08294678 C-54.72469409 152.71261456 -59.13552305 160.37440132 -63.51690674 168.05462646 C-63.85027039 168.6389444 -64.18363403 169.22326233 -64.52709961 169.82528687 C-66.22194164 172.79654627 -67.91598658 175.76825918 -69.60968018 178.74017334 C-72.61661418 184.01555942 -75.63050291 189.28697084 -78.6439209 194.55865479 C-80.31020604 197.47381304 -81.97603301 200.38923309 -83.64190674 203.30462646 C-84.30857121 204.47129438 -84.97523788 205.63796105 -85.64190674 206.80462646 C-85.97190674 207.38212646 -86.30190674 207.95962646 -86.64190674 208.55462646 C-117.64190674 262.80462646 -148.64190674 317.05462646 -179.64190674 371.30462646 C-142.68190674 371.30462646 -105.72190674 371.30462646 -67.64190674 371.30462646 C-66.65190674 368.00462646 -65.66190674 364.70462646 -64.64190674 361.30462646 C-63.7225878 358.74269134 -62.78564014 356.20622809 -61.79815674 353.67181396 C-61.52072632 352.94964188 -61.2432959 352.22746979 -60.9574585 351.4834137 C-60.34637443 349.89286442 -59.73380786 348.3028841 -59.11993408 346.71340942 C-57.35739075 342.14717486 -55.60877343 337.57561867 -53.86065674 333.00384521 C-53.46676758 331.9739296 -53.07287842 330.94401398 -52.66705322 329.88288879 C-45.6883931 311.60152837 -38.86063654 293.2627193 -32.00081635 274.93653488 C-30.58981014 271.16719376 -29.1784644 267.39797986 -27.76690674 263.62884521 C-27.49713516 262.90843048 -27.22736359 262.18801575 -26.94941711 261.44577026 C-22.55594898 249.71570559 -18.11748982 238.00366902 -13.64190674 226.30462646 C0.87809326 225.97462646 15.39809326 225.64462646 30.35809326 225.30462646 C24.61494922 214.14616167 24.61494922 214.14616167 18.87078857 202.98822021 C18.14256213 201.57287433 17.41436982 200.15751088 16.68621826 198.74212646 C16.31802979 198.02734131 15.94984131 197.31255615 15.57049561 196.57611084 C14.84813893 195.17158156 14.13051313 193.76460627 13.41827393 192.35491943 C12.69607518 190.95825276 11.94314955 189.57714924 11.16412354 188.21136475 C9.34456263 184.922076 8.34106633 182.96811284 8.43914795 179.1461792 C9.40341666 176.16447794 10.55715291 173.5895389 12.06121826 170.83978271 C12.90499023 169.28396484 12.90499023 169.28396484 13.76580811 167.69671631 C14.37376221 166.59795166 14.98171631 165.49918701 15.60809326 164.36712646 C16.22764893 163.23226807 16.84720459 162.09740967 17.48553467 160.92816162 C23.65213267 149.65132196 29.97903248 138.46237029 36.35809326 127.30462646 C37.34809326 127.30462646 38.33809326 127.30462646 39.35809326 127.30462646 C39.79452148 128.12737061 40.23094971 128.95011475 40.68060303 129.79779053 C50.8633441 148.99002936 61.0857291 168.16017782 71.35809326 187.30462646 C79.60754185 202.67899817 87.83134396 218.06610303 96.00793457 233.47930908 C100.76109595 242.4375504 105.54063561 251.38073403 110.35809326 260.30462646 C115.54297343 269.90913496 120.68065763 279.53776465 125.79559326 289.17962646 C133.61005364 303.90939476 141.47434247 318.61180018 149.35809326 333.30462646 C157.60754185 348.67899817 165.83134396 364.06610303 174.00793457 379.47930908 C179.31744066 389.48608837 184.6679933 399.46976676 190.04974365 409.43792725 C194.689399 418.04074541 199.27861122 426.66969484 203.85809326 435.30462646 C209.24744433 445.46526004 214.65594251 455.61503402 220.10809326 465.74212646 C220.66819092 466.78304443 221.22828857 467.8239624 221.80535889 468.89642334 C224.63780804 474.14976921 227.50511013 479.37508955 230.48406982 484.54705811 C231.35809326 486.30462646 231.35809326 486.30462646 231.35809326 488.30462646 C186.40511093 488.57854574 141.45203523 488.83327234 96.4984436 488.9821167 C95.83301832 488.98432561 95.16759303 488.98653453 94.48200334 488.98881038 C80.02019012 489.03669795 65.55836803 489.08102071 51.09653271 489.12167174 C44.00435562 489.14162896 36.91218093 489.16237384 29.82000732 489.18353271 C29.11425432 489.18562486 28.40850132 489.187717 27.68136186 489.18987255 C4.80956507 489.25804319 -18.06159887 489.37821458 -40.93301233 489.525382 C-64.43827683 489.67635309 -87.94319118 489.77480457 -111.44893232 489.80726631 C-126.59573019 489.82829587 -141.74067113 489.89542838 -156.8868856 490.03128994 C-166.81319409 490.11579894 -176.738562 490.14144418 -186.66520421 490.1206485 C-192.39514339 490.11038804 -198.12190645 490.12622132 -203.85128212 490.21191406 C-209.09882486 490.28982723 -214.34106041 490.29370647 -219.58884837 490.23900878 C-221.48548682 490.23225097 -223.38245721 490.25253756 -225.27844273 490.30275738 C-239.04749129 490.64622085 -239.04749129 490.64622085 -243.34524694 486.76727366 C-246.43593449 482.97870387 -248.60833113 478.82238214 -250.64291395 474.39692771 C-252.27225319 470.98442207 -254.26622324 467.80024586 -256.23175049 464.57415771 C-256.96292916 463.32897285 -257.69178244 462.08241671 -258.41729736 460.83392334 C-258.95060669 459.91727905 -258.95060669 459.91727905 -259.49468994 458.9821167 C-259.85264648 458.36666992 -260.21060303 457.75122314 -260.57940674 457.11712646 C-261.69345635 455.20722327 -262.80819236 453.29772207 -263.92304993 451.38829041 C-264.91629335 449.68632157 -265.90794071 447.98342159 -266.8994751 446.28045654 C-268.02966818 444.35024448 -269.18544663 442.43470165 -270.3706665 440.53778076 C-271.64190674 438.30462646 -271.64190674 438.30462646 -271.64190674 436.30462646 C-212.24190674 436.30462646 -152.84190674 436.30462646 -91.64190674 436.30462646 C-91.31190674 434.65462646 -90.98190674 433.00462646 -90.64190674 431.30462646 C-89.98190674 429.32462646 -89.32190674 427.34462646 -88.64190674 425.30462646 C-148.04190674 424.97462646 -207.44190674 424.64462646 -268.64190674 424.30462646 C-267.1906822 420.67656513 -265.76646489 417.56233862 -263.87628174 414.19134521 C-263.32327393 413.20327881 -262.77026611 412.2152124 -262.20050049 411.19720459 C-261.30524658 409.61069092 -261.30524658 409.61069092 -260.39190674 407.99212646 C-259.76928955 406.88417725 -259.14667236 405.77622803 -258.50518799 404.63470459 C-253.72367057 396.15400519 -248.83315423 387.73960779 -243.90362549 379.34417725 C-239.64176346 372.06826347 -235.49460719 364.73381993 -231.39190674 357.36712646 C-227.21282202 349.86431522 -222.98104789 342.40534626 -218.59649658 335.02093506 C-214.66594637 328.38508418 -210.83862558 321.69109028 -207.01690674 314.99212646 C-206.67645325 314.39540131 -206.33599976 313.79867615 -205.98522949 313.18386841 C-204.23571596 310.11689682 -202.48698467 307.04948005 -200.73858643 303.98187256 C-197.70867284 298.66662569 -194.6721191 293.3551747 -191.63586426 288.04354858 C-189.97092072 285.13074085 -188.30643776 282.21766995 -186.64190674 279.30462646 C-185.97524226 278.13795855 -185.3085756 276.97129188 -184.64190674 275.80462646 C-184.14690674 274.93837646 -184.14690674 274.93837646 -183.64190674 274.05462646 C-150.64190674 216.30462646 -117.64190674 158.55462646 -67.64198303 71.05476379 C-66.97505767 69.88764187 -66.30813669 68.72051744 -65.64122009 67.5533905 C-63.97854733 64.64366879 -62.31579936 61.73399011 -60.65289307 58.82440186 C-57.6055808 53.49234127 -54.55888736 48.15993104 -51.5149231 42.82595825 C-50.12094104 40.38337655 -48.72652942 37.94104019 -47.33209229 35.49871826 C-46.38221824 33.83464625 -45.43294327 32.17023231 -44.48370361 30.50579834 C-43.24368814 28.33411702 -41.9732471 26.17957824 -40.67584229 24.04168701 C-39.02807932 21.20931634 -37.88482281 18.35529718 -36.75836182 15.28045654 C-29.60760645 -2.43347073 -17.28387493 -1.09500713 0 0 Z M30.35809326 303.30462646 C27.74715981 311.87442785 25.13920023 320.44512682 22.5350647 329.01699638 C21.32585171 332.99694866 20.11560492 336.97658049 18.90301514 340.95550537 C17.73349966 344.79322367 16.56667424 348.63175022 15.4017334 352.47085953 C14.95613927 353.93761617 14.50956591 355.40407569 14.06201172 356.87023544 C13.43677983 358.91904675 12.81499401 360.96887352 12.19403076 363.01898193 C11.83873291 364.18702362 11.48343506 365.35506531 11.11737061 366.5585022 C10.26926265 369.15104588 10.26926265 369.15104588 10.35809326 371.30462646 C24.21809326 371.30462646 38.07809326 371.30462646 52.35809326 371.30462646 C49.99294159 362.59432254 49.99294159 362.59432254 47.4887085 353.93109131 C47.15503769 352.81398773 46.82136688 351.69688416 46.47758484 350.54592896 C44.98061414 345.56443799 43.48232493 340.58335536 41.97845459 335.60394287 C41.18377147 332.97110313 40.39366678 330.33695263 39.60736084 327.70159912 C38.46917108 323.88694787 37.31846521 320.07613579 36.16668701 316.26556396 C35.8145665 315.08030121 35.46244598 313.89503845 35.09965515 312.67385864 C34.76913651 311.58827667 34.43861786 310.5026947 34.0980835 309.38421631 C33.80957016 308.42478119 33.52105682 307.46534607 33.22380066 306.47683716 C32.56870352 304.13272072 32.56870352 304.13272072 30.35809326 303.30462646 Z " fill="#EE1A29" transform="translate(271.64190673828125,-1.30462646484375)"/>
<path d="M0 0 C2.81093104 2.48548244 4.337776 5.19977848 6.08203125 8.50390625 C6.67701416 9.62361816 7.27199707 10.74333008 7.88500977 11.89697266 C8.52752993 13.11880279 9.17002604 14.34064557 9.8125 15.5625 C10.48368201 16.82893761 11.15548487 18.09504636 11.82788086 19.36083984 C13.21207905 21.9672313 14.59404229 24.57478905 15.97460938 27.18310547 C18.97534709 32.84575919 22.01919893 38.48514079 25.0625 44.125 C26.22014945 46.27338504 27.37770144 48.42182259 28.53515625 50.5703125 C29.10637207 51.63024414 29.67758789 52.69017578 30.26611328 53.78222656 C33.17870265 59.18745437 36.0892423 64.59378568 39 70 C40.16665696 72.16667189 41.33332363 74.33333856 42.5 76.5 C91.5 167.50000001 91.5 167.50000001 93.25219727 170.75415039 C94.41146197 172.90702429 95.57080362 175.05985675 96.73022461 177.21264648 C99.4400406 182.24439911 102.14913153 187.27653749 104.8553772 192.31021118 C105.80899096 194.08386434 106.76285646 195.85738189 107.71679688 197.63085938 C108.91000417 199.84934108 110.10274474 202.06807391 111.29492188 204.28710938 C111.83826172 205.29708984 112.38160156 206.30707031 112.94140625 207.34765625 C113.45590332 208.30430176 113.97040039 209.26094727 114.50048828 210.24658203 C116.33188943 213.6094186 118.22049871 216.93804727 120.13256836 220.25561523 C121 222 121 222 121 224 C199.87 224 278.74 224 360 224 C360 246.44 360 268.88 360 292 C333.27 292 306.54 292 279 292 C279 356.35 279 420.7 279 487 C251.28 487 223.56 487 195 487 C194.67 481.72 194.34 476.44 194 471 C192.1187436 466.5229447 190.34176014 462.84309738 187.875 458.75 C186.58608059 456.48763908 185.29836016 454.22459473 184.01171875 451.9609375 C183.33951932 450.8001722 182.66682932 449.63969084 181.99365234 448.47949219 C178.74909732 442.85575416 175.73301582 437.10807065 172.6875 431.375 C171.75272766 429.62906158 170.81794824 427.88312681 169.88240051 426.13760376 C166.806216 420.3959379 163.74695176 414.64536842 160.6953125 408.890625 C160.33422394 408.20969788 159.97313538 407.52877075 159.60110474 406.82720947 C158.87034932 405.44906236 158.13960592 404.07090887 157.40887451 402.69274902 C156.86616913 401.66921326 156.86616913 401.66921326 156.3125 400.625 C155.76906952 399.60001404 155.76906952 399.60001404 155.21466064 398.55432129 C150.42797012 389.52930642 145.58502826 380.53889836 140.66723633 371.58447266 C135.61770219 362.35928016 130.72262864 353.05298831 125.81375122 343.75250244 C121.26517074 335.13689918 116.69312036 326.53806648 112 318 C106.94480033 308.80063982 102.02660835 299.53175004 97.125 290.25 C90.05713303 276.86697617 82.91826855 263.52507416 75.72851562 250.20703125 C72.66262565 244.51867945 69.6125622 238.82184944 66.5625 233.125 C65.93964111 231.96178223 65.31678223 230.79856445 64.67504883 229.60009766 C63.41363053 227.2441976 62.15234358 224.88822727 60.89111328 222.53222656 C58.38616073 217.85314901 55.87972477 213.17486628 53.37329102 208.49658203 C52.12236871 206.16167922 50.87155526 203.82671809 49.62084961 201.49169922 C46.5223822 195.70708807 43.42268457 189.92314306 40.3203125 184.140625 C33.98924584 172.33660052 27.68035932 160.52160314 21.40603638 148.68734741 C8.95759813 125.20422372 8.95759813 125.20422372 -4 102 C-9.85674046 112.23482032 -15.44846999 122.57015872 -20.79946899 133.07794189 C-22.75813234 136.92383627 -24.72751173 140.76424406 -26.6953125 144.60546875 C-27.07611465 145.34949951 -27.45691681 146.09353027 -27.84925842 146.86010742 C-30.63536604 152.30035135 -33.45328176 157.72277084 -36.3125 163.125 C-40.07456059 170.23309681 -43.79446211 177.3622617 -47.5 184.5 C-51.70562827 192.59923196 -55.93235601 200.6865632 -60.19140625 208.7578125 C-63.65323337 215.32526588 -67.0786759 221.91137122 -70.5 228.5 C-74.70572096 236.59918421 -78.9323557 244.6865626 -83.19140625 252.7578125 C-86.65323342 259.32526598 -90.0786608 265.91137898 -93.5 272.5 C-97.7315323 280.64847994 -101.98297375 288.78576849 -106.26611328 296.90722656 C-109.48481222 303.01330681 -112.68311472 309.12986447 -115.875 315.25 C-116.37346436 316.20495361 -116.87192871 317.15990723 -117.38549805 318.14379883 C-120.00550309 323.16551021 -122.61758205 328.19115977 -125.21875 333.22265625 C-126.01176514 334.7526123 -126.01176514 334.7526123 -126.82080078 336.31347656 C-127.82181202 338.24505401 -128.82037839 340.17790145 -129.81591797 342.11230469 C-130.50645264 343.44310059 -130.50645264 343.44310059 -131.2109375 344.80078125 C-131.80334229 345.94800659 -131.80334229 345.94800659 -132.40771484 347.1184082 C-133.195896 348.54479614 -133.195896 348.54479614 -134 350 C-134.33671722 350.83029724 -134.67343445 351.66059448 -135.02035522 352.51605225 C-136.416275 355.50493314 -137.66911253 357.65433775 -140 360 C-144.64606322 361.40272797 -149.11328909 361.16729511 -153.9296875 360.9765625 C-155.28869404 360.95789078 -156.6477683 360.94366578 -158.00686646 360.9336853 C-161.56958698 360.89565449 -165.12817385 360.79758931 -168.68927002 360.68664551 C-172.32873602 360.58399938 -175.96887613 360.53860424 -179.609375 360.48828125 C-186.741266 360.38130889 -193.87036201 360.21084551 -201 360 C-199.70761659 356.00944556 -198.30846144 352.47377356 -196.234375 348.82421875 C-195.68136719 347.84453125 -195.12835938 346.86484375 -194.55859375 345.85546875 C-193.96175781 344.81003906 -193.36492187 343.76460938 -192.75 342.6875 C-191.47382086 340.43106733 -190.19778309 338.1745547 -188.921875 335.91796875 C-188.26247501 334.75563692 -187.60296981 333.59336477 -186.94335938 332.43115234 C-183.94202565 327.13206387 -180.97171086 321.81573779 -178 316.5 C-176.83478911 314.41918476 -175.66942401 312.33845587 -174.50390625 310.2578125 C-172.15630199 306.06580243 -169.81008157 301.87302191 -167.46484375 297.6796875 C-161.2994112 286.65829479 -155.1126603 275.64954681 -148.89208984 264.65917969 C-143.15088304 254.51007325 -137.4578339 244.33414242 -131.76611328 234.15722656 C-128.84601863 228.93706289 -125.92286434 223.71861321 -123 218.5 C-121.83331846 216.41667499 -120.6666518 214.33334166 -119.5 212.25 C-107.83333333 191.41666667 -96.16666667 170.58333333 -84.5 149.75 C-83.92241943 148.71858887 -83.34483887 147.68717773 -82.74975586 146.62451172 C-81.58396248 144.54277268 -80.41810968 142.46106691 -79.25219727 140.37939453 C-76.3216794 135.14694077 -73.39222084 129.91389914 -70.46484375 124.6796875 C-64.2994112 113.65829479 -58.1126603 102.64954681 -51.89208984 91.65917969 C-46.15088304 81.51007325 -40.4578339 71.33414242 -34.76611328 61.15722656 C-31.27013622 54.90757556 -27.77071575 48.6598505 -24.27001953 42.4128418 C-21.23511476 36.99605355 -18.20549147 31.57640057 -15.18359375 26.15234375 C-14.55646484 25.02828125 -13.92933594 23.90421875 -13.28320312 22.74609375 C-12.08884072 20.60508855 -10.89602849 18.46321755 -9.70507812 16.3203125 C-6.61192976 10.77979764 -3.41510456 5.34842259 0 0 Z M158 292 C160.64 296.95 163.28 301.9 166 307 C168.08923747 311.01796035 170.17302859 315.03824384 172.25 319.0625 C176.6237647 327.50527343 181.06996644 335.90355434 185.625 344.25 C186.12161133 345.16015869 186.61822266 346.07031738 187.12988281 347.00805664 C190.41836394 353.09062873 190.41836394 353.09062873 194 359 C194.33 359 194.66 359 195 359 C195 336.89 195 314.78 195 292 C182.79 292 170.58 292 158 292 Z " fill="#00774A" transform="translate(314,0)"/>
<path d="M0 0 C25.74 0 51.48 0 78 0 C94.70173893 17.17699166 94.70173893 17.17699166 98.55102539 29.02368164 C100.49733673 34.83960286 104.18185399 39.28337593 108 44 C109.49051198 46.11472137 110.89270438 48.27334552 112.3125 50.4375 C117.16993444 57.79019861 122.11130884 65.08527556 127.0625 72.375 C127.47155579 72.9775058 127.88061157 73.5800116 128.30206299 74.20077515 C132.67759458 80.64545034 137.05789213 87.08684993 141.4453125 93.5234375 C142.16066162 94.57354004 142.87601074 95.62364258 143.61303711 96.70556641 C144.91223428 98.61223802 146.2123767 100.51826626 147.51391602 102.42333984 C155.09977405 113.55638505 162.52593372 124.78890058 170 136 C170.495 68.68 170.495 68.68 171 0 C197.07 0 223.14 0 250 0 C250 86.46 250 172.92 250 262 C223.93 262 197.86 262 171 262 C168.69 258.37 166.38 254.74 164 251 C162.34794047 248.54961292 160.68835699 246.1120979 159 243.6875 C158.04643577 242.30889745 157.09333725 240.92997271 156.140625 239.55078125 C155.63595703 238.82068848 155.13128906 238.0905957 154.61132812 237.33837891 C151.641355 233.0283179 148.69671139 228.70098259 145.75 224.375 C144.79963867 222.98027466 144.79963867 222.98027466 143.83007812 221.55737305 C142.53310645 219.65387446 141.23623204 217.7503096 139.93945312 215.84667969 C136.79425706 211.23024136 133.64704781 206.61517608 130.5 202 C129.24998989 200.16667356 127.9999899 198.33334022 126.75 196.5 C126.13125 195.5925 125.5125 194.685 124.875 193.75 C119.25 185.5 119.25 185.5 117.37451172 182.74926758 C116.12615953 180.91836187 114.87778718 179.08746992 113.62939453 177.2565918 C110.47901643 172.63622903 107.32900355 168.01561801 104.1796875 163.39453125 C103.54224609 162.45931641 102.90480469 161.52410156 102.24804688 160.56054688 C101.06952434 158.83147366 99.89112155 157.10231882 98.71289062 155.37304688 C92.4875959 146.24021565 86.24133705 137.12195415 80 128 C79.67 172.22 79.34 216.44 79 262 C52.93 262 26.86 262 0 262 C0 175.54 0 89.08 0 0 Z " fill="#FDCE0D" transform="translate(710,225)"/>
<path d="M0 0 C28.38 0 56.76 0 86 0 C91.630625 15.1903125 91.630625 15.1903125 97.375 30.6875 C106.49963202 55.27390793 115.67707733 79.83943056 124.9375 104.375 C125.20141415 105.07426353 125.46532829 105.77352707 125.73723984 106.49398041 C126.54119602 108.62408713 127.34518016 110.7541833 128.14916992 112.88427734 C129.22968969 115.7470572 130.31016817 118.60985264 131.390625 121.47265625 C131.65850641 122.18238335 131.92638783 122.89211044 132.20238686 123.62334442 C140.03826611 144.38569914 147.82417641 165.16681169 155.6105957 185.94775391 C155.88694131 186.68528019 156.16328691 187.42280647 156.44800663 188.18268204 C156.85849074 189.27821207 156.85849074 189.27821207 157.27726746 190.39587402 C157.54808828 191.11866043 157.81890911 191.84144684 158.09793663 192.58613586 C158.63685963 194.02449229 159.17576085 195.46285688 159.71463966 196.90122986 C163.13452986 206.02934321 166.56106714 215.15491268 169.99609375 224.27734375 C171.05148383 227.08235643 172.10675764 229.88741282 173.16201782 232.69247437 C174.09107876 235.15991065 175.02241263 237.62648043 175.95385742 240.09301758 C176.49279625 241.52550807 177.03162346 242.95804056 177.5703125 244.390625 C178.02164551 245.58719727 178.47297852 246.78376953 178.93798828 248.01660156 C180 251 180 251 181 255 C154.6 255 128.2 255 101 255 C96.52059925 242.68164794 96.52059925 242.68164794 95 236.6875 C93.36770996 230.35913744 91.5941791 224.09423421 89.734375 217.828125 C89 215 89 215 89 212 C57.98 212 26.96 212 -5 212 C-5.66 215.3 -6.32 218.6 -7 222 C-7.59013506 224.23346284 -8.21163442 226.45905739 -8.875 228.671875 C-9.22046875 229.83074219 -9.5659375 230.98960937 -9.921875 232.18359375 C-10.27765625 233.36050781 -10.6334375 234.53742188 -11 235.75 C-11.35578125 236.94238281 -11.7115625 238.13476562 -12.078125 239.36328125 C-13.64781154 244.60533145 -15.26914782 249.80744347 -17 255 C-42.74 255 -68.48 255 -95 255 C-91.62530555 243.75101851 -91.62530555 243.75101851 -89.70117188 238.67333984 C-89.26691391 237.52214157 -88.83265594 236.3709433 -88.38523865 235.18486023 C-87.91779739 233.95596573 -87.45035614 232.72707123 -86.96875 231.4609375 C-86.4644075 230.12734339 -85.96039372 228.79362493 -85.4566803 227.45979309 C-84.37567847 224.59905691 -83.29266347 221.7390946 -82.20803833 218.87973022 C-80.46572915 214.28617324 -78.72831544 209.69077472 -76.99194336 205.0949707 C-76.69637134 204.31268254 -76.40079931 203.53039438 -76.09627056 202.72440052 C-75.49278536 201.12713428 -74.88931529 199.52986232 -74.28586006 197.93258476 C-73.36421668 195.49351906 -72.44215257 193.05461276 -71.52000427 190.61573792 C-65.44940492 174.55784908 -59.41836521 158.4852154 -53.39509964 142.40952301 C-52.00189223 138.6913627 -50.60821627 134.97337802 -49.21459961 131.25537109 C-47.52818502 126.75607473 -45.84185367 122.25674721 -44.15577698 117.75732422 C-40.01161508 106.69832539 -35.86569224 95.63998778 -31.71875 84.58203125 C-31.41730513 83.77821707 -31.11586025 82.97440289 -30.80528069 82.1462307 C-29.30460621 78.144649 -27.80390604 74.14307693 -26.30319214 70.14151001 C-23.82951681 63.54556915 -21.35604492 56.949552 -18.88256836 50.35353661 C-17.72583837 47.26889109 -16.5690955 44.1842504 -15.41235352 41.09960938 C-14.28627686 38.09673828 -13.1602002 35.09386719 -12 32 C-8.04 21.44 -4.08 10.88 0 0 Z M41 74 C38.38906655 82.56980139 35.78110697 91.14050035 33.17697144 99.71236992 C31.96775845 103.6923222 30.75751166 107.67195403 29.54492188 111.65087891 C28.3754064 115.48859721 27.20858098 119.32712376 26.04364014 123.16623306 C25.59804601 124.63298971 25.15147265 126.09944922 24.70391846 127.56560898 C24.07868657 129.61442028 23.45690075 131.66424706 22.8359375 133.71435547 C22.48063965 134.88239716 22.1253418 136.05043884 21.75927734 137.25387573 C20.91116938 139.84641941 20.91116938 139.84641941 21 142 C34.86 142 48.72 142 63 142 C60.63484833 133.28969608 60.63484833 133.28969608 58.13061523 124.62646484 C57.79694443 123.50936127 57.46327362 122.39225769 57.11949158 121.24130249 C55.62252088 116.25981153 54.12423167 111.27872889 52.62036133 106.29931641 C51.82567821 103.66647667 51.03557352 101.03232617 50.24926758 98.39697266 C49.11107781 94.5823214 47.96037194 90.77150933 46.80859375 86.9609375 C46.45647324 85.77567474 46.10435272 84.59041199 45.74156189 83.36923218 C45.41104324 82.28365021 45.0805246 81.19806824 44.73999023 80.07958984 C44.4514769 79.12015472 44.16296356 78.1607196 43.8657074 77.17221069 C43.21061026 74.82809425 43.21061026 74.82809425 41 74 Z " fill="#FDCE0D" transform="translate(261,228)"/>
<path d="M0 0 C62.7 0 125.4 0 190 0 C190 53.79 190 107.58 190 163 C127.3 163 64.6 163 0 163 C0 109.21 0 55.42 0 0 Z " fill="#FF0303" transform="translate(568,504)"/>
<path d="M0 0 C62.37 0 124.74 0 189 0 C189 53.79 189 107.58 189 163 C126.63 163 64.26 163 0 163 C0 109.21 0 55.42 0 0 Z " fill="#FF0202" transform="translate(771,504)"/>
<path d="M0 0 C62.37 0 124.74 0 189 0 C189 53.79 189 107.58 189 163 C126.63 163 64.26 163 0 163 C0 109.21 0 55.42 0 0 Z " fill="#FF0202" transform="translate(366,504)"/>
<path d="M0 0 C62.37 0 124.74 0 189 0 C189 53.79 189 107.58 189 163 C126.63 163 64.26 163 0 163 C0 109.21 0 55.42 0 0 Z " fill="#FF0202" transform="translate(163,504)"/>
<path d="M0 0 C2.74466786 2.44225462 4.26483772 5.05731141 5.9765625 8.29296875 C6.55623779 9.38206543 7.13591309 10.47116211 7.7331543 11.59326172 C8.36383227 12.79130812 8.99444561 13.98938855 9.625 15.1875 C10.28699598 16.43533476 10.94952317 17.68288783 11.61254883 18.93017578 C13.38294194 22.26353541 15.14701147 25.60020204 16.90985107 28.93756104 C19.80066561 34.40665649 22.70300965 39.86965358 25.60385132 45.33343506 C26.32827709 46.69823372 27.052417 48.06318415 27.77627563 49.42828369 C32.70280588 58.71896184 37.69318957 67.9709067 42.75463867 77.18896484 C46.78130932 84.5450232 50.65457637 91.97627788 54.5144043 99.42089844 C57.8096321 105.76078665 61.18399 112.05067228 64.625 118.3125 C69.78153055 127.7010251 74.81032224 137.15370106 79.8125 146.625 C87.81817926 161.78088722 95.89179151 176.89865224 104 192 C112.22610377 207.32817095 120.42562667 222.66970982 128.58044434 238.03588867 C136.01549814 252.0444488 143.50155327 266.02525902 151 280 C153.45907307 284.58293702 155.91750679 289.16621561 158.375 293.75 C158.98585449 294.88920898 159.59670898 296.02841797 160.22607422 297.20214844 C163.60962798 303.51823292 166.98049709 309.84080815 170.3359375 316.171875 C170.88325783 317.20436874 170.88325783 317.20436874 171.44163513 318.25772095 C172.90643429 321.02119781 174.37122166 323.78468016 175.83486938 326.54876709 C180.77251077 335.87053727 185.7706741 345.15348966 190.95410156 354.34179688 C194 359.78931531 194 359.78931531 194 362 C149.04701767 362.27391928 104.09394197 362.52864587 59.14035034 362.67749023 C58.47492506 362.67969915 57.80949977 362.68190806 57.12391008 362.68418391 C42.66209686 362.73207149 28.20027477 362.77639425 13.73843945 362.81704527 C6.64626236 362.83700249 -0.44591234 362.85774738 -7.53808594 362.87890625 C-8.24383894 362.88099839 -8.94959194 362.88309054 -9.6767314 362.88524608 C-32.54852819 362.95341672 -55.41969213 363.07358812 -78.29110559 363.22075553 C-101.79637009 363.37172663 -125.30128444 363.47017811 -148.80702558 363.50263984 C-163.95382345 363.52366941 -179.09876439 363.59080192 -194.24497886 363.72666347 C-204.17128735 363.81117248 -214.09665526 363.83681772 -224.02329747 363.81602204 C-229.75323665 363.80576157 -235.47999971 363.82159486 -241.20937538 363.9072876 C-246.45691812 363.98520077 -251.69915368 363.98908001 -256.94694163 363.93438232 C-258.84358008 363.9276245 -260.74055047 363.9479111 -262.63653599 363.99813092 C-276.40558455 364.34159439 -276.40558455 364.34159439 -280.7033402 360.4626472 C-283.79402775 356.67407741 -285.96642439 352.51775568 -288.00100721 348.09230125 C-289.63034645 344.67979561 -291.62431651 341.4956194 -293.58984375 338.26953125 C-294.32102242 337.02434639 -295.0498757 335.77779024 -295.77539062 334.52929688 C-296.30869995 333.61265259 -296.30869995 333.61265259 -296.8527832 332.67749023 C-297.21073975 332.06204346 -297.56869629 331.44659668 -297.9375 330.8125 C-299.05154961 328.9025968 -300.16628562 326.9930956 -301.28114319 325.08366394 C-302.27438661 323.38169511 -303.26603397 321.67879513 -304.25756836 319.97583008 C-305.38776144 318.04561802 -306.54353989 316.13007518 -307.72875977 314.2331543 C-309 312 -309 312 -309 310 C-249.6 310 -190.2 310 -129 310 C-128.67 308.35 -128.34 306.7 -128 305 C-126.97675967 302.31067671 -125.91451906 299.65671278 -124.8125 297 C-120.97123402 287.55887128 -117.30407987 278.05454499 -113.68612671 268.52612305 C-113.06892424 266.9018192 -112.45016478 265.278106 -111.82974243 263.6550293 C-109.0231083 256.30902304 -106.22986529 248.99534763 -103.98828125 241.453125 C-101.83094339 234.21529587 -99.12687501 227.22131185 -96.40258789 220.1824646 C-94.65209228 215.65704819 -92.91796393 211.12536612 -91.18359375 206.59375 C-90.79279633 205.57310959 -90.4019989 204.55246918 -89.99935913 203.50090027 C-83.02343916 185.24725721 -76.20901499 166.93206857 -69.35862637 148.63105869 C-67.94771787 144.86199957 -66.53646466 141.09306963 -65.125 137.32421875 C-64.72035113 136.24362214 -64.72035113 136.24362214 -64.30752754 135.1411953 C-59.91405419 123.41111324 -55.47558956 111.69905947 -51 100 C-36.48 99.67 -21.96 99.34 -7 99 C-12.74314404 87.8415352 -12.74314404 87.8415352 -18.48730469 76.68359375 C-19.21553113 75.26824786 -19.94372344 73.85288442 -20.671875 72.4375 C-21.04006348 71.72271484 -21.40825195 71.00792969 -21.78759766 70.27148438 C-22.50995434 68.86695509 -23.22758013 67.45997981 -23.93981934 66.05029297 C-24.66201808 64.65362629 -25.41494371 63.27252278 -26.19396973 61.90673828 C-28.01353063 58.61744953 -29.01702694 56.66348638 -28.91894531 52.84155273 C-27.9546766 49.85985148 -26.80094035 47.28491243 -25.296875 44.53515625 C-24.73444092 43.4980249 -24.17200684 42.46089355 -23.5925293 41.39233398 C-22.68047729 39.74406616 -22.68047729 39.74406616 -21.75 38.0625 C-21.12971924 36.9269165 -20.50943848 35.79133301 -19.87036133 34.62133789 C-2.05229107 2.05229107 -2.05229107 2.05229107 0 0 Z M-48 103 C-51.898125 113.395 -55.79625 123.79 -59.8125 134.5 C-65.46661377 149.57763672 -71.12072754 164.65527344 -76.77484131 179.73291016 C-77.06017416 180.49379786 -77.34550701 181.25468557 -77.63948631 182.03863049 C-78.20704305 183.55211491 -78.77460007 185.06559923 -79.34215736 186.57908344 C-80.73630033 190.29679435 -82.13043852 194.01450704 -83.52456665 197.73222351 C-86.01720675 204.37932375 -88.50988177 211.02641089 -91.00273705 217.67343044 C-92.40158867 221.40337156 -93.80041125 225.13332358 -95.19921875 228.86328125 C-95.47622997 229.60193735 -95.7532412 230.34059345 -96.0386467 231.10163307 C-99.8255677 241.1997023 -103.61116229 251.29826789 -107.39573669 261.3972168 C-109.49004729 266.98577037 -111.58468203 272.57420242 -113.67942524 278.16259384 C-115.13192181 282.03761824 -116.58427792 285.91269514 -118.0362854 289.78790283 C-128.56001185 317.87333349 -128.56001185 317.87333349 -133.8046875 331.66796875 C-134.1504332 332.57792099 -134.49617889 333.48787323 -134.85240173 334.42539978 C-136.36247623 338.39776845 -137.87624946 342.36864635 -139.39770508 346.33666992 C-139.89410928 347.63848383 -140.39045241 348.94032103 -140.88671875 350.2421875 C-141.30139404 351.3235498 -141.71606934 352.40491211 -142.14331055 353.51904297 C-143.10879828 355.87762738 -143.10879828 355.87762738 -143 358 C-117.26 358 -91.52 358 -65 358 C-62.68004892 351.04014676 -60.49633172 344.0979486 -58.4375 337.0625 C-57.98213867 335.53206055 -57.98213867 335.53206055 -57.51757812 333.97070312 C-57.07381836 332.45573242 -57.07381836 332.45573242 -56.62109375 330.91015625 C-56.3573999 330.01433838 -56.09370605 329.11852051 -55.82202148 328.19555664 C-54.70144711 323.83939449 -53.8821267 319.41063352 -53 315 C-21.98 315 9.04 315 41 315 C41.66 318.3 42.32 321.6 43 325 C43.87922779 328.66805661 44.87671998 332.30017714 45.875 335.9375 C46.11863281 336.84951172 46.36226562 337.76152344 46.61328125 338.70117188 C48.41992758 345.32398159 50.63677291 351.50112551 53 358 C79.4 358 105.8 358 133 358 C131.27976595 352.83929786 129.57423821 347.73790109 127.68530273 342.64746094 C127.24785736 341.46660919 126.81041199 340.28575745 126.35971069 339.06912231 C125.88439874 337.79085076 125.40902441 336.5126024 124.93359375 335.234375 C124.42671694 333.86851345 123.91993446 332.50261689 123.41323853 331.13668823 C122.04356495 327.44602902 120.67168494 323.75619379 119.29915237 320.06659698 C118.43054336 317.73129671 117.5624816 315.39579365 116.69454956 313.0602417 C107.15303382 287.38781192 97.52544739 261.74841619 87.85449219 236.12451172 C86.77537333 233.26530601 85.6962716 230.40609383 84.6171875 227.546875 C84.21575531 226.48327192 84.21575531 226.48327192 83.80621338 225.39818192 C77.36507648 208.33078292 70.95396903 191.25213921 64.54868698 174.17125702 C63.70975697 171.93434566 62.87056521 169.6975327 62.03128052 167.46075439 C61.75999864 166.73767908 61.48871675 166.01460377 61.20921421 165.26961708 C60.48221221 163.33188059 59.75515442 161.39416502 59.02809143 159.45645142 C51.98188601 140.65086621 44.99251447 121.8260005 38 103 C9.62 103 -18.76 103 -48 103 Z " fill="#180959" transform="translate(309,125)"/>
<path d="M0 0 C78.87 0 157.74 0 239 0 C239 19.8 239 39.6 239 60 C212.27 60 185.54 60 158 60 C158 124.35 158 188.7 158 255 C132.59 255 107.18 255 81 255 C81 190.65 81 126.3 81 60 C54.27 60 27.54 60 0 60 C0 40.2 0 20.4 0 0 Z " fill="#FECE0D" transform="translate(431,228)"/>
<path d="M0 0 C59.4 0 118.8 0 180 0 C177.98899234 6.70335888 175.90222609 13.20483743 173.42578125 19.7265625 C173.13392944 20.50281982 172.84207764 21.27907715 172.54138184 22.07885742 C171.46872801 24.92894426 170.39029237 27.77685239 169.3125 30.625 C166.899375 37.01875 164.48625 43.4125 162 50 C189.72 50.33 217.44 50.66 246 51 C247.32 45.72 248.64 40.44 250 35 C252.64 26.42 255.28 17.84 258 9 C287.37 9 316.74 9 347 9 C352.77052239 26.31156716 352.77052239 26.31156716 354.625 32.75 C354.91117187 33.72646484 354.91117187 33.72646484 355.203125 34.72265625 C356.36917878 38.72610756 357.48066661 42.74315553 358.57568359 46.76660156 C358.84319427 47.74904846 359.11070496 48.73149536 359.38632202 49.74371338 C359.58883575 50.48828796 359.79134949 51.23286255 360 52 C318.13053473 52.3662908 276.26125443 52.64818788 234.3905041 52.81704527 C229.4463686 52.83705637 224.50223626 52.85776555 219.55810547 52.87890625 C218.5738257 52.88310322 217.58954593 52.88730018 216.5754395 52.89162433 C200.64171655 52.96123015 184.70891802 53.08737263 168.77574332 53.23444474 C152.42447329 53.3841163 136.07368708 53.4729496 119.72176015 53.50541592 C109.63259079 53.52736216 99.54603409 53.59664148 89.45766918 53.72666347 C82.53781744 53.81130076 75.61931433 53.83679022 68.69898267 53.81602204 C64.70617767 53.80577893 60.71793227 53.82135927 56.7259407 53.9072876 C33.44098241 54.38389925 33.44098241 54.38389925 27.78737783 50.46710396 C24.337948 46.81795234 22.43655155 42.7945871 20.80130267 38.0940361 C19.45018101 34.56316365 17.40602781 31.4647606 15.41015625 28.26953125 C14.67756954 27.02517427 13.94852816 25.77871641 13.22460938 24.52929688 C12.86906982 23.91820068 12.51353027 23.30710449 12.1472168 22.67749023 C11.78926025 22.06204346 11.43130371 21.44659668 11.0625 20.8125 C9.94845039 18.9025968 8.83371438 16.9930956 7.71885681 15.08366394 C6.72561339 13.38169511 5.73396603 11.67879513 4.74243164 9.97583008 C3.61223856 8.04561802 2.45646011 6.13007518 1.27124023 4.2331543 C-0 2 -0 2 0 0 Z " fill="#180959" transform="translate(0,435)"/>
<path d="M0 0 C10.89 0 21.78 0 33 0 C33.71027344 3.76792969 34.42054688 7.53585937 35.15234375 11.41796875 C35.84067292 15.06845321 36.52909653 18.71891984 37.2175293 22.36938477 C37.69581823 24.90582446 38.17400904 27.44228267 38.65209961 29.97875977 C39.33942258 33.62521154 40.02709875 37.27159655 40.71484375 40.91796875 C40.92842026 42.05147263 41.14199677 43.1849765 41.36204529 44.35282898 C41.66224327 45.94391228 41.66224327 45.94391228 41.96850586 47.56713867 C42.14393417 48.49757492 42.31936249 49.42801117 42.50010681 50.38664246 C42.98610739 52.92737176 43.4888058 55.46423107 44 58 C44.33 58 44.66 58 45 58 C45.1858667 57.27635254 45.3717334 56.55270508 45.56323242 55.80712891 C51.84093953 31.39661789 51.84093953 31.39661789 54.6875 21.125 C54.86498779 20.48127441 55.04247559 19.83754883 55.2253418 19.17431641 C57.02592866 12.74072202 59.03335903 6.39158315 61 0 C72.22 0 83.44 0 95 0 C96.0828125 4.4240625 96.0828125 4.4240625 97.1875 8.9375 C98.96678947 16.12129355 100.9013725 23.23050917 103.04248047 30.31396484 C105.98056544 40.1298921 108.45931592 50.07541171 111 60 C111.89946485 55.56323008 112.79493079 51.1256618 113.6875 46.6875 C113.88900162 45.68582291 113.88900162 45.68582291 114.09457397 44.66390991 C116.32089217 33.57705409 118.43027015 22.4732784 120.43823242 11.34448242 C120.63006104 10.28849854 120.82188965 9.23251465 121.01953125 8.14453125 C121.26860229 6.75778198 121.26860229 6.75778198 121.52270508 5.34301758 C122 3 122 3 123 0 C133.56 0 144.12 0 155 0 C153.87639764 11.23602358 153.87639764 11.23602358 152.8359375 15.50390625 C152.48885742 16.95990234 152.48885742 16.95990234 152.13476562 18.4453125 C151.88404297 19.47398437 151.63332031 20.50265625 151.375 21.5625 C148.93235951 31.84667341 146.66423703 42.15474312 144.5 52.5 C142.13064374 63.80784515 139.63733715 75.07727162 136.99926758 86.32617188 C135.36106853 93.33822385 133.86996409 100.36019151 132.54296875 107.4375 C132 110 132 110 131 112 C119.78 112 108.56 112 97 112 C92.41544118 97.10018382 92.41544118 97.10018382 90.5625 90.3125 C90.13676948 88.76691311 89.71098671 87.22134061 89.28515625 85.67578125 C89.07262207 84.90186035 88.86008789 84.12793945 88.64111328 83.33056641 C87.39861109 78.81383909 86.14099868 74.3012945 84.8840332 69.78857422 C83.782189 65.829243 82.68965108 61.86761899 81.609375 57.90234375 C81.38185547 57.07154297 81.15433594 56.24074219 80.91992188 55.38476562 C80.48099618 53.78134318 80.04469967 52.17719815 79.61132812 50.57226562 C78.86637837 46.99674399 78.86637837 46.99674399 77 44 C73.48681647 56.38702758 70.01941514 68.77970524 66.8125 81.25 C64.99239273 88.3206925 63.08649682 95.32637835 60.859375 102.28125 C59.84160363 105.50110852 58.92770146 108.7530449 58 112 C46.45 112 34.9 112 23 112 C22.505 109.628125 22.01 107.25625 21.5 104.8125 C19.39516996 94.78284132 17.22947004 84.76637045 15.0625 74.75 C14.88696594 73.93842438 14.71143188 73.12684875 14.53057861 72.29067993 C12.88792725 64.69749242 11.24410736 57.10458858 9.58203125 49.515625 C7.37740928 39.44912334 5.21249114 29.37443249 3.10162354 19.2878418 C2.69636493 17.35478513 2.28743227 15.42249987 1.87841797 13.49023438 C1.63365723 12.31396484 1.38889648 11.13769531 1.13671875 9.92578125 C0.91717529 8.87817627 0.69763184 7.83057129 0.47143555 6.7512207 C0 4 0 4 0 0 Z " fill="#FFFCFC" transform="translate(585,530)"/>
<path d="M0 0 C10.89 0 21.78 0 33 0 C41.09130659 8.71908037 41.09130659 8.71908037 42.68359375 12.81640625 C44.98177427 18.17682468 47.92183431 22.49336888 51.3125 27.25 C58.56202381 37.81939921 65.779881 48.41049214 73 59 C73.33 39.53 73.66 20.06 74 0 C84.89 0 95.78 0 107 0 C107 36.96 107 73.92 107 112 C96.11 112 85.22 112 74 112 C65.49523013 102.9375403 65.49523013 102.9375403 63.68359375 98.62109375 C60.90544871 92.56632507 57.2831708 87.3574107 53.4375 81.9375 C46.85321761 72.36189547 40.44631544 62.66947316 34 53 C33.67 72.47 33.34 91.94 33 112 C22.11 112 11.22 112 0 112 C0 75.04 0 38.08 0 0 Z " fill="#FFFCFC" transform="translate(204,529)"/>
<path d="M0 0 C30.69 0 61.38 0 93 0 C93 7.92 93 15.84 93 24 C73.86 24 54.72 24 35 24 C35 29.61 35 35.22 35 41 C52.82 41 70.64 41 89 41 C89 48.59 89 56.18 89 64 C71.18 64 53.36 64 35 64 C35 71.26 35 78.52 35 86 C54.47 86 73.94 86 94 86 C94 94.58 94 103.16 94 112 C62.98 112 31.96 112 0 112 C0 75.04 0 38.08 0 0 Z " fill="#FFFBFB" transform="translate(413,529)"/>
<path d="M0 0 C8.35531041 7.74985314 10.84884889 14.48848887 12 26 C-4.335 26.495 -4.335 26.495 -21 27 C-21.99 24.36 -22.98 21.72 -24 19 C-29.25449159 14.00182507 -32.99480474 13.64166932 -40.06640625 13.7265625 C-43.15586014 13.84300838 -43.15586014 13.84300838 -46.25 15.5625 C-48.26514916 17.99709814 -48.26514916 17.99709814 -48.625 21.5625 C-48.38406975 25.08277775 -48.38406975 25.08277775 -45.88671875 26.609375 C-42.65777451 28.16486099 -39.69016108 28.92280828 -36.1875 29.6875 C-28.8663147 31.40549612 -21.71388573 33.55344962 -14.5625 35.875 C-13.55662842 36.19041748 -12.55075684 36.50583496 -11.5144043 36.83081055 C-1.09848933 40.27172854 7.79376319 45.46546366 13.25390625 55.24609375 C17.33099129 64.12476325 17.19653699 73.44964379 14.03515625 82.625 C9.3164785 93.45124932 1.64351988 100.19763157 -8.99609375 104.95703125 C-17.42178036 107.8824647 -25.35966795 108.33733333 -34.25 108.3125 C-35.38824219 108.32861328 -36.52648437 108.34472656 -37.69921875 108.36132812 C-50.66100878 108.36868442 -63.74770866 106.14848167 -73.83984375 97.40625 C-80.94877631 89.73656195 -85.15956093 79.38596621 -85 69 C-62.40510967 67.80611597 -62.40510967 67.80611597 -52 68 C-51.81824219 68.59167969 -51.63648438 69.18335938 -51.44921875 69.79296875 C-49.1196788 77.89443481 -49.1196788 77.89443481 -43.33203125 83.60546875 C-37.45552337 86.06492164 -29.83173836 86.44453145 -23.79296875 84.16796875 C-21.5800329 82.73036809 -20.18302488 81.36604977 -19 79 C-18.43863518 73.44086351 -18.43863518 73.44086351 -20.5 68.4296875 C-23.80637885 65.21630056 -26.95778383 64.23773632 -31.3125 62.9375 C-32.11067139 62.68347412 -32.90884277 62.42944824 -33.73120117 62.16772461 C-38.71898791 60.60560196 -43.73600194 59.2998964 -48.8125 58.0625 C-60.49577832 55.04463282 -72.529596 49.25750553 -78.9375 38.625 C-82.38057336 31.05252637 -82.45309399 21.92259593 -80.11328125 13.99609375 C-75.38081667 3.69787349 -67.42931741 -2.02873923 -57 -6 C-40.51197744 -10.54616981 -14.41515017 -10.80292284 0 0 Z " fill="#FFFCFC" transform="translate(900,535)"/>
<path d="M0 0 C63.36 0 126.72 0 192 0 C192 3.3 192 6.6 192 10 C189.69 10 187.38 10 185 10 C185 30.46 185 50.92 185 72 C163.55 72 142.1 72 120 72 C120 54.18 120 36.36 120 18 C137.16 18 154.32 18 172 18 C172 15.69 172 13.38 172 11 C171.28003342 11.00222061 170.56006683 11.00444122 169.81828308 11.00672913 C163.03507913 11.02676166 156.2518796 11.04198929 149.46865368 11.05181217 C145.98128689 11.05703196 142.49394453 11.06411324 139.0065918 11.07543945 C134.99788172 11.08837754 130.98919733 11.09323569 126.98046875 11.09765625 C125.72727341 11.10281754 124.47407806 11.10797882 123.1829071 11.11329651 C121.44144157 11.11340981 121.44144157 11.11340981 119.66479492 11.11352539 C118.64109299 11.115746 117.61739105 11.11796661 116.56266785 11.12025452 C114 11 114 11 111 10 C111 30.13 111 50.26 111 71 C106.71 71 102.42 71 98 71 C98 50.87 98 30.74 98 10 C92.06 10 86.12 10 80 10 C80 31.12 80 52.24 80 74 C75.71 74 71.42 74 67 74 C67 58.16 67 42.32 67 26 C57.05557622 26.53816124 57.05557622 26.53816124 49.625 30.625 C44.638711 34.02535341 44.638711 34.02535341 41.44140625 33.8984375 C38.74549298 32.90634142 36.67782291 31.62640385 34.3125 30 C29.10452444 26.72641536 25.10183866 26.17433825 19 26 C19 31.61 19 37.22 19 43 C26.26 43 33.52 43 41 43 C41 45.97 41 48.94 41 52 C29.12 52 17.24 52 5 52 C5 40.12 5 28.24 5 16 C9.640625 15.9175 14.28125 15.835 19.0625 15.75 C21.23791382 15.69537598 21.23791382 15.69537598 23.45727539 15.63964844 C30.60592126 15.57808638 35.1712224 15.77226003 41 20 C44.16254355 19.92470134 45.5781582 19.30651257 48.12890625 17.453125 C51.88027653 15.55447228 55.21647742 15.66974318 59.3125 15.8125 C60.42334961 15.83280273 60.42334961 15.83280273 61.55664062 15.85351562 C63.37141075 15.88864021 65.18580288 15.94244028 67 16 C67 14.02 67 12.04 67 10 C44.89 10 22.78 10 0 10 C0 6.7 0 3.4 0 0 Z M134 28 C134 39.22 134 50.44 134 62 C146.54 62 159.08 62 172 62 C172 50.78 172 39.56 172 28 C159.46 28 146.92 28 134 28 Z " fill="#161485" transform="translate(336,709)"/>
<path d="M0 0 C25.74 0 51.48 0 78 0 C94.70173893 17.17699166 94.70173893 17.17699166 98.55102539 29.02368164 C100.49733673 34.83960286 104.18185399 39.28337593 108 44 C109.49051198 46.11472137 110.89270438 48.27334552 112.3125 50.4375 C117.16993444 57.79019861 122.11130884 65.08527556 127.0625 72.375 C127.47155579 72.9775058 127.88061157 73.5800116 128.30206299 74.20077515 C132.67759458 80.64545034 137.05789213 87.08684993 141.4453125 93.5234375 C142.16066162 94.57354004 142.87601074 95.62364258 143.61303711 96.70556641 C144.91223428 98.61223802 146.2123767 100.51826626 147.51391602 102.42333984 C155.09977405 113.55638505 162.52593372 124.78890058 170 136 C170.495 68.68 170.495 68.68 171 0 C197.07 0 223.14 0 250 0 C250 86.46 250 172.92 250 262 C223.93 262 197.86 262 171 262 C168.69 258.37 166.38 254.74 164 251 C162.34794047 248.54961292 160.68835699 246.1120979 159 243.6875 C158.04643577 242.30889745 157.09333725 240.92997271 156.140625 239.55078125 C155.63595703 238.82068848 155.13128906 238.0905957 154.61132812 237.33837891 C151.641355 233.0283179 148.69671139 228.70098259 145.75 224.375 C144.79963867 222.98027466 144.79963867 222.98027466 143.83007812 221.55737305 C142.53310645 219.65387446 141.23623204 217.7503096 139.93945312 215.84667969 C136.79425706 211.23024136 133.64704781 206.61517608 130.5 202 C129.24998989 200.16667356 127.9999899 198.33334022 126.75 196.5 C126.13125 195.5925 125.5125 194.685 124.875 193.75 C119.25 185.5 119.25 185.5 117.37451172 182.74926758 C116.12615953 180.91836187 114.87778718 179.08746992 113.62939453 177.2565918 C110.47901643 172.63622903 107.32900355 168.01561801 104.1796875 163.39453125 C103.54224609 162.45931641 102.90480469 161.52410156 102.24804688 160.56054688 C101.06952434 158.83147366 99.89112155 157.10231882 98.71289062 155.37304688 C92.4875959 146.24021565 86.24133705 137.12195415 80 128 C79.67 172.22 79.34 216.44 79 262 C52.93 262 26.86 262 0 262 C0 175.54 0 89.08 0 0 Z M3 3 C3 87.15 3 171.3 3 258 C26.76 258 50.52 258 75 258 C75.33 210.81 75.66 163.62 76 115 C83.92 126.88 83.92 126.88 92 139 C95.80237004 144.57917848 99.60640149 150.15578751 103.43212891 155.71875 C106.0854992 159.57939965 108.73005762 163.44607368 111.375 167.3125 C111.90633545 168.08891846 112.4376709 168.86533691 112.98510742 169.6652832 C117.80142583 176.70496116 122.60548048 183.75297736 127.40917969 190.80126953 C131.47574542 196.7670325 135.54747162 202.7292248 139.625 208.6875 C140.15424072 209.46109863 140.68348145 210.23469727 141.22875977 211.03173828 C143.8846334 214.91293081 146.54348963 218.79203414 149.20703125 222.66796875 C157.24473052 234.37948945 165.1187758 246.1781637 173 258 C197.09 258 221.18 258 246 258 C246 173.85 246 89.7 246 3 C222.24 3 198.48 3 174 3 C173.67 50.19 173.34 97.38 173 146 C157.68480532 124.12115046 157.68480532 124.12115046 152.78076172 116.69287109 C149.58943733 111.86694458 146.32020844 107.09375049 143.0625 102.3125 C141.94779478 100.67491505 140.83309057 99.03732941 139.71844482 97.39970398 C138.57206002 95.71557867 137.42544032 94.03161345 136.27880859 92.34765625 C133.35149693 88.0480064 130.4277076 83.74596326 127.50366211 79.4440918 C120.90216744 69.73227024 114.29449556 60.02470227 107.67456055 50.32543945 C104.32061537 45.40984549 100.974296 40.48922498 97.63671875 35.5625 C96.88806221 34.45830528 96.13936437 33.35413855 95.390625 32.25 C93.97902728 30.16764309 92.56874862 28.08439103 91.16015625 26 C85.89451282 18.23575714 80.45791877 10.64108627 75 3 C51.24 3 27.48 3 3 3 Z " fill="#050400" transform="translate(710,225)"/>
<path d="M0 0 C18.81 0 37.62 0 57 0 C57 4.95 57 9.9 57 15 C66.24 15 75.48 15 85 15 C85 38.43 85 61.86 85 86 C80.71 86 76.42 86 72 86 C72 65.87 72 45.74 72 25 C54.51 25 37.02 25 19 25 C19 41.17 19 57.34 19 74 C28.24 74 37.48 74 47 74 C47 68.39 47 62.78 47 57 C39.08 57 31.16 57 23 57 C23 53.7 23 50.4 23 47 C35.21 47 47.42 47 60 47 C60 59.21 60 71.42 60 84 C42.18 84 24.36 84 6 84 C6 69.48 6 54.96 6 40 C-1.59 40 -9.18 40 -17 40 C-17 42.31 -17 44.62 -17 47 C-10.73 47 -4.46 47 2 47 C2 50.3 2 53.6 2 57 C-8.89 57 -19.78 57 -31 57 C-31 48.09 -31 39.18 -31 30 C-18.79 30 -6.58 30 6 30 C6 25.05 6 20.1 6 15 C18.21 15 30.42 15 43 15 C43 13.35 43 11.7 43 10 C28.81 10 14.62 10 0 10 C0 6.7 0 3.4 0 0 Z " fill="#161485" transform="translate(875,694)"/>
<path d="M0 0 C37.62 0 75.24 0 114 0 C114 3.3 114 6.6 114 10 C110.37 10 106.74 10 103 10 C103 30.13 103 50.26 103 71 C98.71 71 94.42 71 90 71 C90 50.87 90 30.74 90 10 C84.39 10 78.78 10 73 10 C73 30.13 73 50.26 73 71 C51.55 71 30.1 71 8 71 C8 53.51 8 36.02 8 18 C24.83 18 41.66 18 59 18 C59 15.36 59 12.72 59 10 C39.53 10 20.06 10 0 10 C0 6.7 0 3.4 0 0 Z M22 29 C22 39.89 22 50.78 22 62 C34.21 62 46.42 62 59 62 C59 51.11 59 40.22 59 29 C46.79 29 34.58 29 22 29 Z " fill="#161585" transform="translate(163,709)"/>
<path d="M0 0 C0.84646888 -0.00199105 1.69293776 -0.0039821 2.56505722 -0.00603348 C3.47460397 -0.00312064 4.38415072 -0.0002078 5.3212595 0.00279331 C6.30320949 0.00193889 7.28515947 0.00108446 8.29686552 0.00020415 C11.57801057 -0.00143931 14.85910417 0.00405213 18.14024448 0.00952244 C20.49592684 0.00980458 22.85160929 0.00964605 25.2072916 0.00907993 C31.59717687 0.00879302 37.98704337 0.01467275 44.37692428 0.02165389 C50.37980582 0.0272715 56.3826874 0.02827727 62.38557107 0.02930576 C74.27238632 0.03149228 86.15919469 0.03814152 98.0460062 0.04760838 C109.59027669 0.05679284 121.1345453 0.06386861 132.6788187 0.06811619 C133.39087158 0.06837891 134.10292446 0.06864164 134.8365547 0.06891232 C138.40885328 0.07021739 141.98115187 0.07148109 145.55345047 0.07272422 C175.17101026 0.08308438 204.7885594 0.10151598 234.40611362 0.12304783 C234.40611362 22.56304783 234.40611362 45.00304783 234.40611362 68.12304783 C207.67611362 68.12304783 180.94611362 68.12304783 153.40611362 68.12304783 C153.40611362 132.47304783 153.40611362 196.82304783 153.40611362 263.12304783 C125.68611362 263.12304783 97.96611362 263.12304783 69.40611362 263.12304783 C69.40611362 198.77304783 69.40611362 134.42304783 69.40611362 68.12304783 C42.67611362 68.12304783 15.94611362 68.12304783 -11.59388638 68.12304783 C-11.59388638 46.01304783 -11.59388638 23.90304783 -11.59388638 1.12304783 C-3.71888638 -0.00195217 -3.71888638 -0.00195217 0 0 Z M-8.59388638 4.12304783 C-8.59388638 23.92304783 -8.59388638 43.72304783 -8.59388638 64.12304783 C18.13611362 64.12304783 44.86611362 64.12304783 72.40611362 64.12304783 C72.40611362 128.47304783 72.40611362 192.82304783 72.40611362 259.12304783 C97.81611362 259.12304783 123.22611362 259.12304783 149.40611362 259.12304783 C149.40611362 194.77304783 149.40611362 130.42304783 149.40611362 64.12304783 C176.13611362 64.12304783 202.86611362 64.12304783 230.40611362 64.12304783 C230.40611362 44.32304783 230.40611362 24.52304783 230.40611362 4.12304783 C151.53611362 4.12304783 72.66611362 4.12304783 -8.59388638 4.12304783 Z " fill="#050501" transform="translate(439.59388637542725,223.87695217132568)"/>
<path d="M0 0 C27.06 0 54.12 0 82 0 C82 3.3 82 6.6 82 10 C79.36 10 76.72 10 74 10 C74 29.47 74 48.94 74 69 C52.88 69 31.76 69 10 69 C10 59.76 10 50.52 10 41 C13.63 39.02 17.26 37.04 21 35 C17.37 34.67 13.74 34.34 10 34 C10 27.73 10 21.46 10 15 C12.64 13.68 15.28 12.36 18 11 C12.06 10.67 6.12 10.34 0 10 C0 6.7 0 3.4 0 0 Z M24 21 C24 22.32 24 23.64 24 25 C35.88 25.33 47.76 25.66 60 26 C60 20.72 60 15.44 60 10 C45.77612379 8.26152624 36.12970385 14.18548558 24 21 Z M50.40234375 32.68359375 C49.65287979 33.05855484 48.90341583 33.43351593 48.13124084 33.81983948 C46.5457733 34.61408518 44.96127952 35.4102772 43.37768555 36.20825195 C40.94612889 37.43315318 38.5114367 38.65163127 36.07617188 39.86914062 C34.53887319 40.6402477 33.00175751 41.41171976 31.46484375 42.18359375 C30.73257065 42.55028671 30.00029755 42.91697968 29.24583435 43.29478455 C25.90433912 44.82446169 25.90433912 44.82446169 23 47 C23 50.96 23 54.92 23 59 C35.21 59 47.42 59 60 59 C60 49.1 60 39.2 60 29 C56.49869391 29 53.47973994 31.12975514 50.40234375 32.68359375 Z " fill="#161485" transform="translate(762,709)"/>
<path d="M0 0 C29.7 0 59.4 0 90 0 C97.22873854 18.67424123 104.43309904 37.34595005 111.47592163 56.08935547 C113.69761345 62.00159022 115.92344397 67.9122656 118.14950371 73.8228569 C118.66161963 75.18262442 119.17369064 76.54240885 119.68571663 77.90221024 C125.16170129 92.44416043 130.67128048 106.9732633 136.1875 121.5 C141.49923073 135.48888128 146.80870619 149.47852865 152.0859375 163.48046875 C152.70665886 165.12731659 152.70665886 165.12731659 153.33992004 166.80743408 C154.98640885 171.17646739 156.63263754 175.54559788 158.27755737 179.91522217 C162.87114275 192.11622036 167.49114573 204.30647774 172.1662426 216.4764576 C172.91170009 218.41727315 173.65657145 220.35831265 174.40126038 222.29942322 C174.89045685 223.57437731 175.37966879 224.84932546 175.86889648 226.12426758 C176.22887962 227.06240941 176.22887962 227.06240941 176.59613514 228.01950359 C178.24233611 232.30766999 179.8961047 236.59287851 181.55102539 240.87768555 C182.40402399 243.09806179 183.25681833 245.31851653 184.109375 247.5390625 C184.50517258 248.5582225 184.90097015 249.57738251 185.3087616 250.62742615 C185.66545425 251.55942337 186.02214691 252.49142059 186.38964844 253.45166016 C186.70238708 254.26220856 187.01512573 255.07275696 187.33734131 255.90786743 C188 258 188 258 188 261 C159.29 261 130.58 261 101 261 C99.02 254.4 97.04 247.8 95 241 C94.37351562 238.93492187 93.74703125 236.86984375 93.1015625 234.7421875 C92.85019531 233.91332031 92.59882813 233.08445312 92.33984375 232.23046875 C91.84176528 230.58925937 91.34160554 228.94868079 90.83984375 227.30859375 C90.59621094 226.50292969 90.35257813 225.69726562 90.1015625 224.8671875 C89.88838379 224.16706543 89.67520508 223.46694336 89.45556641 222.74560547 C89 221 89 221 89 219 C59.63 219 30.26 219 0 219 C-0.495 221.97 -0.495 221.97 -1 225 C-1.63358879 227.4057293 -2.30177544 229.80249639 -2.99609375 232.19140625 C-3.18969986 232.85913559 -3.38330597 233.52686493 -3.58277893 234.21482849 C-3.99046436 235.61790252 -4.39982829 237.02048982 -4.81079102 238.42260742 C-5.43631338 240.55844828 -6.05545397 242.69606437 -6.67382812 244.83398438 C-8.27104003 250.31912889 -9.87501651 255.68754127 -12 261 C-40.05 261 -68.1 261 -97 261 C-92.47268358 248.06481022 -87.87402111 235.23853686 -82.91992188 222.47460938 C-80.35230324 215.79001021 -78.03519527 209.11842849 -76.07885742 202.22827148 C-74.94173731 198.82566019 -73.53677065 195.64447767 -72.05561829 192.38111877 C-70.30860345 188.44044259 -68.78436461 184.41784433 -67.25 180.390625 C-66.91000977 179.5019574 -66.57001953 178.61328979 -66.21972656 177.69769287 C-65.50588394 175.82922292 -64.79333578 173.96025795 -64.08203125 172.09082031 C-63.00746516 169.26959942 -61.92583652 166.45115603 -60.84375 163.6328125 C-57.62796381 155.21820218 -54.56133899 146.84396888 -52.00830078 138.20068359 C-50.08465405 132.09438612 -47.71261318 126.15096736 -45.40258789 120.1824646 C-43.65209228 115.65704819 -41.91796393 111.12536612 -40.18359375 106.59375 C-39.79279633 105.57310959 -39.4019989 104.55246918 -38.99935913 103.50090027 C-32.02369877 85.24793652 -25.20942281 66.93346513 -18.35940456 48.63309288 C-17.21930385 45.58752046 -16.0788125 42.54209437 -14.93830681 39.49667358 C-14.16305816 37.42587735 -13.38855856 35.35480229 -12.614151 33.28369141 C-8.45397592 22.17149313 -4.22428037 11.08873596 0 0 Z M3 3 C-0.898125 13.395 -4.79625 23.79 -8.8125 34.5 C-14.46661377 49.57763672 -20.12072754 64.65527344 -25.77484131 79.73291016 C-26.06017416 80.49379786 -26.34550701 81.25468557 -26.63948631 82.03863049 C-27.20704305 83.55211491 -27.77460007 85.06559923 -28.34215736 86.57908344 C-29.73630033 90.29679435 -31.13043852 94.01450704 -32.52456665 97.73222351 C-35.01720675 104.37932375 -37.50988177 111.02641089 -40.00273705 117.67343044 C-41.40158867 121.40337156 -42.80041125 125.13332358 -44.19921875 128.86328125 C-44.47622997 129.60193735 -44.7532412 130.34059345 -45.0386467 131.10163307 C-48.8255677 141.1997023 -52.61116229 151.29826789 -56.39573669 161.3972168 C-58.49004729 166.98577037 -60.58468203 172.57420242 -62.67942524 178.16259384 C-64.13192181 182.03761824 -65.58427792 185.91269514 -67.0362854 189.78790283 C-77.56001185 217.87333349 -77.56001185 217.87333349 -82.8046875 231.66796875 C-83.1504332 232.57792099 -83.49617889 233.48787323 -83.85240173 234.42539978 C-85.36247623 238.39776845 -86.87624946 242.36864635 -88.39770508 246.33666992 C-88.89410928 247.63848383 -89.39045241 248.94032103 -89.88671875 250.2421875 C-90.30139404 251.3235498 -90.71606934 252.40491211 -91.14331055 253.51904297 C-92.10879828 255.87762738 -92.10879828 255.87762738 -92 258 C-66.26 258 -40.52 258 -14 258 C-11.68004892 251.04014676 -9.49633172 244.0979486 -7.4375 237.0625 C-6.98213867 235.53206055 -6.98213867 235.53206055 -6.51757812 233.97070312 C-6.07381836 232.45573242 -6.07381836 232.45573242 -5.62109375 230.91015625 C-5.3573999 230.01433838 -5.09370605 229.11852051 -4.82202148 228.19555664 C-3.70144711 223.83939449 -2.8821267 219.41063352 -2 215 C29.02 215 60.04 215 92 215 C92.66 218.3 93.32 221.6 94 225 C94.87922779 228.66805661 95.87671998 232.30017714 96.875 235.9375 C97.11863281 236.84951172 97.36226562 237.76152344 97.61328125 238.70117188 C99.41992758 245.32398159 101.63677291 251.50112551 104 258 C130.4 258 156.8 258 184 258 C182.27976595 252.83929786 180.57423821 247.73790109 178.68530273 242.64746094 C178.24785736 241.46660919 177.81041199 240.28575745 177.35971069 239.06912231 C176.88439874 237.79085076 176.40902441 236.5126024 175.93359375 235.234375 C175.42671694 233.86851345 174.91993446 232.50261689 174.41323853 231.13668823 C173.04356495 227.44602902 171.67168494 223.75619379 170.29915237 220.06659698 C169.43054336 217.73129671 168.5624816 215.39579365 167.69454956 213.0602417 C158.15303382 187.38781192 148.52544739 161.74841619 138.85449219 136.12451172 C137.77537333 133.26530601 136.6962716 130.40609383 135.6171875 127.546875 C135.21575531 126.48327192 135.21575531 126.48327192 134.80621338 125.39818192 C128.36507648 108.33078292 121.95396903 91.25213921 115.54868698 74.17125702 C114.70975697 71.93434566 113.87056521 69.6975327 113.03128052 67.46075439 C112.75999864 66.73767908 112.48871675 66.01460377 112.20921421 65.26961708 C111.48221221 63.33188059 110.75515442 61.39416502 110.02809143 59.45645142 C102.98188601 40.65086621 95.99251447 21.8260005 89 3 C60.62 3 32.24 3 3 3 Z " fill="#060403" transform="translate(258,225)"/>
<path d="M0 0 C21.45 0 42.9 0 65 0 C65 7.59 65 15.18 65 23 C59.39 25.64 53.78 28.28 48 31 C53.61 33.31 59.22 35.62 65 38 C65 48.56 65 59.12 65 70 C43.88 70 22.76 70 1 70 C1 59.44 1 48.88 1 38 C6.28 35.69 11.56 33.38 17 31 C11.78054022 28.73873858 11.78054022 28.73873858 6.55883789 26.48266602 C1.11111111 24.11111111 1.11111111 24.11111111 0 23 C0 15.41 0 7.82 0 0 Z M14 11 C14 13.31 14 15.62 14 18 C26.0700543 24.09389682 26.0700543 24.09389682 39.078125 23.94140625 C46.04603493 21.29614294 46.04603493 21.29614294 52 17 C52 15.02 52 13.04 52 11 C39.46 11 26.92 11 14 11 Z M28.18359375 37.75 C27.41982422 38.1109375 26.65605469 38.471875 25.86914062 38.84375 C25.06669922 39.2253125 24.26425781 39.606875 23.4375 40 C22.63119141 40.3815625 21.82488281 40.763125 20.99414062 41.15625 C18.99528259 42.10245499 16.99753766 43.05101074 15 44 C15 49.28 15 54.56 15 60 C27.21 60 39.42 60 52 60 C52 54.72 52 49.44 52 44 C48.85506236 42.66451937 45.70911422 41.33151938 42.5625 40 C41.66466797 39.6184375 40.76683594 39.236875 39.84179688 38.84375 C38.98779297 38.4828125 38.13378906 38.121875 37.25390625 37.75 C36.46314697 37.41484375 35.6723877 37.0796875 34.85766602 36.734375 C31.94495233 35.58291715 30.99370961 36.41779693 28.18359375 37.75 Z " fill="#161486" transform="translate(653,709)"/>
<path d="M0 0 C7.67573863 0.66870411 15.02288267 2.2059942 22.53125 3.90625 C23.8035144 4.19101196 25.07577881 4.47577393 26.38659668 4.76916504 C29.05986557 5.36793835 31.73235302 5.97004913 34.40429688 6.57470703 C37.83401786 7.35063835 41.26541567 8.11884077 44.69739532 8.88471222 C47.9761931 9.61730875 51.25367245 10.35571299 54.53125 11.09375 C55.76653442 11.36981079 57.00181885 11.64587158 58.27453613 11.93029785 C59.40661499 12.1872644 60.53869385 12.44423096 61.70507812 12.70898438 C62.70607544 12.93469116 63.70707275 13.16039795 64.73840332 13.39294434 C67 14 67 14 68 15 C68.08758003 16.99964982 68.10696576 19.0023611 68.09765625 21.00390625 C68.09515869 22.09775635 68.09266113 23.19160645 68.09008789 24.31860352 C68.08098389 25.71908936 68.07187988 27.1195752 68.0625 28.5625 C68.041875 32.996875 68.02125 37.43125 68 42 C51.17 42 34.34 42 17 42 C17 48.27 17 54.54 17 61 C34.82 61 52.64 61 71 61 C71 64.63 71 68.26 71 72 C48.56 72 26.12 72 3 72 C3 59.13 3 46.26 3 33 C19.83 33 36.66 33 54 33 C53.67 29.7 53.34 26.4 53 23 C34.19 18.71 15.38 14.42 -4 10 C-3.06588007 6.2635203 -1.77257035 3.39100415 0 0 Z " fill="#161586" transform="translate(570,707)"/>
<path d="M0 0 C2.66838286 2.66838286 3.13410363 5.12943342 4.2421875 8.73828125 C4.45183136 9.41489304 4.66147522 10.09150482 4.87747192 10.78862 C5.54921148 12.96147973 6.21221947 15.13689279 6.875 17.3125 C7.31322814 18.73520296 7.7520245 20.15773102 8.19140625 21.58007812 C9.26825517 25.07073989 10.33830448 28.56343929 11.40588379 32.0569458 C14.40939628 41.87991889 17.4521517 51.69071349 20.5 61.5 C21.63464728 65.15178288 22.76885977 68.8036767 23.8984375 72.45703125 C24.62395808 74.79053183 25.3581254 77.12136429 26.1015625 79.44921875 C26.44960938 80.54878906 26.79765625 81.64835937 27.15625 82.78125 C27.46369141 83.74095703 27.77113281 84.70066406 28.08789062 85.68945312 C29.29427806 90.06809705 30.1092809 94.54640452 31 99 C10.87 99 -9.26 99 -30 99 C-28.26271223 92.05084893 -26.61312509 85.49365477 -24.25 78.8125 C-21.77656354 71.60855795 -19.6422768 64.34391619 -17.625 57 C-14.88103559 47.01574268 -11.93257771 37.11135447 -8.85571289 27.22485352 C-6.64161762 20.10870231 -4.49267894 12.97838939 -2.45849609 5.80859375 C-1.10568787 1.10568787 -1.10568787 1.10568787 0 0 Z M0 13 C-2.61093345 21.56980139 -5.21889303 30.14050035 -7.82302856 38.71236992 C-9.03224155 42.6923222 -10.24248834 46.67195403 -11.45507812 50.65087891 C-12.6245936 54.48859721 -13.79141902 58.32712376 -14.95635986 62.16623306 C-15.40195399 63.63298971 -15.84852735 65.09944922 -16.29608154 66.56560898 C-16.92131343 68.61442028 -17.54309925 70.66424706 -18.1640625 72.71435547 C-18.51936035 73.88239716 -18.8746582 75.05043884 -19.24072266 76.25387573 C-20.08883062 78.84641941 -20.08883062 78.84641941 -20 81 C-6.14 81 7.72 81 22 81 C19.63484833 72.28969608 19.63484833 72.28969608 17.13061523 63.62646484 C16.79694443 62.50936127 16.46327362 61.39225769 16.11949158 60.24130249 C14.62252088 55.25981153 13.12423167 50.27872889 11.62036133 45.29931641 C10.82567821 42.66647667 10.03557352 40.03232617 9.24926758 37.39697266 C8.11107781 33.5823214 6.96037194 29.77150933 5.80859375 25.9609375 C5.45647324 24.77567474 5.10435272 23.59041199 4.74156189 22.36923218 C4.41104324 21.28365021 4.0805246 20.19806824 3.73999023 19.07958984 C3.4514769 18.12015472 3.16296356 17.1607196 2.8657074 16.17221069 C2.21061026 13.82809425 2.21061026 13.82809425 0 13 Z " fill="#120B01" transform="translate(302,289)"/>
<path d="M0 0 C14.52 0 29.04 0 44 0 C44 8.58 44 17.16 44 26 C29.48 26 14.96 26 0 26 C0 17.42 0 8.84 0 0 Z M13 10 C13 11.98 13 13.96 13 16 C18.61 16 24.22 16 30 16 C30 14.02 30 12.04 30 10 C24.39 10 18.78 10 13 10 Z " fill="#171586" transform="translate(281,710)"/>
<path d="M0 0 C16.5 0 33 0 50 0 C50 10.23 50 20.46 50 31 C45.71 31 41.42 31 37 31 C37 24.07 37 17.14 37 10 C24.79 10 12.58 10 0 10 C0 6.7 0 3.4 0 0 Z " fill="#171586" transform="translate(278,748)"/>
<path d="M0 0 C14.52 0 29.04 0 44 0 C47 9 47 9 47 14 C30.17 14 13.34 14 -4 14 C-1 2 -1 2 0 0 Z " fill="#ED1A29" transform="translate(281,370)"/>
<path d="M0 0 C8.91 0 17.82 0 27 0 C27 4.95 27 9.9 27 15 C18.09 15 9.18 15 0 15 C0 10.05 0 5.1 0 0 Z " fill="#161486" transform="translate(471,785)"/>
<path d="M0 0 C-0.62677468 6.50469822 -2.07476111 12.53800883 -3.875 18.8125 C-4.13152344 19.75287109 -4.38804687 20.69324219 -4.65234375 21.66210938 C-4.90886719 22.56380859 -5.16539062 23.46550781 -5.4296875 24.39453125 C-5.65897949 25.20768799 -5.88827148 26.02084473 -6.12451172 26.85864258 C-7.06918225 29.16921292 -8.12683398 30.38030837 -10 32 C-11.20081617 28.3975515 -10.68683477 27.18001252 -9.6015625 23.59765625 C-9.28703125 22.54255859 -8.9725 21.48746094 -8.6484375 20.40039062 C-8.14183594 18.74813477 -8.14183594 18.74813477 -7.625 17.0625 C-6.97090118 14.88685489 -6.31723756 12.71107887 -5.6640625 10.53515625 C-5.36967285 9.569729 -5.0752832 8.60430176 -4.77197266 7.60961914 C-3.9828131 5.07102127 -3.9828131 5.07102127 -3.52099609 2.71655273 C-3.26310303 1.86685913 -3.26310303 1.86685913 -3 1 C-1 0 -1 0 0 0 Z " fill="#130F03" transform="translate(257,445)"/>
</svg>
