<?xml version="1.0" encoding="UTF-8"?>
<svg version="1.1" xmlns="http://www.w3.org/2000/svg" width="300" height="300">
<path d="M0 0 C0.26221814 4.20714438 0.42147604 8.41218891 0.5625 12.625 C0.63791016 13.81480469 0.71332031 15.00460938 0.79101562 16.23046875 C1.00852677 24.88257871 1.00852677 24.88257871 -1.86767578 28.06933594 C-4.1820203 29.62118959 -6.47089389 30.83714969 -9 32 C-10.010625 32.61875 -11.02125 33.2375 -12.0625 33.875 C-12.701875 34.24625 -13.34125 34.6175 -14 35 C0.02560996 48.32225027 0.02560996 48.32225027 14.625 61 C15.40875 61.66 16.1925 62.32 17 63 C17 63.33 17 63.66 17 64 C-8.03372829 66.0834729 -8.03372829 66.0834729 -14.18359375 61.57421875 C-17.22074226 58.70749882 -19.57705944 55.38869817 -22 52 C-24.05525844 50.00695135 -24.05525844 50.00695135 -26.125 48.375 C-30.17561954 44.94041218 -33.83068166 41.15986417 -37.5078125 37.33203125 C-40.19956209 34.81326243 -42.88837123 32.96167901 -46 31 C-46.67204468 31.63446045 -46.67204468 31.63446045 -47.35766602 32.28173828 C-49.4244053 34.23113084 -51.49343629 36.17807485 -53.5625 38.125 C-54.26697266 38.79015625 -54.97144531 39.4553125 -55.69726562 40.140625 C-57.1125331 41.47110687 -58.53786024 42.79096672 -59.97290039 44.10009766 C-61.98768397 45.9343016 -61.98768397 45.9343016 -63.63452148 47.81787109 C-67.2499467 51.58540158 -69.92189221 52.39110132 -75.15234375 52.5859375 C-77.41480905 52.54636085 -79.67691002 52.47524219 -81.9375 52.375 C-83.09830078 52.34792969 -84.25910156 52.32085937 -85.45507812 52.29296875 C-88.30532275 52.22259234 -91.15167719 52.12418624 -94 52 C-92.18476645 48.02871569 -89.60589546 45.54529451 -86.375 42.6875 C-85.56095703 41.95466797 -85.56095703 41.95466797 -84.73046875 41.20703125 C-81.23462905 38.06824881 -77.70173967 34.97196891 -74.1484375 31.8984375 C-70.72367627 28.87219394 -67.37767909 25.75925483 -64.03515625 22.64257812 C-56.76655262 15.9148497 -47.90593783 17.1553933 -38.36328125 17.31640625 C-32.50478821 17.68156063 -29.74292833 18.50768557 -25.6875 22.75 C-24.43707287 24.48487253 -23.20654361 26.23432642 -22 28 C-20.37585906 29.38481831 -18.71843952 30.73409275 -17 32 C-17.03778564 31.31486328 -17.07557129 30.62972656 -17.11450195 29.92382812 C-17.92827843 10.90681881 -17.92827843 10.90681881 -14.72509766 6.078125 C-10.65535309 2.3365248 -5.55751706 0 0 0 Z " fill="#38B44A" transform="translate(258,98)"/>
<path d="M0 0 C7.0228125 -0.0928125 7.0228125 -0.0928125 14.1875 -0.1875 C15.65598389 -0.21481201 17.12446777 -0.24212402 18.63745117 -0.27026367 C19.80252197 -0.27775635 20.96759277 -0.28524902 22.16796875 -0.29296875 C23.35672607 -0.3086792 24.5454834 -0.32438965 25.77026367 -0.34057617 C29.32510159 0.03428201 31.20657795 0.79369315 34 3 C34.453125 5.84765625 34.453125 5.84765625 34.25 9.0625 C33.85516141 13.18529145 33.85516141 13.18529145 35 17 C35.23828125 19.0234375 35.23828125 19.0234375 35.3125 21.375 C35.36857422 22.53128906 35.36857422 22.53128906 35.42578125 23.7109375 C34.82017933 26.96674232 33.60191633 27.97858986 31 30 C27.70019531 30.45410156 27.70019531 30.45410156 23.828125 30.390625 C22.8044986 30.38213531 22.8044986 30.38213531 21.76019287 30.37347412 C19.58940238 30.35115636 17.42028794 30.30097508 15.25 30.25 C13.7747635 30.22992876 12.29950101 30.21167907 10.82421875 30.1953125 C7.21498728 30.15471372 3.60935993 30.0764335 0 30 C0 20.1 0 10.2 0 0 Z M7 6 C7 7.98 7 9.96 7 12 C13.6 12 20.2 12 27 12 C27.33 10.35 27.66 8.7 28 7 C27.00516798 5.78356708 27.00516798 5.78356708 25.05053711 5.88647461 C23.8015564 5.89432983 23.8015564 5.89432983 22.52734375 5.90234375 C21.17866211 5.90717773 21.17866211 5.90717773 19.80273438 5.91210938 C18.85720703 5.92048828 17.91167969 5.92886719 16.9375 5.9375 C15.98810547 5.94201172 15.03871094 5.94652344 14.06054688 5.95117188 C11.70696935 5.9629989 9.35351523 5.97947975 7 6 Z M7 18 C7 20.31 7 22.62 7 25 C10.31248187 25.02888146 13.62493167 25.04675799 16.9375 25.0625 C17.88302734 25.07087891 18.82855469 25.07925781 19.80273438 25.08789062 C20.70185547 25.09111328 21.60097656 25.09433594 22.52734375 25.09765625 C23.35999756 25.10289307 24.19265137 25.10812988 25.05053711 25.11352539 C27.00516798 25.21643292 27.00516798 25.21643292 28 24 C28 22.02 28 20.04 28 18 C21.07 18 14.14 18 7 18 Z " fill="#2E3192" transform="translate(25,152)"/>
<path d="M0 0 C1.23620074 0.86503377 2.46357259 1.74268634 3.6875 2.625 C4.71423828 3.35589844 4.71423828 3.35589844 5.76171875 4.1015625 C8.5744604 6.48723867 10.69703041 9.12027971 13 12 C10.31501609 14.54433543 7.62655405 17.08496714 4.9375 19.625 C3.80924805 20.69427734 3.80924805 20.69427734 2.65820312 21.78515625 C1.15583225 23.20297812 -0.35667608 24.61013526 -1.87915039 26.00634766 C-3.9775256 27.92365978 -3.9775256 27.92365978 -5.66577148 29.84912109 C-9.27065561 33.60566701 -11.93784484 34.38869324 -17.15234375 34.5859375 C-19.41480905 34.54636085 -21.67691002 34.47524219 -23.9375 34.375 C-25.09830078 34.34792969 -26.25910156 34.32085937 -27.45507812 34.29296875 C-30.30532275 34.22259234 -33.15167719 34.12418624 -36 34 C-34.18476645 30.02871569 -31.60589546 27.54529451 -28.375 24.6875 C-27.83230469 24.19894531 -27.28960937 23.71039063 -26.73046875 23.20703125 C-23.23462905 20.06824881 -19.70173967 16.97196891 -16.1484375 13.8984375 C-12.72367627 10.87219394 -9.37767909 7.75925483 -6.03515625 4.64257812 C-2.21690472 1.10845236 -2.21690472 1.10845236 0 0 Z " fill="#2C479B" transform="translate(200,116)"/>
<path d="M0 0 C1.98 0 3.96 0 6 0 C6 3.96 6 7.92 6 12 C13.59 12 21.18 12 29 12 C29 8.04 29 4.08 29 0 C31.31 0 33.62 0 36 0 C36 10.23 36 20.46 36 31 C33.69 31 31.38 31 29 31 C29 26.38 29 21.76 29 17 C21.41 17 13.82 17 6 17 C6 21.29 6 25.58 6 30 C4.02 30 2.04 30 0 30 C0 20.1 0 10.2 0 0 Z " fill="#2E3192" transform="translate(64,152)"/>
<path d="M0 0 C2.6640625 0.33984375 2.6640625 0.33984375 4.515625 2.1484375 C5.10085937 3.01597656 5.68609375 3.88351563 6.2890625 4.77734375 C6.96195313 5.76605469 7.63484375 6.75476563 8.328125 7.7734375 C9.10690313 8.96215292 9.88553649 10.15096319 10.6640625 11.33984375 C11.6505683 12.81021354 12.63757443 14.28024772 13.625 15.75 C14.63983203 17.27874713 15.65286062 18.80869301 16.6640625 20.33984375 C17.15729004 21.08161865 17.65051758 21.82339355 18.15869141 22.58764648 C18.61421387 23.28962158 19.06973633 23.99159668 19.5390625 24.71484375 C19.94898438 25.34132812 20.35890625 25.9678125 20.78125 26.61328125 C21.6640625 28.33984375 21.6640625 28.33984375 21.6640625 31.33984375 C18.73801542 31.96792841 17.44904459 32.23746594 14.6640625 31.33984375 C11.66397372 28.21390445 9.52840235 24.59558335 7.2890625 20.90234375 C6.05210024 18.94530181 4.81512195 16.98827001 3.578125 15.03125 C3.0413916 14.15670166 2.5046582 13.28215332 1.95166016 12.38110352 C0.82273777 10.42491432 0.82273777 10.42491432 -0.3359375 9.33984375 C-1.01140625 10.42523438 -1.686875 11.510625 -2.3828125 12.62890625 C-3.28380546 14.07424912 -4.18484986 15.51955991 -5.0859375 16.96484375 C-5.529375 17.67769531 -5.9728125 18.39054687 -6.4296875 19.125 C-7.30953717 20.53534727 -8.19457413 21.9424727 -9.08496094 23.34619141 C-9.8804467 24.61393862 -10.6569565 25.89394537 -11.40722656 27.18896484 C-13.81363367 31.19687737 -13.81363367 31.19687737 -16.4765625 31.92578125 C-17.17265625 31.85617188 -17.86875 31.7865625 -18.5859375 31.71484375 C-19.8234375 31.59109375 -21.0609375 31.46734375 -22.3359375 31.33984375 C-20.88648125 27.26473698 -18.89826854 23.98068742 -16.45703125 20.41796875 C-16.08490005 19.87251404 -15.71276886 19.32705933 -15.32936096 18.76507568 C-14.14851817 17.03689218 -12.96096757 15.31343679 -11.7734375 13.58984375 C-10.97158856 12.4169514 -10.17015201 11.24377701 -9.36914062 10.0703125 C-2.75186137 0.40035441 -2.75186137 0.40035441 0 0 Z " fill="#2E3192" transform="translate(123.3359375,151.66015625)"/>
<path d="M0 0 C2.62890625 0.3046875 2.62890625 0.3046875 4.2265625 1.859375 C4.70996094 2.62507812 5.19335938 3.39078125 5.69140625 4.1796875 C6.27148438 5.07558594 6.8515625 5.97148437 7.44921875 6.89453125 C7.78083008 7.41901855 8.11244141 7.94350586 8.45410156 8.48388672 C9.84575263 10.64077235 11.29346114 12.75481083 12.74609375 14.87109375 C13.85324893 16.49452961 14.96001765 18.11822911 16.06640625 19.7421875 C16.61111572 20.53544434 17.1558252 21.32870117 17.71704102 22.14599609 C18.22291748 22.8983252 18.72879395 23.6506543 19.25 24.42578125 C19.70818115 25.1005249 20.1663623 25.77526855 20.63842773 26.47045898 C21.62890625 28.3046875 21.62890625 28.3046875 21.62890625 31.3046875 C18.56640625 31.9296875 18.56640625 31.9296875 14.62890625 31.3046875 C11.75163751 28.32624008 9.75353605 24.84261731 7.62890625 21.3046875 C6.34028469 19.28191104 5.0487045 17.26101578 3.75390625 15.2421875 C3.17898437 14.32308594 2.6040625 13.40398437 2.01171875 12.45703125 C0.80299825 10.40787997 0.80299825 10.40787997 -0.37109375 9.3046875 C-0.72413574 9.86454346 -1.07717773 10.42439941 -1.44091797 11.0012207 C-3.04224767 13.54012604 -4.64416416 16.07866063 -6.24609375 18.6171875 C-6.80167969 19.49826172 -7.35726562 20.37933594 -7.9296875 21.28710938 C-8.46464844 22.13466797 -8.99960938 22.98222656 -9.55078125 23.85546875 C-10.04304199 24.63575439 -10.53530273 25.41604004 -11.04248047 26.2199707 C-12.13122324 27.92830855 -13.24739395 29.6191378 -14.37109375 31.3046875 C-16.31640625 31.59765625 -16.31640625 31.59765625 -18.49609375 31.4921875 C-19.77484375 31.4303125 -21.05359375 31.3684375 -22.37109375 31.3046875 C-20.9216375 27.22958073 -18.93342479 23.94553117 -16.4921875 20.3828125 C-16.1200563 19.83735779 -15.74792511 19.29190308 -15.36451721 18.72991943 C-14.18367442 17.00173593 -12.99612382 15.27828054 -11.80859375 13.5546875 C-11.00674481 12.38179515 -10.20530826 11.20862076 -9.40429688 10.03515625 C-2.7817175 0.35745299 -2.7817175 0.35745299 0 0 Z " fill="#2E3192" transform="translate(211.37109375,151.6953125)"/>
<path d="M0 0 C0.99 0 1.98 0 3 0 C3.33 3.96 3.66 7.92 4 12 C7.63 12.33 11.26 12.66 15 13 C15 8.71 15 4.42 15 0 C17.475 0.495 17.475 0.495 20 1 C20.66 0.67 21.32 0.34 22 0 C24.71760108 -0.07181821 27.40859388 -0.09299506 30.125 -0.0625 C30.87910156 -0.05798828 31.63320312 -0.05347656 32.41015625 -0.04882812 C34.27347127 -0.03703499 36.13674555 -0.01909942 38 0 C38 1.32 38 2.64 38 4 C33.05 4 28.1 4 23 4 C23 4.66 23 5.32 23 6 C24.37285156 5.98259766 24.37285156 5.98259766 25.7734375 5.96484375 C27.55621094 5.95130859 27.55621094 5.95130859 29.375 5.9375 C30.55835938 5.92589844 31.74171875 5.91429687 32.9609375 5.90234375 C36 6 36 6 38 7 C38.33 4.69 38.66 2.38 39 0 C40.32 0 41.64 0 43 0 C43 5.28 43 10.56 43 16 C40.525 15.505 40.525 15.505 38 15 C37.67 15.33 37.34 15.66 37 16 C34.13732433 16.07325168 31.299281 16.09238205 28.4375 16.0625 C27.63119141 16.05798828 26.82488281 16.05347656 25.99414062 16.04882812 C23.99606244 16.03700518 21.99802217 16.01906914 20 16 C20 15.01 20 14.02 20 13 C24.62 12.67 29.24 12.34 34 12 C34 11.34 34 10.68 34 10 C33.07316406 9.93941406 32.14632812 9.87882813 31.19140625 9.81640625 C29.99386719 9.73261719 28.79632813 9.64882812 27.5625 9.5625 C26.36753906 9.48128906 25.17257813 9.40007812 23.94140625 9.31640625 C21 9 21 9 20 8 C19.855625 9.134375 19.71125 10.26875 19.5625 11.4375 C19 15 19 15 18 16 C15.15664952 16.09986975 12.34302837 16.13877881 9.5 16.125 C8.70207031 16.12886719 7.90414062 16.13273437 7.08203125 16.13671875 C1.12660767 16.12660767 1.12660767 16.12660767 0 15 C-0.07313567 12.46950598 -0.09247527 9.96695163 -0.0625 7.4375 C-0.05798828 6.72658203 -0.05347656 6.01566406 -0.04882812 5.28320312 C-0.03700864 3.52209987 -0.01907263 1.76103964 0 0 Z " fill="#2E3192" transform="translate(150,186)"/>
<path d="M0 0 C3.70906444 -0.75438599 5.40466321 -0.99924892 9 0 C13.85086801 3.35636651 17.9246153 7.76714294 22 12 C26.01554811 9.12592749 29.73828892 6.40998212 32.9375 2.625 C34.80264643 0.64102152 35.6446512 0.05620014 38.37109375 -0.375 C40.6132945 -0.375 42.77491014 -0.26701078 45 0 C34.92663987 12.03889381 34.92663987 12.03889381 29.3359375 15.78515625 C26.23169361 18.7284778 26.31372482 20.54250598 26.1875 24.75 C26.13980469 25.92046875 26.09210938 27.0909375 26.04296875 28.296875 C26.02169922 29.63492188 26.02169922 29.63492188 26 31 C23.69 31 21.38 31 19 31 C19.18755859 29.87078125 19.18755859 29.87078125 19.37890625 28.71875 C19.67325887 23.55818493 19.53338959 19.94305702 16.30029297 15.84619141 C12.03636025 11.41111121 7.40418536 7.39882472 2.65820312 3.48950195 C1 2 1 2 0 0 Z " fill="#2E3192" transform="translate(155,152)"/>
<path d="M0 0 C5.02569612 1.00513922 6.84885175 2.05394771 10.8125 5.0625 C11.78832031 5.79597656 12.76414063 6.52945313 13.76953125 7.28515625 C14.87361328 8.13400391 14.87361328 8.13400391 16 9 C16.33 6.03 16.66 3.06 17 0 C17.78375 0.185625 18.5675 0.37125 19.375 0.5625 C21.97089775 1.25962266 21.97089775 1.25962266 24 0 C26.55157655 -0.0716735 29.07472971 -0.09308442 31.625 -0.0625 C32.68460938 -0.05573242 32.68460938 -0.05573242 33.765625 -0.04882812 C35.51045275 -0.03703875 37.255237 -0.01910324 39 0 C39 1.32 39 2.64 39 4 C34.38 4 29.76 4 25 4 C25 6.97 25 9.94 25 13 C28.3 13 31.6 13 35 13 C35 11.02 35 9.04 35 7 C36.32 7 37.64 7 39 7 C39.09765625 13.15234375 39.09765625 13.15234375 39 15 C36.25614234 17.74385766 29.10882167 16.66959141 25.4465332 16.75195312 C15.67472533 16.57279087 9.92652271 12.5190802 3 6 C3 9.3 3 12.6 3 16 C2.01 16 1.02 16 0 16 C0 10.72 0 5.44 0 0 Z " fill="#2E3192" transform="translate(194,186)"/>
<path d="M0 0 C2.31 0 4.62 0 7 0 C7 10.23 7 20.46 7 31 C4.69 31 2.38 31 0 31 C0 20.77 0 10.54 0 0 Z " fill="#2E3192" transform="translate(147,152)"/>
<path d="M0 0 C0.68126953 -0.01224609 1.36253906 -0.02449219 2.06445312 -0.03710938 C5.79079809 -0.04805848 7.38241571 0.06744381 10.5625 2.1875 C10.92578125 4.9375 10.92578125 4.9375 10.875 8.1875 C10.87113281 9.26 10.86726563 10.3325 10.86328125 11.4375 C10.5625 14.1875 10.5625 14.1875 8.5625 16.1875 C5.67117823 16.35929052 2.88807935 16.4197947 0 16.375 C-0.79341797 16.37435547 -1.58683594 16.37371094 -2.40429688 16.37304688 C-8.29724478 16.32775522 -8.29724478 16.32775522 -9.4375 15.1875 C-9.51021741 12.83436445 -9.52120868 10.47916332 -9.5 8.125 C-9.49097656 6.83464844 -9.48195312 5.54429687 -9.47265625 4.21484375 C-9.46105469 3.21582031 -9.44945312 2.21679688 -9.4375 1.1875 C-6.41888236 -0.32180882 -3.30758697 0.00311156 0 0 Z M-5.4375 4.1875 C-5.4375 7.1575 -5.4375 10.1275 -5.4375 13.1875 C-1.4775 13.1875 2.4825 13.1875 6.5625 13.1875 C6.5625 10.2175 6.5625 7.2475 6.5625 4.1875 C2.6025 4.1875 -1.3575 4.1875 -5.4375 4.1875 Z " fill="#2E3192" transform="translate(138.4375,185.8125)"/>
<path d="M0 0 C1.32 0 2.64 0 4 0 C4 1.98 4 3.96 4 6 C7.63 6 11.26 6 15 6 C15 4.02 15 2.04 15 0 C16.32 0 17.64 0 19 0 C19 5.28 19 10.56 19 16 C17.68 16 16.36 16 15 16 C15 13.69 15 11.38 15 9 C11.37 9 7.74 9 4 9 C4 11.31 4 13.62 4 16 C2.68 16 1.36 16 0 16 C0 10.72 0 5.44 0 0 Z " fill="#2E3192" transform="translate(109,186)"/>
<path d="M0 0 C6.75 4.5 6.75 4.5 9.375 7.75 C9.87773437 8.36359375 10.38046875 8.9771875 10.8984375 9.609375 C11.26195312 10.06828125 11.62546875 10.5271875 12 11 C11.07213211 12.00894372 10.13231567 13.00690907 9.1875 14 C8.40439453 14.8353125 8.40439453 14.8353125 7.60546875 15.6875 C6 17 6 17 3 17 C2.01 11.39 1.02 5.78 0 0 Z " fill="#2B377C" transform="translate(201,117)"/>
</svg>
